    <svg class="chopsticks" width="393" height="163" viewBox="0 0 393 163" fill="none"
      xmlns="http://www.w3.org/2000/svg">
      <g clip-path="url(#clip0_920_6171)">
        <path
          d="M229.736 3.79021C223.524 5.88237 217.326 7.96013 211.143 10.0235C210.957 10.0863 210.636 10.2303 210.18 10.4555C209.434 10.8247 208.235 10.9622 207.649 11.1743C198.441 14.5404 189.021 17.3526 179.782 20.6754C174.37 22.6236 167.728 24.7288 162.246 26.1507C161.228 26.4138 160.442 27.0383 159.165 27.2897C158.269 27.4678 156.398 28.1171 153.553 29.2378C152.959 29.4735 152.362 29.4107 151.698 29.8349C150.138 30.8325 148.397 31.0878 146.974 31.5395C145.192 32.1051 143.412 32.6733 141.633 33.2441C140.898 33.4798 139.955 34.0022 138.965 34.1514C136.383 34.5442 134.323 36.347 131.761 36.2252C131.641 36.2192 131.527 36.1712 131.439 36.0896C131.351 36.0081 131.295 35.8981 131.28 35.7791C131.265 35.6601 131.292 35.5396 131.357 35.4387C131.422 35.3379 131.521 35.2631 131.635 35.2276C132.589 34.937 133.451 34.4905 134.221 33.8883C134.313 33.8192 134.423 33.7796 134.536 33.7744C134.994 33.7534 135.352 33.5937 135.608 33.2952C135.679 33.214 135.766 33.1551 135.868 33.1184L140.886 31.3431C140.91 31.3354 140.929 31.3216 140.942 31.3038C141.251 30.9215 141.616 30.589 142.038 30.3062C142.14 30.2355 142.253 30.1857 142.376 30.1569C142.958 30.0195 143.421 29.5874 143.885 29.3989C147.781 27.7911 151.712 26.3785 155.679 25.1609C155.719 25.1527 155.755 25.1293 155.779 25.0955C155.803 25.0618 155.812 25.0202 155.806 24.9795C155.8 24.9387 155.779 24.9018 155.746 24.8763C155.714 24.8509 155.673 24.8389 155.632 24.8427H153.84C153.696 24.8427 153.604 24.7747 153.565 24.6385C153.402 24.0703 153.008 23.9407 152.382 24.2497C148.841 26.0053 144.816 27.5764 141.252 28.4052C141.129 28.436 141.015 28.4997 140.922 28.5898C140.289 29.2221 139.326 29.2143 138.733 29.4421C138.044 29.7118 137.326 29.9003 136.579 30.0077C136.535 30.0129 136.506 30.0365 136.493 30.0784L136.461 30.1726C136.446 30.2167 136.418 30.255 136.381 30.2824C136.343 30.3098 136.299 30.3249 136.253 30.3258L134.036 30.3769C133.99 30.3795 133.944 30.3686 133.903 30.3455L132.531 29.556C132.467 29.5188 132.395 29.4986 132.322 29.4972C132.248 29.4958 132.175 29.5134 132.111 29.5481C131.799 29.7183 131.524 30.0221 131.285 30.4594C130.95 31.0773 130.258 31.6036 129.21 32.0383C127.447 32.7741 125.852 33.7744 124.424 35.0391C124.324 35.1255 124.209 35.1621 124.078 35.149C122.726 35.0116 121.48 36.6416 121.064 37.6903C121.016 37.8133 120.931 37.9011 120.808 37.9534L118.706 38.8254C118.729 38.3488 118.892 37.9705 119.193 37.6903C119.287 37.6013 119.337 37.4939 119.342 37.3682C119.353 37.1142 119.486 36.8589 119.743 36.6023C120.558 35.7958 121.267 35.1268 121.869 34.5952C122.304 34.2129 123.114 33.6801 124.298 32.9967C125.485 32.3132 126.31 31.4295 127.662 30.9464C128.697 30.5746 129.624 30.0208 130.444 29.285C130.735 29.0218 131.16 28.9118 131.506 28.6526C131.584 28.595 131.627 28.5165 131.635 28.417L131.698 27.3133C131.711 27.0802 131.794 27.0527 131.946 27.2308C132.881 28.3384 134.036 28.7547 135.412 28.4798C136.387 28.2873 137.243 27.5607 138.477 27.439C138.611 27.4259 138.73 27.3748 138.835 27.2858C139.432 26.7856 140.125 26.5997 140.914 26.728C141.043 26.7486 141.175 26.7351 141.299 26.6888C141.661 26.5474 142.026 26.423 142.396 26.3156C143.582 25.9739 144.29 25.2394 145.689 25.2237C145.815 25.2212 145.94 25.1874 146.051 25.1255C146.96 24.6071 147.917 24.2078 148.923 23.9276C149.544 23.7587 149.914 23.3188 150.601 23.1931C150.716 23.1728 150.819 23.1129 150.892 23.0242C151.663 22.1012 153.867 22.4743 154.63 23.0046C154.737 23.0805 154.858 23.1132 154.991 23.1028C156.519 22.9745 158.016 23.1211 159.483 23.5427C159.617 23.5819 159.75 23.5846 159.884 23.5505C163.067 22.7362 166.28 21.6914 169.52 20.4162L227.515 0.502712C227.619 0.467147 227.731 0.4647 227.836 0.495718C227.94 0.526736 228.032 0.589645 228.097 0.675532C228.778 1.57105 229.325 2.60927 229.736 3.79021Z"
          fill="#DEA08A" />
        <path
          d="M229.736 3.79028L230.789 8.51532C230.805 8.58912 230.798 8.66576 230.769 8.7347C230.74 8.80363 230.691 8.86147 230.628 8.90023C230.172 9.1935 229.564 9.46321 228.805 9.70934C213.952 14.5326 199.098 19.3558 184.242 24.179C183.359 24.4644 182.393 24.835 181.342 25.2906L174.626 27.5176L142.981 37.5647C142.855 37.6066 142.762 37.6851 142.702 37.8003L142.517 38.1578C141.904 37.8252 141.348 37.7938 140.847 38.0635C140.701 38.142 140.702 38.2167 140.851 38.2874C142.381 39.0153 144.02 39.5835 145.768 39.992C149.446 41.2135 152.912 41.351 156.603 43.8961C156.621 43.9091 156.642 43.9172 156.665 43.9197L159.141 44.3517C159.246 44.3701 159.34 44.3491 159.424 44.2889C160.112 43.8019 161.008 42.6078 161.912 43.6526C162.014 43.7731 162.14 43.8071 162.289 43.7547L180.89 37.0776C181.008 37.0357 181.13 37.0226 181.255 37.0384C182.047 37.1274 182.754 36.9218 183.378 36.4217C183.456 36.3589 183.543 36.3143 183.637 36.2882L184.348 36.0839C184.365 36.0786 184.383 36.0797 184.399 36.087C184.415 36.0944 184.428 36.1074 184.435 36.1237C184.442 36.1399 184.442 36.1581 184.437 36.1747C184.431 36.1913 184.419 36.2052 184.403 36.2135C184.301 36.2738 184.178 36.313 184.034 36.3314C183.913 36.3465 183.802 36.4068 183.724 36.5003C182.961 37.3879 182.043 37.9993 180.969 38.3345C177.325 39.4735 173.824 40.9936 170.212 42.1876C170.154 42.2087 170.105 42.2497 170.074 42.3033C170.043 42.357 170.032 42.4198 170.043 42.4809C170.053 42.5419 170.085 42.5972 170.133 42.6369C170.18 42.6767 170.241 42.6984 170.303 42.6982C171.317 42.6694 172.328 42.4678 173.337 42.0933C178.886 40.0431 184.439 37.9993 189.996 35.9622C190.538 35.7658 191.1 35.7697 191.603 35.5537C193.843 34.5848 195.345 33.9918 196.107 33.7744C198.771 33.0164 201.483 31.7202 203.833 30.9504C206.901 29.9449 209.438 29.0442 211.442 28.2481C211.908 28.0648 212.405 27.7114 212.931 27.1877C213.033 27.0882 213.157 27.0384 213.301 27.0384C214.239 27.0358 215.123 26.7962 215.953 26.3196C216.058 26.2594 216.172 26.228 216.295 26.2254C216.932 26.2097 217.504 26.008 218.013 25.6205C218.125 25.5341 218.254 25.4883 218.398 25.483C218.901 25.4595 219.238 25.4123 219.408 25.3416C221.876 24.3204 224.104 23.7823 226.859 22.4862C227.771 22.0581 228.757 22.1523 229.705 21.6025C229.82 21.537 229.943 21.5056 230.074 21.5082C230.601 21.5239 230.789 21.41 231.257 21.0486C231.776 20.6519 232.361 20.7737 232.86 20.6087C233.859 20.2814 234.853 19.9358 235.843 19.5718C235.969 19.5247 236.095 19.5247 236.22 19.5718L237.195 19.941C237.761 21.1429 238.759 23.857 238.288 25.1649C238.268 25.22 238.236 25.2698 238.195 25.3107C238.153 25.3515 238.103 25.3823 238.048 25.4005L201.078 38.2874L199.396 39.0061L193.753 41.186C193.75 41.186 193.747 41.1873 193.745 41.1895C193.742 41.1917 193.741 41.1947 193.741 41.1978C193.741 41.2009 193.742 41.2039 193.745 41.2061C193.747 41.2083 193.75 41.2096 193.753 41.2096C193.787 41.2201 193.821 41.2318 193.855 41.2449C193.907 41.2606 193.914 41.2881 193.875 41.3274C193.222 41.9676 192.818 42.7257 192.071 43.2245C190.714 44.1305 189.312 44.9605 187.866 45.7147C187.528 45.8914 186.985 45.9268 186.655 46.3195C185.63 47.5528 184.486 48.5191 183.598 49.7641C183.158 50.3847 182.656 50.8822 182.093 51.2567C182.044 51.2897 182.003 51.3338 181.974 51.3856C181.944 51.4373 181.927 51.4954 181.924 51.5552C181.89 52.3852 181.514 53.0084 180.796 53.4248C180.734 53.4606 180.687 53.5145 180.662 53.5779C180.397 54.243 179.917 54.5874 179.22 54.6109C179.055 54.6188 178.949 54.5415 178.901 54.3792C178.417 52.6929 178.343 50.987 178.681 49.2614C178.702 49.1534 178.756 49.0543 178.834 48.977C178.912 48.8997 179.012 48.8479 179.121 48.8284C179.229 48.8089 179.341 48.8225 179.441 48.8675C179.542 48.9126 179.626 48.9869 179.683 49.0807C180.053 49.683 180.205 50.3494 180.139 51.0799C180.131 51.1646 180.153 51.2496 180.203 51.3186C180.253 51.3876 180.327 51.4357 180.41 51.4537C180.493 51.4717 180.58 51.4583 180.655 51.4162C180.729 51.374 180.784 51.306 180.811 51.2252C181.711 48.6879 185.838 45.0744 188.935 43.9983C190.204 43.5584 191.084 42.8042 192.259 42.1208C192.443 42.0135 192.511 41.8668 192.464 41.6809C192.432 41.5526 192.354 41.5107 192.228 41.5552C191.759 41.7202 191.289 41.8773 190.817 42.0265C190.306 42.1876 189.917 42.5921 189.351 42.6982C188.607 42.8422 188.225 42.9181 188.204 42.926C183.613 44.4761 179.001 45.9935 174.366 47.4782L169.143 49.1907C167.48 49.9082 165.842 50.3729 164.231 50.585C159.25 46.9165 153.924 44.0585 148.251 42.0108C143.26 40.208 138.678 38.1106 133.404 37.0148C130.492 36.4138 126.746 36.3981 123.897 37.2976C120.722 38.2952 118.749 41.8537 120.631 44.8898C121.556 46.3824 122.451 47.8801 123.315 49.3831L118.992 54.0532L117.927 53.5387C117.873 53.5125 117.827 53.4699 117.798 53.417C117.77 53.364 117.758 53.3035 117.766 53.2441C117.976 51.5342 117.685 49.9252 116.894 48.4169C116.831 48.2965 116.739 48.2048 116.619 48.142C115.31 47.4625 112.834 48.0831 111.396 47.9967C111.343 47.994 111.317 47.9679 111.317 47.9181C111.317 47.8815 111.319 47.8435 111.321 47.8042C111.326 47.7047 111.281 47.6654 111.184 47.6864L106.896 48.6133C106.244 48.6447 105.754 48.7115 105.426 48.8136C71.6884 59.3111 37.9153 69.692 4.10681 79.9565C3.26579 80.2131 2.42608 80.471 1.58768 80.7302C1.46283 80.7685 1.32755 80.7643 1.20254 80.7184C0.662815 80.522 0.419155 80.1528 0.471555 79.6108C0.919575 79.5506 1.51563 79.3935 2.25971 79.1395C10.7249 76.2487 24.4328 71.5237 38.624 66.9557C53.2436 62.2503 67.8435 57.4847 82.4238 52.6589C86.2045 51.4098 88.8062 50.2826 91.9109 49.3478C96.5522 47.9574 101.146 46.4374 105.811 45.1334C106.605 44.9134 107.159 44.3282 107.871 43.9001C107.898 43.8837 107.922 43.862 107.941 43.8361C107.96 43.8103 107.974 43.7808 107.982 43.7494C107.989 43.718 107.991 43.6853 107.986 43.6532C107.981 43.6211 107.97 43.5902 107.953 43.5623C107.578 42.9208 107.618 42.2766 108.071 41.6298L111.38 40.2198L118.706 38.8255L120.808 37.9535C120.931 37.9011 121.016 37.8134 121.064 37.6904C121.48 36.6417 122.726 35.0117 124.078 35.1491C124.209 35.1622 124.324 35.1256 124.424 35.0391C125.852 33.7744 127.447 32.7742 129.21 32.0384C130.258 31.6037 130.95 31.0774 131.286 30.4594C131.524 30.0222 131.799 29.7184 132.111 29.5482C132.175 29.5134 132.248 29.4959 132.322 29.4973C132.395 29.4987 132.467 29.5189 132.531 29.5561L133.903 30.3455C133.944 30.3687 133.99 30.3796 134.037 30.377L136.253 30.3259C136.299 30.325 136.343 30.3098 136.381 30.2825C136.418 30.2551 136.446 30.2168 136.461 30.1727L136.493 30.0785C136.506 30.0366 136.535 30.013 136.579 30.0078C137.326 29.9004 138.044 29.7119 138.733 29.4422C139.326 29.2144 140.289 29.2222 140.922 28.5898C141.015 28.4998 141.129 28.4361 141.252 28.4052C144.817 27.5765 148.841 26.0054 152.382 24.2497C153.008 23.9407 153.402 24.0704 153.565 24.6386C153.604 24.7747 153.696 24.8428 153.84 24.8428H155.632C155.673 24.8389 155.714 24.851 155.746 24.8764C155.779 24.9018 155.8 24.9388 155.806 24.9795C155.812 25.0203 155.803 25.0619 155.779 25.0956C155.755 25.1294 155.719 25.1528 155.679 25.161C151.712 26.3785 147.781 27.7912 143.885 29.399C143.421 29.5875 142.958 30.0195 142.376 30.157C142.253 30.1858 142.14 30.2356 142.038 30.3063C141.616 30.5891 141.251 30.9216 140.942 31.3039C140.929 31.3217 140.91 31.3354 140.887 31.3432L135.868 33.1185C135.766 33.1552 135.679 33.2141 135.609 33.2952C135.352 33.5937 134.994 33.7535 134.536 33.7744C134.423 33.7796 134.313 33.8193 134.221 33.8883C133.451 34.4906 132.589 34.937 131.635 35.2277C131.521 35.2632 131.422 35.338 131.357 35.4388C131.292 35.5397 131.265 35.6602 131.28 35.7792C131.295 35.8982 131.351 36.0081 131.439 36.0897C131.527 36.1713 131.641 36.2193 131.761 36.2253C134.323 36.3471 136.383 34.5443 138.965 34.1515C139.955 34.0022 140.898 33.4798 141.633 33.2442C143.412 32.6734 145.192 32.1051 146.974 31.5396C148.397 31.0879 150.138 30.8326 151.698 29.8349C152.362 29.4107 152.959 29.4736 153.553 29.2379C156.398 28.1172 158.269 27.4678 159.165 27.2898C160.442 27.0384 161.228 26.4139 162.246 26.1507C167.728 24.7289 174.37 22.6237 179.782 20.6755C189.021 17.3527 198.441 14.5404 207.649 11.1744C208.235 10.9623 209.434 10.8248 210.18 10.4556C210.636 10.2304 210.957 10.0864 211.143 10.0236C217.326 7.9602 223.524 5.88244 229.736 3.79028Z"
          fill="#D8615A" />
        <path
          d="M169.521 20.4162C166.28 21.6914 163.068 22.7362 159.884 23.5506C159.751 23.5846 159.617 23.582 159.483 23.5427C158.016 23.1211 156.519 22.9745 154.991 23.1028C154.858 23.1133 154.737 23.0805 154.63 23.0046C153.867 22.4744 151.663 22.1012 150.892 23.0242C150.819 23.113 150.716 23.1728 150.602 23.1931C149.914 23.3188 149.544 23.7587 148.923 23.9276C147.917 24.2078 146.96 24.6071 146.051 25.1256C145.94 25.1875 145.816 25.2212 145.689 25.2238C144.29 25.2395 143.583 25.974 142.396 26.3157C142.026 26.423 141.661 26.5474 141.299 26.6888C141.176 26.7351 141.043 26.7487 140.914 26.7281C140.126 26.5998 139.433 26.7857 138.835 27.2858C138.73 27.3748 138.611 27.4259 138.478 27.439C137.244 27.5607 136.387 28.2874 135.412 28.4798C134.037 28.7548 132.881 28.3384 131.946 27.2308C131.794 27.0528 131.711 27.0803 131.698 27.3133L131.635 28.417C131.628 28.5165 131.584 28.595 131.506 28.6527C131.16 28.9119 130.735 29.0219 130.445 29.285C129.625 30.0208 128.697 30.5746 127.662 30.9464C126.31 31.4295 125.485 32.3133 124.298 32.9967C123.114 33.6801 122.304 34.213 121.869 34.5953C121.267 35.1268 120.558 35.7958 119.743 36.6023C119.486 36.8589 119.353 37.1142 119.342 37.3682C119.337 37.4939 119.287 37.6013 119.193 37.6903C118.892 37.9705 118.729 38.3489 118.706 38.8254L111.38 40.2198C109.399 39.5232 107.813 38.3187 106.621 36.6063C106.461 36.3785 106.494 36.1834 106.719 36.021L108.165 34.992C108.217 34.9566 108.259 34.9098 108.289 34.8553C108.319 34.8007 108.336 34.74 108.338 34.6778C108.37 33.8412 108.362 33.1145 108.979 32.4665C111.518 29.7995 114.913 28.6959 117.814 26.4924C120.743 24.2693 123.724 22.6433 126.758 21.6142C130.565 20.3233 133.379 19.3126 135.2 18.582C135.596 18.4249 136 18.1329 136.414 17.7061C138.018 16.0565 139.837 15.8522 142.187 16.0329C144.927 16.2411 147.383 13.963 150.154 13.8452C154.319 13.6684 157.511 16.0015 161.873 17.4665C164.378 18.3071 166.927 19.2903 169.521 20.4162Z"
          fill="#E8D0C5" />
        <path
          d="M237.195 19.9409L236.221 19.5717C236.095 19.5246 235.969 19.5246 235.843 19.5717C234.853 19.9357 233.859 20.2813 232.86 20.6086C232.361 20.7736 231.776 20.6518 231.257 21.0485C230.789 21.4099 230.601 21.5238 230.074 21.5081C229.943 21.5055 229.82 21.5369 229.705 21.6023C228.757 22.1522 227.771 22.058 226.859 22.4861C224.104 23.7822 221.876 24.3203 219.408 25.3415C219.238 25.4122 218.901 25.4594 218.398 25.4829C218.254 25.4882 218.126 25.534 218.013 25.6204C217.505 26.0079 216.932 26.2096 216.295 26.2253C216.172 26.2279 216.058 26.2593 215.954 26.3195C215.123 26.7961 214.239 27.0357 213.301 27.0383C213.157 27.0383 213.034 27.0881 212.931 27.1876C212.405 27.7112 211.908 28.0647 211.442 28.248C209.438 29.0441 206.901 29.9448 203.833 30.9503C201.483 31.7201 198.772 33.0163 196.107 33.7743C195.345 33.9917 193.843 34.5847 191.603 35.5536C191.1 35.7696 190.538 35.7657 189.996 35.9621C184.439 37.9992 178.886 40.043 173.337 42.0932C172.328 42.4677 171.317 42.6693 170.303 42.6981C170.241 42.6983 170.181 42.6766 170.133 42.6368C170.085 42.5971 170.053 42.5418 170.043 42.4808C170.032 42.4197 170.043 42.3569 170.074 42.3032C170.105 42.2496 170.154 42.2086 170.212 42.1875C173.824 40.9935 177.326 39.4734 180.969 38.3344C182.043 37.9992 182.961 37.3878 183.724 36.5002C183.802 36.4067 183.913 36.3464 184.034 36.3313C184.178 36.3129 184.301 36.2737 184.404 36.2134C184.419 36.2051 184.431 36.1912 184.437 36.1746C184.443 36.158 184.442 36.1398 184.435 36.1236C184.428 36.1073 184.416 36.0943 184.4 36.0869C184.383 36.0796 184.365 36.0785 184.348 36.0838L183.637 36.2881C183.543 36.3142 183.456 36.3588 183.378 36.4216C182.754 36.9217 182.047 37.1273 181.256 37.0383C181.13 37.0225 181.008 37.0356 180.89 37.0775L162.289 43.7546C162.14 43.807 162.014 43.773 161.912 43.6525C161.008 42.6077 160.112 43.8018 159.424 44.2888C159.341 44.349 159.246 44.37 159.141 44.3516L156.666 43.9196C156.642 43.9171 156.621 43.909 156.603 43.896C152.912 41.3509 149.446 41.2134 145.768 39.9919C144.804 39.1723 143.72 38.5609 142.518 38.1577L142.702 37.8002C142.763 37.685 142.856 37.6065 142.981 37.5646L174.626 27.5175C175.101 27.9888 176.229 28.0242 176.944 28.2991C178.52 28.9079 180.367 29.0061 181.7 30.0587C181.804 30.1399 181.922 30.1844 182.053 30.1923C183.928 30.3337 185.716 30.9857 187.536 31.4138C188.538 31.6494 189.571 32.2818 190.597 32.6589C190.705 32.6981 190.771 32.7741 190.798 32.8867C190.881 33.269 191.111 33.396 191.485 33.2677C193.377 32.6209 195.277 32.0029 197.184 31.4138L234.873 17.8043C235.315 17.6471 235.707 17.7283 236.048 18.0478C236.483 18.451 236.865 19.0821 237.195 19.9409ZM174.166 36.2841C172.387 37.5462 170.389 38.1734 168.173 38.1655C168.042 38.1629 167.955 38.2244 167.913 38.3501L167.442 39.7366C167.394 39.8728 167.417 39.9945 167.508 40.1019C168.294 41.0367 168.892 40.3415 169.721 40.2001C171.207 39.9487 173.498 37.7099 174.52 36.7083C174.565 36.6585 174.59 36.5941 174.591 36.527C174.593 36.4598 174.57 36.3944 174.527 36.3428C174.484 36.2913 174.424 36.2569 174.357 36.2461C174.291 36.2353 174.223 36.2488 174.166 36.2841Z"
          fill="#DEA08A" />
        <path
          d="M181.342 25.2905C184.305 26.77 186.353 27.6301 187.485 27.871C190.884 28.5977 194.236 29.5128 197.184 31.4138C195.277 32.003 193.377 32.6209 191.485 33.2677C191.111 33.396 190.882 33.269 190.798 32.8867C190.771 32.7741 190.705 32.6982 190.597 32.6589C189.572 32.2819 188.538 31.6495 187.536 31.4138C185.716 30.9857 183.928 30.3337 182.053 30.1923C181.922 30.1845 181.805 30.1399 181.7 30.0588C180.367 29.0061 178.52 28.908 176.944 28.2992C176.229 28.0242 175.101 27.9889 174.626 27.5175L181.342 25.2905Z"
          fill="#E8D0C5" />
        <path
          d="M174.166 36.2843C174.223 36.249 174.291 36.2355 174.357 36.2463C174.424 36.2571 174.484 36.2914 174.527 36.343C174.57 36.3946 174.593 36.46 174.591 36.5271C174.59 36.5943 174.564 36.6587 174.519 36.7085C173.498 37.7101 171.206 39.9489 169.721 40.2002C168.892 40.3416 168.294 41.0368 167.508 40.102C167.417 39.9947 167.394 39.8729 167.442 39.7368L167.913 38.3503C167.955 38.2246 168.041 38.1631 168.172 38.1657C170.389 38.1735 172.387 37.5464 174.166 36.2843Z"
          fill="#DEA08A" />
        <path
          d="M164.231 50.5851C164.249 50.6558 164.332 50.7775 164.478 50.9504C164.57 51.0577 164.685 51.1454 164.824 51.2135C167.232 52.3787 169.566 53.6762 171.827 55.1059C172.116 55.2866 172.659 55.3258 173.458 55.2237C173.581 55.208 173.629 55.1399 173.6 55.0195C173.466 54.4565 173.241 54.0179 172.924 53.7037C171.381 52.1693 170.12 50.6649 169.143 49.1907L174.366 47.4783C174.796 47.638 175.009 47.8828 175.007 48.2127C175.004 48.3453 175.044 48.4736 175.121 48.578C175.49 49.0808 175.64 49.6464 175.569 50.2748C175.556 50.3926 175.515 50.5013 175.447 50.6008C175.185 50.9831 175.228 51.3261 175.577 51.6299C176.994 52.871 177.678 54.3923 177.628 56.1939C177.625 56.3143 177.678 56.406 177.785 56.4688C179.55 57.4782 182.427 58.362 183.826 56.2685C183.904 56.1507 184.008 56.0629 184.136 56.0053C185.1 55.5707 185.799 54.8624 186.231 53.8804C186.283 53.7574 186.286 53.633 186.239 53.5073C186.05 53.0229 185.681 52.7794 185.13 52.7767C185.01 52.7767 184.9 52.7427 184.8 52.6746C184.441 52.4259 184.32 52.0789 184.435 51.6338C184.474 51.4845 184.562 51.3746 184.698 51.3039L185.728 50.7697C185.833 50.7147 185.907 50.6309 185.952 50.5183L186.6 48.8137C186.602 48.8072 186.601 48.8004 186.599 48.7942C186.596 48.788 186.592 48.7827 186.586 48.7792C186.581 48.7757 186.574 48.7741 186.567 48.7747C186.561 48.7752 186.554 48.7779 186.549 48.7823L186.451 48.8765C186.438 48.888 186.422 48.8947 186.405 48.8956C186.388 48.8965 186.371 48.8914 186.357 48.8812C186.343 48.8711 186.333 48.8565 186.329 48.8399C186.324 48.8233 186.326 48.8057 186.333 48.7901C186.632 48.1879 187.232 47.7021 188.133 47.3329C191.721 45.864 192.766 47.1326 195.765 48.6801C195.825 48.7116 195.844 48.7652 195.82 48.8412C195.794 48.9171 195.82 48.9669 195.899 48.9904C197.832 49.5442 198.752 50.589 200.041 51.8184C200.363 52.1247 200.583 52.6079 201.027 52.8867C201.75 53.3463 201.994 53.6016 202.383 54.2496C202.438 54.3387 202.518 54.3832 202.623 54.3832H202.772C202.901 54.3806 202.999 54.4356 203.067 54.5481C203.518 55.3075 204.179 55.5798 205.052 55.3651C205.219 55.3232 205.383 55.3337 205.543 55.3965C205.813 55.4986 206.09 55.4685 206.376 55.3062C206.491 55.2434 206.553 55.1478 206.561 55.0195C206.69 53.362 205.975 51.5474 205.256 50.2002C204.619 49.0179 204.356 47.8593 203.755 46.7281C203.287 45.8443 203.153 44.8035 202.411 43.9473C202.349 43.8756 202.311 43.7866 202.301 43.692C202.269 43.3123 202.168 42.9522 201.998 42.6118C201.93 42.4783 201.83 42.3775 201.699 42.3094C201.291 42.0973 200.226 40.0235 199.396 39.0062L201.078 38.2874C201.372 39.1463 201.665 39.8886 201.959 40.5144C206.688 50.7003 210.855 59.3256 214.46 66.3902C219.907 77.0618 228.565 89.9015 240.897 92.6587C242.367 92.9886 244.826 93.1706 248.274 93.2047C255.041 93.2714 261.632 93.2361 268.38 93.9509C281.616 95.3531 294.821 95.8166 308.112 96.3272C315.288 96.6021 325.247 95.9855 334.172 95.7891C342.954 95.5927 351.297 95.1162 359.202 94.3594C367.214 93.5948 378.48 92.3969 393 90.7656V162.733C392.725 162.806 392.429 162.834 392.112 162.815C378.241 162.014 364.421 160.678 350.65 158.805C324.786 155.283 299.104 150.723 273.607 145.125C259.235 141.967 245.303 138.511 230.424 137.71C224.203 137.372 217.639 135.003 211.418 133.617C206.697 132.564 203.253 131.935 201.086 131.728C198.694 131.495 196.713 130.819 195.144 129.701C188.555 125.006 182.856 119.406 178.049 112.902C170.993 103.355 165.609 96.0366 161.896 90.9462C161.256 90.0704 160.792 89.1473 159.931 88.299C158.695 87.0814 157.412 85.5129 156.084 83.5936C154.759 81.6768 152.618 80.3846 150.943 78.79C149.961 77.8552 149.257 77.0971 147.961 76.5276C145.461 75.4357 142.605 74.0911 139.393 72.4939C138.83 72.2137 138.459 72.3027 138.281 72.7609L137.114 69.4263C137.549 68.2009 138.401 67.6785 139.672 67.8592C139.814 67.8801 139.946 67.8526 140.069 67.7767C140.313 67.6222 140.492 67.4232 140.607 67.1797C140.665 67.0592 140.749 66.9623 140.859 66.889C142.054 66.0995 142.569 68.6368 143.948 67.2111C144.042 67.1142 144.156 67.0566 144.29 67.0383C146.738 66.7083 150.484 66.8183 151.808 69.3124C151.873 69.4329 151.896 69.5599 151.875 69.6934L151.289 73.6015C151.279 73.6774 151.311 73.7206 151.387 73.7311L151.501 73.7468C151.591 73.7599 151.648 73.7232 151.674 73.6368C152.45 71.1912 153.034 68.6997 153.427 66.1624C153.448 66.0236 153.394 65.9254 153.266 65.8678C151.018 64.8178 148.766 63.7861 146.51 62.7728C144.235 61.7476 141.649 61.3156 139.208 60.4044C133.958 58.6683 129.045 55.1923 124.907 51.5749C124.779 51.4623 124.712 51.4924 124.707 51.6652C124.696 52.0082 124.555 52.2609 124.282 52.4233C124.261 52.4337 124.177 52.5175 124.031 52.6746C123.821 52.8972 123.745 53.1617 123.803 53.468C123.813 53.5192 123.813 53.5715 123.803 53.6221C123.792 53.6726 123.773 53.7204 123.744 53.7626L123.154 54.6306C123.068 54.7563 123.025 54.8964 123.025 55.0509C123.022 55.7396 122.786 56.3431 122.317 56.8616C122.231 56.9585 122.172 57.0697 122.14 57.1954C122.017 57.6982 121.812 58.1616 121.523 58.5858C121.45 58.6932 121.354 58.7731 121.237 58.8254L119.892 59.4264L119.468 59.3989C121.036 56.9873 121.712 54.4264 123.598 51.9441C123.819 51.6587 124.031 51.2463 124.235 50.7068C124.282 50.5864 124.286 50.4646 124.247 50.3416C124.09 49.8362 123.779 49.5168 123.315 49.3832C122.451 47.8802 121.556 46.3824 120.631 44.8899C118.749 41.8538 120.722 38.2953 123.897 37.2976C126.746 36.3982 130.492 36.4139 133.404 37.0148C138.678 38.1107 143.26 40.2081 148.251 42.0109C153.924 44.0585 159.25 46.9166 164.231 50.5851Z"
          fill="#E8D0C5" />
        <path
          d="M142.518 38.1578C143.72 38.561 144.804 39.1724 145.768 39.992C144.02 39.5835 142.381 39.0153 140.851 38.2874C140.702 38.2167 140.701 38.142 140.847 38.0635C141.348 37.7938 141.905 37.8252 142.518 38.1578Z"
          fill="white" />
        <path
          d="M199.396 39.0061C200.226 40.0234 201.291 42.0972 201.699 42.3093C201.83 42.3774 201.93 42.4782 201.998 42.6117C202.168 42.9521 202.269 43.3122 202.301 43.6919C202.311 43.7865 202.349 43.8755 202.411 43.9472C203.153 44.8034 203.287 45.8442 203.755 46.728C204.356 47.8592 204.619 49.0178 205.256 50.2001C205.975 51.5473 206.69 53.3619 206.561 55.0194C206.553 55.1477 206.491 55.2433 206.376 55.3061C206.09 55.4684 205.813 55.4986 205.543 55.3964C205.383 55.3336 205.219 55.3231 205.052 55.365C204.179 55.5797 203.518 55.3074 203.067 54.5481C202.999 54.4355 202.901 54.3805 202.772 54.3831H202.623C202.518 54.3831 202.438 54.3386 202.383 54.2495C201.994 53.6015 201.75 53.3462 201.027 52.8866C200.583 52.6078 200.363 52.1247 200.041 51.8183C198.752 50.5889 197.832 49.5442 195.899 48.9903C195.82 48.9668 195.794 48.917 195.82 48.8411C195.844 48.7652 195.825 48.7115 195.765 48.6801C192.766 47.1325 191.721 45.8639 188.133 47.3329C187.232 47.7021 186.632 48.1878 186.333 48.79C186.326 48.8056 186.324 48.8232 186.329 48.8398C186.333 48.8564 186.343 48.871 186.357 48.8812C186.371 48.8913 186.388 48.8964 186.405 48.8955C186.422 48.8946 186.438 48.8879 186.451 48.8764L186.549 48.7822C186.554 48.7778 186.561 48.7751 186.567 48.7746C186.574 48.774 186.581 48.7756 186.586 48.7791C186.592 48.7827 186.596 48.7879 186.599 48.7941C186.601 48.8003 186.602 48.8071 186.6 48.8136L185.952 50.5182C185.907 50.6308 185.833 50.7146 185.728 50.7696L184.698 51.3038C184.562 51.3745 184.474 51.4844 184.435 51.6337C184.32 52.0788 184.441 52.4258 184.8 52.6745C184.9 52.7426 185.01 52.7767 185.13 52.7767C185.681 52.7793 186.05 53.0228 186.239 53.5072C186.286 53.6329 186.283 53.7573 186.231 53.8803C185.799 54.8623 185.1 55.5706 184.136 56.0052C184.008 56.0628 183.904 56.1506 183.826 56.2684C182.427 58.3619 179.55 57.4781 177.785 56.4687C177.678 56.4059 177.625 56.3142 177.628 56.1938C177.678 54.3923 176.994 52.8709 175.577 51.6298C175.228 51.326 175.185 50.983 175.447 50.6007C175.515 50.5012 175.556 50.3925 175.569 50.2747C175.64 49.6463 175.49 49.0807 175.121 48.5779C175.044 48.4735 175.004 48.3452 175.007 48.2127C175.009 47.8827 174.796 47.6379 174.366 47.4782C179.001 45.9935 183.614 44.4761 188.204 42.926C188.225 42.9181 188.607 42.8422 189.351 42.6982C189.917 42.5921 190.306 42.1876 190.817 42.0265C191.289 41.8773 191.759 41.7202 192.228 41.5552C192.354 41.5107 192.432 41.5526 192.464 41.6809C192.511 41.8668 192.443 42.0134 192.26 42.1208C191.084 42.8042 190.204 43.5583 188.935 43.9982C185.838 45.0744 181.711 48.6879 180.811 51.2252C180.784 51.306 180.729 51.374 180.655 51.4162C180.581 51.4583 180.493 51.4717 180.41 51.4536C180.327 51.4356 180.253 51.3875 180.203 51.3186C180.153 51.2496 180.131 51.1646 180.139 51.0799C180.205 50.3493 180.053 49.6829 179.684 49.0807C179.626 48.9868 179.542 48.9125 179.441 48.8675C179.341 48.8225 179.229 48.8089 179.121 48.8284C179.012 48.8479 178.912 48.8997 178.834 48.977C178.756 49.0542 178.702 49.1534 178.681 49.2614C178.343 50.9869 178.417 52.6929 178.901 54.3792C178.949 54.5415 179.055 54.6188 179.22 54.6109C179.917 54.5873 180.397 54.243 180.662 53.5779C180.687 53.5145 180.734 53.4606 180.796 53.4247C181.514 53.0084 181.89 52.3852 181.924 51.5551C181.927 51.4953 181.945 51.4373 181.974 51.3856C182.003 51.3338 182.044 51.2897 182.093 51.2566C182.656 50.8822 183.158 50.3847 183.598 49.7641C184.486 48.519 185.63 47.5528 186.655 46.3195C186.985 45.9267 187.528 45.8914 187.866 45.7146C189.312 44.9605 190.714 44.1305 192.071 43.2245C192.818 42.7256 193.222 41.9676 193.875 41.3274C193.914 41.2881 193.907 41.2606 193.855 41.2449C193.821 41.2318 193.787 41.22 193.753 41.2095C193.75 41.2095 193.747 41.2083 193.745 41.2061C193.742 41.2039 193.741 41.2009 193.741 41.1978C193.741 41.1946 193.742 41.1916 193.745 41.1894C193.747 41.1872 193.75 41.186 193.753 41.186L199.396 39.0061Z"
          fill="#DEA08A" />
        <path
          d="M108.071 41.6299C107.618 42.2766 107.579 42.9208 107.953 43.5623C107.97 43.5903 107.981 43.6212 107.986 43.6533C107.991 43.6854 107.99 43.7181 107.982 43.7495C107.974 43.7808 107.96 43.8103 107.941 43.8361C107.922 43.862 107.898 43.8837 107.871 43.9001C107.159 44.3282 106.605 44.9135 105.811 45.1334C101.146 46.4374 96.5523 47.9574 91.911 49.3478C88.8063 50.2826 86.2046 51.4099 82.424 52.6589C67.8437 57.4847 53.2437 62.2504 38.6241 66.9558C24.4329 71.5237 10.7251 76.2487 2.25983 79.1395C1.51575 79.3935 0.9197 79.5506 0.47168 79.6108C0.83848 79.1421 1.43453 78.7546 2.25983 78.4482C37.4058 65.4514 73.5736 53.1499 108.071 41.6299Z"
          fill="#D8615A" />
        <path
          d="M118.992 54.0532C115.845 56.7437 109.938 58.2873 106.786 54.8191C106.691 54.7133 106.632 54.58 106.618 54.4391C106.605 54.2983 106.638 54.1574 106.711 54.0375L107.509 52.7256C107.547 52.6633 107.564 52.5903 107.557 52.5179C107.55 52.4455 107.519 52.3777 107.47 52.325C106.422 51.2252 106.402 50.0823 107.411 48.8961C107.427 48.8774 107.439 48.8552 107.445 48.8313C107.451 48.8073 107.452 48.7822 107.447 48.7577C107.442 48.7331 107.431 48.7099 107.416 48.6897C107.401 48.6695 107.382 48.6528 107.36 48.6408C107.242 48.5753 107.087 48.5662 106.896 48.6133L111.184 47.6864C111.28 47.6654 111.326 47.7047 111.321 47.8042C111.318 47.8435 111.317 47.8814 111.317 47.9181C111.317 47.9679 111.343 47.994 111.396 47.9967C112.834 48.0831 115.31 47.4625 116.619 48.142C116.739 48.2048 116.831 48.2965 116.894 48.4169C117.685 49.9252 117.976 51.5342 117.766 53.2441C117.758 53.3035 117.769 53.364 117.798 53.417C117.827 53.4699 117.873 53.5125 117.927 53.5387L118.992 54.0532Z"
          fill="#E8D0C5" />
        <path
          d="M169.143 49.1907C170.12 50.6649 171.381 52.1692 172.924 53.7036C173.241 54.0178 173.466 54.4564 173.6 55.0194C173.629 55.1398 173.581 55.2079 173.458 55.2236C172.659 55.3258 172.116 55.2865 171.827 55.1058C169.566 53.6761 167.232 52.3787 164.824 51.2134C164.685 51.1454 164.57 51.0576 164.478 50.9503C164.332 50.7775 164.249 50.6557 164.231 50.585C165.842 50.3729 167.48 49.9081 169.143 49.1907Z"
          fill="#DEA08A" />
        <path
          d="M139.208 60.4042C139.098 61.4673 139.295 62.4086 139.798 63.2282C139.897 63.391 139.937 63.5832 139.911 63.7717C139.884 63.9602 139.793 64.1333 139.652 64.2612L137.601 66.1426C137.499 66.2394 137.378 66.2997 137.239 66.3232C136.81 66.3966 136.472 66.6204 136.226 66.9949C136.194 67.0419 136.175 67.0957 136.171 67.1514C136.166 67.207 136.175 67.2626 136.198 67.313L137.114 69.4261L138.281 72.7608C138.383 72.9545 138.375 73.1247 138.257 73.2714L138.407 74.7482C138.422 74.8974 138.387 75.0336 138.301 75.1567C137.897 75.7353 137.842 76.3821 138.135 77.0969C138.16 77.1565 138.16 77.2231 138.137 77.283C138.113 77.3429 138.068 77.3916 138.01 77.419C136.988 77.9061 136.096 77.3051 135.302 77.4779C134.304 77.694 134.225 78.8251 134.595 79.6421C134.622 79.7064 134.629 79.778 134.612 79.8461C134.596 79.9142 134.557 79.975 134.503 80.0195C134.449 80.0639 134.382 80.0894 134.312 80.0922C134.242 80.095 134.173 80.0748 134.115 80.0349L130.857 77.7057C130.76 77.6377 130.701 77.546 130.68 77.4308C130.583 76.8993 130.572 76.369 130.645 75.8401C131.199 71.9281 131.623 67.8197 131.761 63.8763C131.766 63.7349 131.83 63.6314 131.954 63.566C133.12 62.9454 134.14 62.1337 135.015 61.1308C135.029 61.1152 135.037 61.0954 135.037 61.0747C135.038 61.054 135.032 61.0337 135.019 61.0171C135.007 61.0006 134.989 60.9888 134.969 60.9837C134.949 60.9787 134.928 60.9807 134.909 60.9894L130.999 62.8001C130.966 62.8145 130.939 62.8373 130.918 62.8663C130.897 62.8953 130.884 62.9293 130.881 62.965L130.704 64.4497C130.688 64.5885 130.637 64.7142 130.551 64.8268C130.357 65.0755 130.117 65.2484 129.831 65.3452C129.695 65.3898 129.588 65.4709 129.509 65.5888C128.625 66.9085 127.67 66.3389 126.526 66.3782C124.632 66.4489 123.17 66.3507 121.433 67.1991C121.41 67.209 121.385 67.2117 121.362 67.2067C121.339 67.2017 121.318 67.1894 121.303 67.1716C120.709 66.4673 120.217 66.1858 119.83 66.3272C119.264 66.5288 118.711 66.7487 118.171 66.987C116.036 67.5212 113.315 68.3814 110.008 69.5675C100.032 73.1522 78.7362 80.7131 46.1224 92.2501C35.3739 96.0481 24.4524 99.4299 13.6488 103.075C12.9755 103.303 12.4174 103.439 11.9746 103.483C11.8272 103.499 11.6783 103.471 11.5465 103.404C11.4146 103.336 11.3056 103.231 11.2328 103.102C11.1601 102.972 11.1268 102.825 11.1371 102.677C11.1474 102.529 11.2008 102.387 11.2908 102.27C11.4821 102.018 11.7441 101.823 12.0768 101.684C12.7213 101.983 12.855 101.732 13.3698 101.547C20.8237 98.8421 28.2645 96.1005 35.6922 93.3223C36.5136 93.016 37.5157 92.4268 38.1995 92.1872C42.4832 90.6921 46.7473 89.1472 50.9917 87.5525C55.6802 85.7968 60.239 84.3514 66.2479 82.1244C66.9056 81.8809 67.3798 81.6701 67.6706 81.4921C67.778 81.424 67.8946 81.3821 68.0204 81.3664C68.9898 81.2512 69.8504 80.8741 70.6024 80.2352C70.7072 80.1462 70.8277 80.0951 70.9639 80.082C72.8661 79.8974 74.0726 78.778 75.4677 78.2006C78.313 77.0223 81.2095 75.9815 84.157 75.0781C85.2534 74.7442 86.1848 74.0294 87.3127 73.6327C89.3367 72.91 91.2899 72.1088 93.3256 71.4214C94.9291 70.8833 96.6386 69.705 98.36 69.5872C99.5888 69.5008 100.396 69.341 100.781 69.108C102.648 67.9689 104.145 67.6587 105.764 66.8103C106.403 66.4751 106.929 66.2578 107.34 66.1583C109.203 65.7 110.998 65.0507 112.724 64.2101C113.49 63.837 114.182 64.0098 114.909 63.4756C115.369 63.1379 116.167 62.9808 116.505 62.8236C118.438 61.9321 120.254 61.8535 121.732 60.2314C121.881 60.069 121.846 59.9865 121.626 59.9839C121.023 59.9734 120.465 60.1397 119.951 60.4827C119.9 60.5159 119.839 60.5291 119.779 60.5196C119.72 60.5102 119.666 60.4788 119.629 60.4317C119.38 60.1227 119.468 59.7875 119.892 59.4262L121.236 58.8252C121.354 58.7729 121.45 58.693 121.523 58.5856C121.812 58.1615 122.017 57.698 122.14 57.1952C122.172 57.0696 122.231 56.9583 122.317 56.8614C122.786 56.3429 123.022 55.7394 123.025 55.0507C123.025 54.8962 123.068 54.7561 123.154 54.6304L123.744 53.7624C123.772 53.7202 123.792 53.6725 123.803 53.6219C123.813 53.5713 123.813 53.519 123.803 53.4678C123.745 53.1615 123.821 52.897 124.031 52.6744C124.177 52.5173 124.261 52.4335 124.282 52.4231C124.555 52.2607 124.696 52.008 124.707 51.665C124.712 51.4922 124.779 51.4621 124.907 51.5747C129.045 55.1921 133.958 58.6681 139.208 60.4042Z"
          fill="#D8615A" />
        <path
          d="M119.468 59.3987L119.893 59.4262C119.468 59.7875 119.38 60.1227 119.629 60.4317C119.666 60.4788 119.72 60.5102 119.779 60.5196C119.839 60.5291 119.9 60.5159 119.951 60.4827C120.465 60.1397 121.023 59.9734 121.626 59.9839C121.846 59.9865 121.881 60.069 121.732 60.2314C120.254 61.8535 118.438 61.9321 116.505 62.8236C116.167 62.9808 115.369 63.1379 114.909 63.4756C114.182 64.0098 113.491 63.837 112.724 64.2101C110.998 65.0507 109.203 65.7 107.34 66.1583C106.929 66.2578 106.403 66.4751 105.764 66.8103C104.145 67.6587 102.648 67.9689 100.781 69.108C100.396 69.341 99.5888 69.5008 98.3601 69.5872C96.6387 69.705 94.9292 70.8833 93.3257 71.4214C91.29 72.1088 89.3368 72.91 87.3128 73.6327C86.1849 74.0294 85.2535 74.7442 84.157 75.0781C81.2095 75.9815 78.3131 77.0223 75.4678 78.2006C74.0727 78.778 72.8661 79.8974 70.964 80.082C70.8278 80.0951 70.7073 80.1462 70.6025 80.2352C69.8505 80.8741 68.9899 81.2512 68.0205 81.3664C67.8947 81.3821 67.7781 81.424 67.6707 81.4921C67.3799 81.6701 66.9056 81.8809 66.248 82.1244C60.2391 84.3514 55.6803 85.7968 50.9918 87.5525C46.7474 89.1472 42.4833 90.6921 38.1996 92.1872C37.5158 92.4268 36.5136 93.016 35.6923 93.3223C28.2646 96.1005 20.8238 98.8421 13.3699 101.547C12.855 101.732 12.7214 101.983 12.0769 101.684C12.6454 101.339 13.2454 101.035 13.8768 100.773C29.0073 94.5124 44.1732 88.2634 59.5002 82.4975C62.1045 81.5156 64.549 80.5743 66.8336 79.6735C83.9317 72.9336 101.114 66.411 118.379 60.1057C118.558 60.0402 118.92 59.8045 119.468 59.3987Z"
          fill="#D8615A" />
        <path
          d="M139.208 60.4043C141.649 61.3155 144.235 61.7476 146.51 62.7727C148.766 63.7861 151.018 64.8177 153.266 65.8677C153.394 65.9254 153.448 66.0235 153.427 66.1623C153.034 68.6996 152.45 71.1911 151.674 73.6368C151.648 73.7232 151.591 73.7598 151.501 73.7467L151.388 73.731C151.312 73.7205 151.279 73.6773 151.289 73.6014L151.875 69.6933C151.896 69.5598 151.874 69.4328 151.808 69.3123C150.484 66.8183 146.738 66.7083 144.29 67.0382C144.156 67.0565 144.042 67.1141 143.948 67.211C142.569 68.6368 142.054 66.0995 140.859 66.889C140.749 66.9623 140.665 67.0591 140.608 67.1796C140.492 67.4231 140.313 67.6221 140.069 67.7766C139.946 67.8525 139.814 67.88 139.672 67.8591C138.401 67.6784 137.549 68.2008 137.114 69.4262L136.198 67.3131C136.175 67.2628 136.166 67.2071 136.171 67.1515C136.175 67.0959 136.194 67.042 136.226 66.995C136.472 66.6206 136.81 66.3967 137.24 66.3234C137.378 66.2998 137.499 66.2396 137.601 66.1427L139.653 64.2613C139.793 64.1334 139.884 63.9604 139.911 63.7718C139.938 63.5833 139.898 63.3911 139.798 63.2283C139.295 62.4087 139.098 61.4674 139.208 60.4043Z"
          fill="#DEA08A" />
        <path
          d="M138.257 73.2716C139.507 78.2794 141.559 83.735 135.888 86.8968C135.031 85.9031 136.253 84.768 134.866 83.6918C134.253 83.2178 133.709 82.6902 133.235 82.1089C133.222 82.089 133.205 82.072 133.185 82.0587C133.165 82.0453 133.143 82.036 133.12 82.0313C133.096 82.0266 133.072 82.0265 133.049 82.031C133.025 82.0356 133.003 82.0447 132.983 82.0578C132.963 82.071 132.946 82.0879 132.933 82.1077C132.92 82.1274 132.91 82.1496 132.906 82.173C132.901 82.1963 132.901 82.2203 132.905 82.2437C132.91 82.2671 132.919 82.2894 132.932 82.3092L134.237 84.7444C134.284 84.8308 134.28 84.9159 134.225 84.9997C133.788 85.6648 133.29 85.7499 132.732 85.255C132.669 85.2028 132.589 85.1746 132.507 85.1757C132.425 85.1767 132.346 85.2068 132.284 85.2605C132.222 85.3143 132.182 85.3883 132.169 85.4693C132.157 85.5503 132.174 85.633 132.217 85.7028L132.704 86.4294C132.728 86.4646 132.741 86.5057 132.742 86.5481C132.744 86.5904 132.733 86.6323 132.712 86.669L132.622 86.8182C132.551 86.9387 132.463 86.9518 132.358 86.8575C130.629 85.2982 129.58 82.0107 129.167 79.9055C129.086 79.4839 128.85 79.3634 128.46 79.5441C127.865 79.819 127.46 79.8531 127.246 79.6462C127.159 79.5624 127.056 79.531 126.935 79.552C125.076 79.874 124.797 77.5999 125.571 76.4726C125.645 76.3653 125.668 76.2461 125.642 76.1152C125.435 75.1542 125.439 74.1972 125.654 73.2441C126.031 71.5473 125.092 71.0053 125.049 69.5599C125.045 69.4716 125.016 69.3861 124.963 69.3141C124.911 69.2421 124.838 69.1869 124.754 69.1553C124.235 68.9642 123.777 69.0938 123.378 69.5442C123.292 69.641 123.238 69.7549 123.217 69.8859C122.97 71.4884 123.728 73.0359 122.903 74.5795C122.862 74.6494 122.798 74.7023 122.721 74.7286C122.644 74.7549 122.561 74.7529 122.486 74.723C122.411 74.693 122.349 74.6371 122.311 74.5653C122.274 74.4936 122.263 74.4108 122.282 74.332C122.643 73.0333 122.48 71.8104 121.791 70.6636C121.715 70.5326 121.601 70.4698 121.449 70.475L118.977 70.5536C118.952 70.5546 118.928 70.5507 118.905 70.5421C118.882 70.5335 118.861 70.5204 118.844 70.5035C118.826 70.4866 118.812 70.4664 118.803 70.4439C118.793 70.4215 118.788 70.3973 118.788 70.3729V69.3713C118.788 69.243 118.766 69.12 118.721 69.0021L118.171 67.5371C118.318 67.4324 118.389 67.308 118.383 67.164C118.381 67.1194 118.31 67.0605 118.171 66.9872C118.711 66.7489 119.264 66.529 119.83 66.3274C120.217 66.186 120.709 66.4674 121.303 67.1718C121.318 67.1896 121.339 67.2019 121.362 67.2069C121.385 67.2119 121.41 67.2092 121.433 67.1993C123.17 66.3509 124.632 66.4491 126.526 66.3784C127.67 66.3391 128.625 66.9087 129.509 65.589C129.588 65.4711 129.695 65.3899 129.831 65.3454C130.117 65.2485 130.357 65.0757 130.551 64.827C130.637 64.7144 130.688 64.5887 130.704 64.4499L130.881 62.9652C130.884 62.9295 130.897 62.8955 130.918 62.8665C130.939 62.8375 130.966 62.8147 130.999 62.8003L134.909 60.9896C134.928 60.9809 134.949 60.9789 134.969 60.9839C134.989 60.989 135.007 61.0008 135.019 61.0173C135.032 61.0339 135.038 61.0542 135.037 61.0749C135.037 61.0956 135.029 61.1154 135.015 61.131C134.14 62.1339 133.12 62.9456 131.954 63.5662C131.831 63.6316 131.766 63.7351 131.761 63.8765C131.624 67.8199 131.199 71.9283 130.645 75.8403C130.572 76.3692 130.583 76.8994 130.68 77.431C130.701 77.5462 130.76 77.6379 130.857 77.7059L134.115 80.0351C134.173 80.075 134.242 80.0952 134.312 80.0924C134.382 80.0896 134.449 80.0641 134.503 80.0196C134.558 79.9752 134.596 79.9144 134.612 79.8463C134.629 79.7782 134.623 79.7066 134.595 79.6423C134.225 78.8253 134.304 77.6942 135.302 77.4781C136.096 77.3053 136.988 77.9062 138.01 77.4192C138.068 77.3918 138.113 77.3431 138.137 77.2832C138.16 77.2233 138.16 77.1567 138.136 77.0971C137.842 76.3823 137.897 75.7355 138.301 75.1569C138.387 75.0338 138.422 74.8976 138.407 74.7484L138.257 73.2716Z"
          fill="#DEA08A" />
        <path
          d="M118.171 67.5371L118.721 69.0021C118.766 69.12 118.788 69.243 118.788 69.3713V70.3729C118.788 70.3973 118.793 70.4215 118.803 70.4439C118.812 70.4664 118.826 70.4866 118.844 70.5035C118.861 70.5204 118.882 70.5336 118.905 70.5422C118.928 70.5508 118.952 70.5547 118.977 70.5536L121.449 70.475C121.601 70.4698 121.715 70.5326 121.791 70.6636C122.48 71.8105 122.643 73.0333 122.282 74.3321C122.263 74.4108 122.274 74.4936 122.311 74.5653C122.349 74.6371 122.411 74.693 122.486 74.723C122.561 74.753 122.644 74.7549 122.721 74.7286C122.797 74.7023 122.862 74.6494 122.903 74.5795C123.728 73.0359 122.97 71.4884 123.217 69.8859C123.238 69.755 123.292 69.6411 123.378 69.5442C123.777 69.0938 124.235 68.9642 124.754 69.1553C124.838 69.1869 124.911 69.2422 124.963 69.3141C125.016 69.3861 125.045 69.4716 125.049 69.5599C125.092 71.0053 126.031 71.5473 125.654 73.2441C125.439 74.1972 125.435 75.1542 125.642 76.1152C125.668 76.2462 125.645 76.3653 125.571 76.4727C124.797 77.5999 125.076 79.874 126.935 79.552C127.056 79.531 127.159 79.5625 127.245 79.6462C127.46 79.8531 127.865 79.8191 128.46 79.5441C128.85 79.3634 129.086 79.4839 129.167 79.9055C129.58 82.0107 130.629 85.2982 132.358 86.8575C132.463 86.9518 132.551 86.9387 132.622 86.8182L132.712 86.669C132.733 86.6323 132.744 86.5904 132.742 86.5481C132.741 86.5058 132.728 86.4647 132.704 86.4294L132.217 85.7028C132.174 85.633 132.157 85.5503 132.169 85.4693C132.182 85.3883 132.222 85.3143 132.284 85.2606C132.346 85.2068 132.425 85.1767 132.507 85.1757C132.589 85.1747 132.669 85.2028 132.732 85.255C133.29 85.7499 133.788 85.6648 134.225 84.9997C134.28 84.9159 134.284 84.8308 134.237 84.7444L132.932 82.3092C132.919 82.2894 132.91 82.2671 132.905 82.2437C132.901 82.2204 132.901 82.1963 132.906 82.173C132.91 82.1496 132.92 82.1274 132.933 82.1077C132.946 82.0879 132.963 82.071 132.983 82.0579C133.003 82.0447 133.025 82.0356 133.049 82.031C133.072 82.0265 133.096 82.0266 133.12 82.0313C133.143 82.0361 133.165 82.0454 133.185 82.0587C133.205 82.072 133.222 82.0891 133.235 82.1089C133.709 82.6902 134.253 83.2178 134.866 83.6918C136.253 84.768 135.031 85.9031 135.888 86.8968L134.115 88.2165C133.936 88.3492 133.719 88.4188 133.496 88.4145C133.273 88.4103 133.059 88.3323 132.885 88.1929C130.464 86.2343 128.745 83.7743 127.729 80.8128C127.707 80.7505 127.672 80.6938 127.625 80.6467C127.579 80.5995 127.523 80.563 127.461 80.5398C127.4 80.5166 127.334 80.5072 127.268 80.5123C127.202 80.5174 127.138 80.5368 127.08 80.5693C124.695 81.9086 121.394 82.6588 118.796 81.2487C118.683 81.1882 118.55 81.1742 118.427 81.2095L117.798 81.3901C117.609 81.4425 117.512 81.3718 117.507 81.178C117.434 78.7533 117.621 75.5968 118.069 71.7083C118.129 71.1768 118.103 69.9422 117.99 68.0045C117.985 67.9076 118.006 67.8186 118.053 67.7374L118.171 67.5371Z"
          fill="#E8D0C5" />
      </g>
      <defs>
        <clipPath id="clip0_920_6171">
          <rect width="393" height="163" fill="white" />
        </clipPath>
      </defs>
    </svg>