    <svg class="slogan" width="308" height="63" viewBox="0 0 308 63" fill="none" xmlns="http://www.w3.org/2000/svg">
      <path
        d="M4.19999 32.64C1.51199 32.64 0.167988 31.232 0.167988 28.672C0.167988 26.112 1.51199 24.704 4.19999 24.704H51.24C53.864 24.704 55.272 26.112 55.272 28.672C55.272 31.232 53.864 32.64 51.24 32.64H4.19999ZM114.024 50.24C116.904 49.92 119.208 51.456 119.144 54.656C119.08 58.048 117.864 59.648 113.576 59.84C106.92 60.16 100.2 60.224 93.544 59.84C81.768 59.2 74.6 55.616 70.504 47.872C69.416 52.864 67.56 56.96 65 60.032C64.04 61.184 63.016 61.504 61.928 60.864C60.776 60.224 60.584 59.2 61.096 57.856C63.08 52.608 63.592 45.12 63.528 34.752C63.528 31.744 64.936 30.4 67.624 30.4C70.248 30.4 71.72 31.424 71.72 34.752C71.72 36.992 71.656 39.168 71.464 41.152C72.104 42.112 72.808 43.008 73.512 43.776V27.52H64.744C63.144 27.52 62.184 26.624 62.184 24.96C62.184 23.296 63.144 22.4 64.744 22.4H72.36V16.256H66.536C64.872 16.256 63.912 15.36 63.912 13.696C63.912 12.032 64.872 11.136 66.536 11.136H72.36V6.976C72.36 3.904 74.088 2.24 77.288 2.24C80.488 2.24 82.216 3.904 82.216 6.976V11.136H86.632C88.296 11.136 89.256 12.032 89.256 13.696C89.256 15.36 88.296 16.256 86.632 16.256H82.216V22.4H87.848C89.448 22.4 90.408 23.296 90.408 24.96C90.408 26.624 89.448 27.52 87.848 27.52H83.24V33.536H87.656C89.32 33.536 90.28 34.496 90.28 36.16C90.28 37.824 89.32 38.784 87.656 38.784H83.24V49.6C85.992 50.368 89.256 50.752 93.16 50.88C101.096 51.072 107.624 50.88 114.024 50.24ZM99.048 48.448C92.904 48 91.304 46.208 91.304 41.088V10.368C91.304 7.68 92.776 6.208 95.464 6.208H111.016C113.704 6.208 115.176 7.68 115.176 10.368V24C115.176 26.688 113.704 28.16 111.016 28.16H100.776V37.376C100.776 39.872 101.288 40.704 103.208 40.832C105.128 40.96 106.856 40.96 108.904 40.832C111.08 40.704 111.592 39.872 111.72 34.56C111.784 32.896 112.488 32.192 113.704 32.192C114.92 32.192 115.816 32.832 116.136 34.624C117.864 44.544 116.456 47.936 110.376 48.32C106.6 48.576 102.504 48.704 99.048 48.448ZM100.776 12.224V22.912H105.704C106.152 22.912 106.472 22.592 106.472 22.144V12.224C106.472 11.776 106.152 11.456 105.704 11.456H101.544C101.096 11.456 100.776 11.776 100.776 12.224ZM181.48 42.304C183.976 54.784 182.568 59.264 175.528 59.84C170.792 60.224 162.984 60.224 157.16 59.904C147.816 59.456 145.32 54.336 150.184 47.488C152.808 43.776 159.016 36.8 164.392 30.144C164.84 29.632 164.584 29.184 163.944 29.184H153.064C151.336 29.184 150.312 28.16 150.312 26.432V25.92C149.992 26.24 149.608 26.56 149.224 26.816C148.136 27.648 147.048 27.776 146.152 26.88L146.024 26.752V50.112C146.024 52.736 144.616 53.824 141.992 53.824C139.368 53.824 137.96 52.736 137.96 50.112V48.576H135.016V52.416C135.016 55.104 133.544 56.256 130.856 56.256C128.168 56.256 126.696 55.104 126.696 52.416V11.392C126.696 8.704 128.168 7.232 130.856 7.232H141.864C144.552 7.232 146.024 8.704 146.024 11.392V23.36C149.48 18.048 151.72 11.392 153.32 3.904C153.896 1.216 156.392 0.319996 159.08 1.024C161.896 1.728 163.048 3.584 162.28 6.528C161.96 7.808 161.512 9.088 161.064 10.304H179.112C180.84 10.304 181.8 11.328 181.8 13.184C181.8 15.04 180.84 16.064 179.112 16.064H158.312C156.648 18.944 154.728 21.568 152.68 23.68H153.064H171.176C175.848 23.68 177.512 27.584 174.696 31.04C167.656 39.744 162.856 44.608 159.528 48.704C158.312 50.24 158.76 51.776 160.488 51.904C164.712 52.16 168.296 52.16 172.264 51.84C175.912 51.52 176.68 51.136 176.68 42.304C176.68 40.896 177.576 40.064 178.792 40.064C180.2 40.064 181.16 40.768 181.48 42.304ZM137.96 43.328V13.248C137.96 12.8 137.64 12.48 137.192 12.48H135.784C135.336 12.48 135.016 12.8 135.016 13.248V43.328H137.96ZM239.784 49.024C243.624 49.92 245.032 52.288 244.008 55.296C242.92 58.496 240.232 59.584 236.904 58.368C230.568 56.064 224.936 52.224 220.968 47.808V57.6C220.968 60.608 219.112 62.016 215.72 62.016C212.328 62.016 210.472 60.608 210.472 57.6V48.96C205.416 53.312 198.056 57.6 190.504 59.136C188.968 59.584 187.944 59.008 187.432 57.728C186.92 56.384 187.432 55.36 188.904 54.592C195.368 51.904 200.808 48.192 205.16 43.392H191.464C189.736 43.392 188.776 42.368 188.776 40.512C188.776 38.656 189.736 37.632 191.464 37.632H210.472V36.096C210.472 33.6 211.88 32.256 214.12 31.808C213.928 31.488 213.672 31.104 213.544 30.656C212.776 28.48 211.752 26.176 210.984 24.512C210.856 24.192 210.728 23.936 210.664 23.68C206.952 23.808 203.112 23.808 199.528 23.744C201.768 24.96 204.2 27.008 205.928 28.992C208.04 31.36 207.976 33.472 205.544 35.2C203.176 36.864 200.936 36.48 199.528 33.408C198.504 31.232 197.16 28.8 196.008 27.008C195.176 25.728 195.24 24.576 196.136 23.744L196.264 23.616C195.24 23.616 194.216 23.552 193.256 23.488C191.4 23.36 190.696 22.528 190.696 21.056C190.696 19.648 191.464 18.88 193.256 18.816C204.136 18.496 213.864 17.728 223.144 15.872C221.672 15.296 220.904 13.952 220.84 11.904H210.088V12.608C210.088 15.744 208.36 17.152 205.224 17.152C202.088 17.152 200.36 15.744 200.36 12.608V11.904H190.184C188.328 11.904 187.304 10.816 187.304 9.024C187.304 7.168 188.328 6.272 190.184 6.272H200.36V5.952C200.36 2.816 202.472 1.408 205.224 1.408C208.36 1.408 210.088 2.816 210.088 5.952V6.272H220.84V6.016C220.84 2.816 222.888 1.408 225.768 1.408C228.968 1.408 230.696 2.816 230.696 6.016V6.272H241.384C243.112 6.272 244.2 7.296 244.2 9.152C244.2 10.88 243.112 11.904 241.384 11.904H230.696C230.632 12.928 230.44 13.696 230.056 14.336L233.256 13.44C235.816 12.672 238.056 13.568 238.824 16.064C239.592 18.624 238.76 20.8 235.688 21.44C235.304 21.504 234.92 21.568 234.472 21.696C234.856 21.76 235.24 21.952 235.624 22.144C238.312 23.616 238.376 26.176 236.52 28.608C234.088 31.68 231.4 34.048 228.392 35.584C227.112 36.224 226.088 36.288 225.128 35.392C224.168 34.496 223.976 33.216 224.872 32.064C226.344 30.208 227.816 27.52 229.16 24.512C229.608 23.488 230.184 22.784 230.888 22.272C226.984 22.784 222.312 23.168 217.32 23.424C218.472 24.448 219.496 25.6 220.392 26.88C221.928 29.12 221.48 31.104 219.304 32.576C220.392 33.28 220.968 34.432 220.968 36.096V37.632H240.168C241.896 37.632 242.856 38.656 242.856 40.512C242.856 42.368 241.896 43.392 240.168 43.392H224.552C228.648 45.632 233.64 47.616 239.784 49.024ZM302.44 49.024C306.28 49.92 307.688 52.288 306.664 55.296C305.576 58.496 302.888 59.584 299.56 58.368C293.224 56.064 287.592 52.224 283.624 47.808V57.6C283.624 60.608 281.768 62.016 278.376 62.016C274.984 62.016 273.128 60.608 273.128 57.6V48.96C268.072 53.312 260.712 57.6 253.16 59.136C251.624 59.584 250.6 59.008 250.088 57.728C249.576 56.384 250.088 55.36 251.56 54.592C258.024 51.904 263.464 48.192 267.816 43.392H254.12C252.392 43.392 251.432 42.368 251.432 40.512C251.432 38.656 252.392 37.632 254.12 37.632H273.128V36.096C273.128 33.6 274.536 32.256 276.776 31.808C276.584 31.488 276.328 31.104 276.2 30.656C275.432 28.48 274.408 26.176 273.64 24.512C273.512 24.192 273.384 23.936 273.32 23.68C269.608 23.808 265.768 23.808 262.184 23.744C264.424 24.96 266.856 27.008 268.584 28.992C270.696 31.36 270.632 33.472 268.2 35.2C265.832 36.864 263.592 36.48 262.184 33.408C261.16 31.232 259.816 28.8 258.664 27.008C257.832 25.728 257.896 24.576 258.792 23.744L258.92 23.616C257.896 23.616 256.872 23.552 255.912 23.488C254.056 23.36 253.352 22.528 253.352 21.056C253.352 19.648 254.12 18.88 255.912 18.816C266.792 18.496 276.52 17.728 285.8 15.872C284.328 15.296 283.56 13.952 283.496 11.904H272.744V12.608C272.744 15.744 271.016 17.152 267.88 17.152C264.744 17.152 263.016 15.744 263.016 12.608V11.904H252.84C250.984 11.904 249.96 10.816 249.96 9.024C249.96 7.168 250.984 6.272 252.84 6.272H263.016V5.952C263.016 2.816 265.128 1.408 267.88 1.408C271.016 1.408 272.744 2.816 272.744 5.952V6.272H283.496V6.016C283.496 2.816 285.544 1.408 288.424 1.408C291.624 1.408 293.352 2.816 293.352 6.016V6.272H304.04C305.768 6.272 306.856 7.296 306.856 9.152C306.856 10.88 305.768 11.904 304.04 11.904H293.352C293.288 12.928 293.096 13.696 292.712 14.336L295.912 13.44C298.472 12.672 300.712 13.568 301.48 16.064C302.248 18.624 301.416 20.8 298.344 21.44C297.96 21.504 297.576 21.568 297.128 21.696C297.512 21.76 297.896 21.952 298.28 22.144C300.968 23.616 301.032 26.176 299.176 28.608C296.744 31.68 294.056 34.048 291.048 35.584C289.768 36.224 288.744 36.288 287.784 35.392C286.824 34.496 286.632 33.216 287.528 32.064C289 30.208 290.472 27.52 291.816 24.512C292.264 23.488 292.84 22.784 293.544 22.272C289.64 22.784 284.968 23.168 279.976 23.424C281.128 24.448 282.152 25.6 283.048 26.88C284.584 29.12 284.136 31.104 281.96 32.576C283.048 33.28 283.624 34.432 283.624 36.096V37.632H302.824C304.552 37.632 305.512 38.656 305.512 40.512C305.512 42.368 304.552 43.392 302.824 43.392H287.208C291.304 45.632 296.296 47.616 302.44 49.024Z"
        fill="#0C794D" />
    </svg>