    <svg class="pack" width="500" height="150" viewBox="0 0 570 187" fill="none" xmlns="http://www.w3.org/2000/svg">
      <path
        d="M129.29 71.3253C148.012 82.6664 159.845 101.343 160.684 123.465C161.461 143.909 154.025 163.898 136.189 175.166C124.608 182.482 111.485 184.971 97.9111 185.591C93.3931 185.797 87.3459 185.906 79.7734 185.92C78.3808 185.922 77.0979 185.885 75.9266 185.806C68.431 185.308 61.0221 184.207 53.6996 182.503C28.9242 176.744 6.0337 162.017 1.27518 135.114C0.0480451 128.167 0.240382 120.876 1.60793 113.958C5.92406 92.1077 20.9786 73.1039 41.0494 63.6722C50.8184 59.0796 61.4952 57.1567 72.4125 57.7226C81.0236 58.171 89.6828 58.9756 98.19 60.4077C107.936 62.0476 117.378 64.7751 126.131 69.439C126.199 69.4756 126.243 69.4563 126.264 69.3812C129.032 59.4491 136.368 50.2966 147.987 52.4813C149.682 52.7989 150.532 52.9586 150.536 52.9586C158.885 53.9557 165.13 47.8578 168.112 40.7206C168.137 40.6609 168.143 40.5993 168.129 40.5358C166.787 34.4379 162.263 29.622 157.495 25.8994C151.282 21.0508 144.354 17.28 137.574 13.3091C134.219 11.3438 131.68 8.14672 134.248 4.24894C137.129 -0.126192 143.588 -0.642049 148.151 0.560968C149.937 1.03063 151.513 1.6331 153.203 2.52044C165.054 8.74726 173.499 18.7968 172.576 32.9462C172.572 32.9924 172.63 33.0174 172.661 32.9847C180.754 24.4808 193.739 17.2107 205.722 20.1095C209.75 21.0835 214.235 23.911 215.27 28.2188C215.878 30.7519 215.031 33.2214 212.523 34.3224C211.433 34.8017 210.094 34.9172 208.736 34.9268C198.871 34.9903 188.288 34.1434 178.879 37.7082C176.929 38.4473 172.882 40.6378 172.045 42.6627C168.339 51.6382 159.87 58.6965 149.672 57.2606C148.412 57.0835 146.543 56.6331 145.19 56.56C136.818 56.1038 132.059 64.3594 130.282 71.3176C130.267 71.3773 130.205 71.4139 130.146 71.3985L129.342 71.1983C129.309 71.1906 129.274 71.2079 129.261 71.2387C129.247 71.2714 129.261 71.308 129.29 71.3253ZM82.8724 87.2925C81.8968 84.2852 78.3962 82.728 75.0572 83.8147C71.7162 84.9011 69.8005 88.2195 70.7772 91.2253C71.7528 94.2327 75.2534 95.7899 78.5925 94.7032C81.9334 93.6167 83.8491 90.2983 82.8724 87.2925ZM121.531 94.0827C120.555 91.076 117.055 89.5188 113.714 90.6055C110.373 91.6919 108.455 95.0103 109.432 98.0167C110.408 101.023 113.908 102.581 117.249 101.494C120.59 100.408 122.508 97.0891 121.531 94.0827Z"
        fill="#B9D27E" />
      <path
        d="M82.8722 87.2925C83.8489 90.2983 81.9332 93.6167 78.5923 94.7032C75.2532 95.7898 71.7526 94.2327 70.7771 91.2253C69.8004 88.2195 71.7161 84.9011 75.057 83.8146C78.3961 82.728 81.8967 84.2852 82.8722 87.2925ZM79.7128 87.0168C79.4636 86.2138 78.5365 85.7865 77.6423 86.0644C76.7477 86.3409 76.2226 87.2167 76.4716 88.0209C76.7208 88.8239 77.6479 89.2512 78.5421 88.9733C79.4366 88.6968 79.9617 87.8211 79.7128 87.0168Z"
        fill="#4B4948" />
      <path
        d="M78.5423 88.9738C79.4374 88.6965 79.9615 87.8206 79.713 87.0173C79.4646 86.214 78.5376 85.7876 77.6426 86.0649C76.7475 86.3421 76.2234 87.2181 76.4719 88.0213C76.7203 88.8246 77.6473 89.251 78.5423 88.9738Z"
        fill="white" />
      <path
        d="M121.531 94.0827C122.508 97.0891 120.59 100.408 117.249 101.494C113.908 102.581 110.408 101.023 109.432 98.0167C108.456 95.0103 110.373 91.6919 113.714 90.6054C117.055 89.5187 120.556 91.0759 121.531 94.0827ZM117.786 94.5618C117.786 93.7534 117.13 93.097 116.322 93.097C115.514 93.097 114.859 93.7534 114.859 94.5618C114.859 95.3702 115.514 96.0266 116.322 96.0266C117.13 96.0266 117.786 95.3702 117.786 94.5618Z"
        fill="#4B4948" />
      <path
        d="M116.322 96.0268C117.13 96.0268 117.786 95.371 117.786 94.562C117.786 93.753 117.13 93.0972 116.322 93.0972C115.513 93.0972 114.858 93.753 114.858 94.562C114.858 95.371 115.513 96.0268 116.322 96.0268Z"
        fill="white" />
      <path
        d="M444.617 178.496C416.676 165.37 402.078 135.625 402.997 105.715C403.467 90.3682 408.511 74.1657 420.277 63.6063C425.218 59.1716 431.737 56.949 438.201 55.7663C448.761 53.8334 459.715 53.8475 470.406 54.1499C479.279 54.4009 488.017 54.8874 496.621 55.6093C506.003 56.3969 515.509 57.6028 524.799 59.5589C530.492 60.7571 536.154 62.3387 541.532 64.5677C547.002 66.8353 552.126 69.9612 555.958 74.535C568.381 89.3669 572.264 110.177 568.754 128.817C567.475 135.604 565.212 142.032 561.968 148.103C552.525 165.762 534.661 176.35 515.975 181.801C503.988 185.298 491.744 186.839 479.244 186.424C467.336 186.029 455.429 183.576 444.617 178.496ZM509.341 84.9589C508.521 82.4265 505.568 81.11 502.747 82.0189C499.925 82.9284 498.302 85.7185 499.122 88.2515C499.942 90.7839 502.895 92.1004 505.717 91.1915C508.538 90.282 510.161 87.4919 509.341 84.9589ZM541.981 90.6827C541.166 88.1495 538.216 86.8278 535.391 87.7328C532.566 88.6372 530.938 91.4248 531.754 93.9582C532.569 96.4914 535.519 97.8131 538.344 96.9081C541.169 96.0037 542.797 93.2162 541.981 90.6827Z"
        fill="#C7C4DC" />
      <path
        d="M509.341 84.9586C510.161 87.4916 508.538 90.2817 505.717 91.1912C502.895 92.1001 499.942 90.7836 499.122 88.2512C498.302 85.7182 499.925 82.9281 502.747 82.0186C505.568 81.1097 508.521 82.4262 509.341 84.9586ZM506.655 84.7176C506.444 84.0452 505.665 83.69 504.916 83.9247C504.167 84.1585 503.731 84.8933 503.942 85.5658C504.153 86.2381 504.932 86.5933 505.681 86.3587C506.43 86.1249 506.866 85.3901 506.655 84.7176Z"
        fill="#4B4948" />
      <path
        d="M505.681 86.3585C506.43 86.1243 506.867 85.3896 506.655 84.7174C506.444 84.0453 505.666 83.6903 504.916 83.9245C504.167 84.1588 503.731 84.8935 503.942 85.5656C504.153 86.2378 504.932 86.5927 505.681 86.3585Z"
        fill="#C7C4DC" />
      <path
        d="M541.981 90.6827C542.797 93.2161 541.169 96.0036 538.344 96.9081C535.519 97.8131 532.569 96.4914 531.754 93.9582C530.938 91.4247 532.566 88.6372 535.391 87.7328C538.216 86.8278 541.166 88.1495 541.981 90.6827ZM538.804 91.067C538.804 90.39 538.255 89.8418 537.576 89.8418C536.897 89.8418 536.348 90.39 536.348 91.067C536.348 91.7439 536.897 92.2921 537.576 92.2921C538.255 92.2921 538.804 91.7439 538.804 91.067Z"
        fill="#4B4948" />
      <path
        d="M537.576 92.2924C538.254 92.2924 538.804 91.7438 538.804 91.0672C538.804 90.3906 538.254 89.842 537.576 89.842C536.898 89.842 536.348 90.3906 536.348 91.0672C536.348 91.7438 536.898 92.2924 537.576 92.2924Z"
        fill="#C7C4DC" />
      <path
        d="M235.155 168.33C222.019 154.817 215.425 135.943 215.016 117.353C214.949 114.33 215.089 111.316 215.434 108.311C218.388 82.6044 238.401 62.7993 262.677 56.2469C277.163 52.3382 292.597 53.5168 306.169 59.8799C315.374 64.1957 323.477 70.8865 330.152 78.7241C344.186 95.2027 352.485 115.99 352.94 137.693C353.099 145.223 352.054 152.883 349.259 159.934C346.55 166.767 341.534 171.944 335.418 175.85C321.168 184.953 303.061 187.021 286.527 186.383C276.569 185.999 266.887 184.152 257.482 180.841C251.638 178.783 245.948 176.146 240.717 172.814C238.685 171.519 236.835 170.059 235.155 168.33ZM287.959 77.0746C287.264 74.5467 284.424 73.1255 281.615 73.8994C278.807 74.6733 277.096 77.349 277.791 79.8765C278.487 82.4044 281.327 83.8256 284.135 83.0517C286.943 82.2778 288.655 79.6021 287.959 77.0746ZM319.76 83.99C319.055 81.4648 316.209 80.053 313.403 80.8361C310.597 81.6198 308.894 84.3025 309.599 86.828C310.304 89.3532 313.15 90.765 315.956 89.9818C318.762 89.1982 320.465 86.5154 319.76 83.99Z"
        fill="#EABC6A" />
      <path
        d="M287.959 77.0747C288.655 79.6022 286.943 82.2779 284.135 83.0518C281.327 83.8257 278.487 82.4045 277.791 79.8766C277.096 77.3491 278.807 74.6734 281.615 73.8995C284.424 73.1256 287.264 74.5468 287.959 77.0747ZM285.323 76.7029C285.137 76.0355 284.385 75.6616 283.643 75.8687C282.901 76.0757 282.451 76.7858 282.637 77.4533C282.823 78.1206 283.576 78.4946 284.318 78.2874C285.059 78.0804 285.51 77.3704 285.323 76.7029Z"
        fill="#4B4948" />
      <path
        d="M284.318 78.2871C285.059 78.0799 285.51 77.3705 285.323 76.7026C285.137 76.0347 284.384 75.6612 283.643 75.8685C282.901 76.0757 282.45 76.7851 282.637 77.453C282.823 78.1209 283.576 78.4943 284.318 78.2871Z"
        fill="white" />
      <path
        d="M319.76 83.9901C320.465 86.5156 318.762 89.1983 315.956 89.982C313.15 90.7651 310.304 89.3533 309.599 86.8281C308.894 84.3027 310.597 81.6199 313.403 80.8363C316.209 80.0531 319.055 81.4649 319.76 83.9901ZM316.63 84.2032C316.63 83.537 316.09 82.9962 315.424 82.9962C314.758 82.9962 314.217 83.537 314.217 84.2032C314.217 84.8695 314.758 85.4103 315.424 85.4103C316.09 85.4103 316.63 84.8695 316.63 84.2032Z"
        fill="#4B4948" />
      <path
        d="M315.424 85.4102C316.09 85.4102 316.63 84.8698 316.63 84.2031C316.63 83.5365 316.09 82.9961 315.424 82.9961C314.757 82.9961 314.217 83.5365 314.217 84.2031C314.217 84.8698 314.757 85.4102 315.424 85.4102Z"
        fill="white" />
      <path
        d="M39.3113 22.5275C39.7718 22.3891 40.1111 22.5903 40.2494 23.0708L45.2124 39.3483C45.3508 39.8088 45.1896 40.1482 44.729 40.3266C44.2684 40.505 43.8891 40.3037 43.7508 39.8232L38.808 23.4858C38.6696 23.0053 38.8508 22.6659 39.3113 22.5275ZM63.5382 26.3124C62.713 27.8095 61.6885 29.086 60.7254 29.9626C60.4845 30.2218 60.2045 30.2208 60.0052 30.0201C59.766 29.7992 59.7667 29.5792 59.9477 29.2999C61.2937 27.5846 62.3617 25.3083 62.9711 22.6304C63.1132 22.0309 63.5542 21.7525 64.2136 21.9148C64.8531 22.077 65.0114 22.5576 64.8696 23.0771C64.6871 23.7764 64.4247 24.4555 64.1424 25.1145L70.7224 25.1376C71.0824 25.1389 71.2816 25.3596 71.2803 25.7395C71.2789 26.1395 71.0782 26.3388 70.7182 26.3376L63.5382 26.3124ZM58.6664 23.9753C59.3064 23.9776 59.6651 24.3388 59.6629 24.9788L59.6193 37.4188C59.6174 37.9388 59.3164 38.2377 58.7964 38.2359C58.2764 38.2341 57.9775 37.933 57.9793 37.413L57.9823 36.553L55.8823 36.5457L55.8775 37.9257C55.8756 38.4657 55.5745 38.7646 55.0345 38.7627C54.4945 38.7608 54.1956 38.4598 54.1975 37.9198L54.2429 24.9599C54.2451 24.3199 54.6064 23.9611 55.2464 23.9634L58.6664 23.9753ZM57.9861 35.453L58.0217 25.3131C58.0222 25.1731 57.9225 25.0727 57.7825 25.0723L56.1625 25.0666C56.0225 25.0661 55.9222 25.1657 55.9217 25.3057L55.8862 35.4457L57.9861 35.453ZM70.9686 34.7785C71.8533 39.1416 71.2301 40.0595 69.6298 40.1539C67.7493 40.2673 65.6694 40.26 63.5498 40.1326C60.9903 39.9836 60.3352 38.5813 61.5616 36.7656C62.446 35.5087 64.2729 33.535 66.8036 30.4839C66.9442 30.3244 66.8847 30.1842 66.6847 30.1835L62.1847 30.1677C61.8247 30.1664 61.6255 29.9257 61.6268 29.5658C61.628 29.2258 61.8288 29.0065 62.1888 29.0077L68.2487 29.0289C69.3287 29.0327 69.6256 29.9338 68.9228 30.7313C66.493 33.5228 64.3651 35.7554 63.4209 36.9721C62.7177 37.8696 62.7955 38.5099 64.1152 38.5945C65.6348 38.6999 67.3548 38.7059 68.9552 38.6115C69.9154 38.5548 70.0162 38.3152 70.0286 34.7752C70.0296 34.4752 70.1903 34.2758 70.4703 34.2768C70.7303 34.2777 70.9098 34.4383 70.9686 34.7785ZM89.6278 35.0239C89.9079 35.0049 90.1072 35.2056 90.1661 35.5258C90.8317 39.6481 90.4065 41.1267 88.6479 40.7205C86.9492 40.3345 85.6939 38.9901 84.8005 37.107C83.5767 38.1827 82.1536 39.0777 80.5112 39.752C80.1908 39.8709 79.971 39.8101 79.8319 39.5496C79.7128 39.2892 79.7536 39.0693 80.0542 38.8904C81.5373 38.0156 82.9611 36.9405 84.2058 35.6049C83.5525 33.6826 83.2006 31.3613 83.089 28.9809L79.289 28.9676L79.2784 31.9876C80.1995 31.6908 81.0806 31.3739 81.9216 31.0769C82.222 30.9779 82.4818 31.0188 82.6009 31.2792C82.7398 31.5997 82.5991 31.7992 82.3586 31.9384C81.3966 32.515 80.3547 33.0514 79.273 33.5476L79.2547 38.7676C79.2473 40.8676 77.1854 41.4203 74.1701 40.0698C73.8706 39.9287 73.7513 39.7083 73.8323 39.4286C73.9132 39.1689 74.1336 39.0496 74.4934 39.1109C77.192 39.5203 77.5528 39.3016 77.5564 38.2816L77.5704 34.2816C76.5889 34.6982 75.5677 35.0546 74.5665 35.3711C73.8858 35.5887 73.4063 35.4271 73.2488 34.7265C73.111 34.086 73.3124 33.6867 74.0331 33.5092C75.2141 33.2134 76.4153 32.8776 77.5765 32.5217L77.589 28.9617L73.969 28.949C73.549 28.9475 73.33 28.6867 73.3314 28.2868C73.3328 27.8868 73.5536 27.6475 73.9736 27.649L77.5936 27.6617L77.6017 25.3417C76.5409 25.558 75.4804 25.7143 74.52 25.8109C74.26 25.83 74.0403 25.7292 74.0014 25.4091C73.9625 25.1089 74.1032 24.9094 74.3834 24.8504C76.7453 24.2987 78.7076 23.6656 80.6313 22.5923C81.0922 22.3539 81.5723 22.3356 81.8903 22.8967C82.2083 23.4578 82.0066 23.9371 81.4858 24.1753C80.8448 24.4531 80.1039 24.7105 79.3032 24.9277L79.2936 27.6676L83.0335 27.6807C83.0182 26.3607 82.9845 24.5605 82.9903 22.9006C82.9925 22.2806 83.3134 22.0217 83.8734 22.0236C84.4334 22.0256 84.7525 22.2667 84.7503 22.9067C84.7635 24.8468 84.7783 26.3268 84.8135 27.687L89.9535 27.705C90.3735 27.7065 90.5926 27.9472 90.5912 28.3472C90.5898 28.7672 90.3689 29.0064 89.9489 29.005L84.889 28.9872C85.0023 30.8877 85.2164 32.5684 85.5514 33.9896C86.3151 32.9523 86.9591 31.8145 87.5036 30.5364C87.7659 29.8773 88.2866 29.6792 88.8457 29.9211C89.4447 30.2032 89.5229 30.7235 89.221 31.2824C88.3551 32.9594 87.3498 34.4759 86.1451 35.8117C86.7003 37.1736 87.4569 38.1563 88.4748 38.7599C89.0136 39.0818 89.155 38.7023 89.1861 35.5223C89.1872 35.2023 89.3678 35.043 89.6278 35.0239ZM87.7186 26.2371C87.202 25.2753 86.5256 24.233 85.9684 23.451C85.7893 23.1904 85.7901 22.9504 85.9908 22.7511C86.1915 22.5518 86.4115 22.5725 86.6708 22.7535C87.5486 23.3965 88.4854 24.2998 89.2023 25.2023C89.6204 25.7238 89.5987 26.2237 89.0774 26.6019C88.556 26.9801 88.0365 26.8383 87.7186 26.2371ZM103.936 23.2339C104.098 22.7545 104.439 22.5557 104.918 22.6774C105.418 22.7991 105.617 23.1598 105.475 23.6593L100.377 40.1016C100.235 40.6011 99.8548 40.7798 99.3753 40.6381C98.8958 40.4964 98.697 40.1357 98.8588 39.6363L103.936 23.2339Z"
        fill="#838383" />
      <path
        d="M309.761 26.1342C310.226 26.2547 310.412 26.6027 310.281 27.0853L306.082 43.5764C305.962 44.0419 305.648 44.2485 305.162 44.1622C304.675 44.0758 304.455 43.7069 304.586 43.2244L308.833 26.6924C308.964 26.2099 309.295 26.0137 309.761 26.1342ZM327.422 43.8709C327.729 44.0587 327.795 44.3337 327.618 44.6238C327.43 44.9309 327.155 44.9972 326.848 44.8094L323.93 43.0255C323.064 43.2927 322.222 43.4812 321.404 43.591L324.391 45.4167C324.937 45.7505 325.056 46.2454 324.722 46.7915L320.831 53.1561C320.539 53.6339 320.126 53.7334 319.648 53.4413C319.171 53.1492 319.071 52.7367 319.363 52.2589L319.728 51.6617L316.623 49.763L316.216 50.4285C315.924 50.9063 315.512 51.0057 315.034 50.7136C314.556 50.4215 314.456 50.0091 314.749 49.5313L318.296 43.7297C317.651 43.7106 317.038 43.6403 316.407 43.5596C316.061 43.5121 315.871 43.3253 315.914 43.0238C315.954 42.7669 316.113 42.583 316.497 42.6068C318.455 42.702 320.395 42.4815 322.224 41.9822L318.675 39.8123C318.368 39.6245 318.312 39.3325 318.489 39.0424C318.666 38.7523 318.941 38.686 319.249 38.8738L322.098 40.616L323.392 38.5001L321.276 37.2065C320.969 37.0187 320.913 36.7267 321.09 36.4366C321.268 36.1465 321.543 36.0802 321.85 36.268L323.966 37.5616L325.082 35.7358C325.374 35.2581 325.803 35.169 326.281 35.4611C326.759 35.7532 326.876 36.1761 326.583 36.6539L325.467 38.4797L327.174 39.5229C327.276 39.5855 327.334 39.6443 327.381 39.7202C327.712 39.524 328.026 39.3174 328.323 39.1003C328.847 38.7411 329.282 38.7962 329.622 39.2381C329.961 39.68 329.868 40.1388 329.326 40.4876C327.896 41.3709 326.562 42.0561 325.272 42.5564L327.422 43.8709ZM330.446 53.4558C329.047 56.2808 326.711 55.0403 325.632 52.8566C325.511 52.5949 325.574 52.3759 325.795 52.2062C325.989 52.0432 326.201 52.0793 326.46 52.3078C327.873 53.5235 328.36 53.4933 329.002 52.2913C329.667 51.0105 329.976 49.3941 329.892 47.5377C329.91 47.0096 330.033 46.6162 330.465 46.2939C331.715 45.3234 332.921 44.2323 333.955 43.1536C334.073 43.038 334.04 42.9005 333.903 42.8171L331.958 41.6277L323.737 55.0738C323.445 55.5516 323.033 55.651 322.555 55.3589C322.077 55.0668 321.978 54.6544 322.27 54.1766L330.95 39.9798C331.242 39.502 331.654 39.4025 332.132 39.6946C332.542 39.945 332.683 40.2892 332.515 40.6788L334.648 41.9829C335.17 41.8569 335.608 41.984 335.941 42.3984C336.348 42.882 336.265 43.4404 335.653 43.9807C333.957 45.4518 332.55 46.3731 331.044 47.1872C330.93 47.2582 330.861 47.3331 330.884 47.4877C331.318 49.6523 331.298 51.6793 330.446 53.4558ZM323.6 41.5341L323.617 41.5445C324.57 41.2129 325.475 40.8054 326.361 40.3154L324.893 39.4182L323.6 41.5341ZM323.077 46.1843C323.15 46.0649 323.117 45.9274 322.998 45.8544L320.302 44.206C320.182 44.133 320.045 44.1662 319.972 44.2856L318.981 45.9067L322.086 47.8054L323.077 46.1843ZM317.197 48.8245L320.302 50.7232L321.544 48.6927L318.438 46.794L317.197 48.8245ZM345.2 52.1382C343.718 52.9902 342.18 53.5502 340.902 53.8002C340.561 53.8969 340.322 53.7508 340.256 53.4758C340.166 53.163 340.281 52.9753 340.581 52.8303C342.621 52.0618 344.715 50.6695 346.625 48.6959C347.057 48.2571 347.578 48.2477 348.058 48.7285C348.521 49.1988 348.407 49.6918 348.016 50.0624C347.497 50.5658 346.921 51.0103 346.338 51.4273L351.952 54.8596C352.259 55.0474 352.315 55.3394 352.116 55.6636C351.908 56.0049 351.633 56.0712 351.326 55.8834L345.2 52.1382ZM342.246 47.6133C342.793 47.9471 342.912 48.442 342.578 48.9881L336.089 59.6016C335.818 60.0452 335.405 60.1447 334.962 59.8734C334.518 59.6022 334.419 59.1897 334.69 58.7461L335.138 58.0124L333.347 56.9169L332.627 58.0943C332.345 58.555 331.933 58.6545 331.472 58.3728C331.011 58.0911 330.912 57.6787 331.194 57.218L337.954 46.1609C338.288 45.6148 338.783 45.4955 339.329 45.8293L342.246 47.6133ZM335.712 57.0739L341.001 48.4227C341.075 48.3032 341.041 48.1658 340.922 48.0927L339.54 47.2477C339.42 47.1747 339.283 47.2078 339.21 47.3273L333.921 55.9785L335.712 57.0739ZM347.162 63.2303C345.656 67.4196 344.647 67.8811 343.229 67.1318C341.563 66.2535 339.788 65.1686 338.042 63.9603C335.931 62.5055 336.098 60.9668 338.088 60.0504C339.496 59.4344 342.082 58.6945 345.828 57.3983C346.031 57.3348 346.053 57.1841 345.882 57.0798L342.043 54.7324C341.736 54.5447 341.69 54.2356 341.878 53.9284C342.056 53.6383 342.341 53.555 342.648 53.7428L347.818 56.9038C348.74 57.4672 348.526 58.3915 347.512 58.7089C343.987 59.8355 341.009 60.6407 339.571 61.1913C338.504 61.594 338.239 62.1818 339.323 62.9386C340.568 63.8167 342.035 64.7139 343.453 65.4632C344.303 65.9128 344.513 65.7602 346.36 62.74C346.516 62.484 346.757 62.3968 346.996 62.5429C347.218 62.6785 347.288 62.9089 347.162 63.2303ZM364.649 60.2549C365.035 59.9288 365.43 59.9355 365.777 60.2883C366.141 60.6515 366.124 61.0629 365.743 61.4165L352.857 72.8307C352.477 73.1843 352.059 73.1397 351.723 72.7698C351.386 72.4 351.403 71.9885 351.8 71.6454L364.649 60.2549Z"
        fill="#838383" />
      <path
        d="M457.705 21.66C458.165 21.52 458.505 21.72 458.645 22.2L463.665 38.46C463.805 38.92 463.645 39.26 463.185 39.44C462.725 39.62 462.345 39.42 462.205 38.94L457.205 22.62C457.065 22.14 457.245 21.8 457.705 21.66ZM481.945 25.36C481.125 26.86 480.105 28.14 479.145 29.02C478.905 29.28 478.625 29.28 478.425 29.08C478.185 28.86 478.185 28.64 478.365 28.36C479.705 26.64 480.765 24.36 481.365 21.68C481.505 21.08 481.945 20.8 482.605 20.96C483.245 21.12 483.405 21.6 483.265 22.12C483.085 22.82 482.825 23.5 482.545 24.16H489.125C489.485 24.16 489.685 24.38 489.685 24.76C489.685 25.16 489.485 25.36 489.125 25.36H481.945ZM477.065 23.04C477.705 23.04 478.065 23.4 478.065 24.04V36.48C478.065 37 477.765 37.3 477.245 37.3C476.725 37.3 476.425 37 476.425 36.48V35.62H474.325V37C474.325 37.54 474.025 37.84 473.485 37.84C472.945 37.84 472.645 37.54 472.645 37V24.04C472.645 23.4 473.005 23.04 473.645 23.04H477.065ZM476.425 34.52V24.38C476.425 24.24 476.325 24.14 476.185 24.14H474.565C474.425 24.14 474.325 24.24 474.325 24.38V34.52H476.425ZM489.405 33.8C490.305 38.16 489.685 39.08 488.085 39.18C486.205 39.3 484.125 39.3 482.005 39.18C479.445 39.04 478.785 37.64 480.005 35.82C480.885 34.56 482.705 32.58 485.225 29.52C485.365 29.36 485.305 29.22 485.105 29.22H480.605C480.245 29.22 480.045 28.98 480.045 28.62C480.045 28.28 480.245 28.06 480.605 28.06H486.665C487.745 28.06 488.045 28.96 487.345 29.76C484.925 32.56 482.805 34.8 481.865 36.02C481.165 36.92 481.245 37.56 482.565 37.64C484.085 37.74 485.805 37.74 487.405 37.64C488.365 37.58 488.465 37.34 488.465 33.8C488.465 33.5 488.625 33.3 488.905 33.3C489.165 33.3 489.345 33.46 489.405 33.8ZM508.065 33.98C508.345 33.96 508.545 34.16 508.605 34.48C509.285 38.6 508.865 40.08 507.105 39.68C505.405 39.3 504.145 37.96 503.245 36.08C502.025 37.16 500.605 38.06 498.965 38.74C498.645 38.86 498.425 38.8 498.285 38.54C498.165 38.28 498.205 38.06 498.505 37.88C499.985 37 501.405 35.92 502.645 34.58C501.985 32.66 501.625 30.34 501.505 27.96H497.705V30.98C498.625 30.68 499.505 30.36 500.345 30.06C500.645 29.96 500.905 30 501.025 30.26C501.165 30.58 501.025 30.78 500.785 30.92C499.825 31.5 498.785 32.04 497.705 32.54V37.76C497.705 39.86 495.645 40.42 492.625 39.08C492.325 38.94 492.205 38.72 492.285 38.44C492.365 38.18 492.585 38.06 492.945 38.12C495.645 38.52 496.005 38.3 496.005 37.28V33.28C495.025 33.7 494.005 34.06 493.005 34.38C492.325 34.6 491.845 34.44 491.685 33.74C491.545 33.1 491.745 32.7 492.465 32.52C493.645 32.22 494.845 31.88 496.005 31.52V27.96H492.385C491.965 27.96 491.745 27.7 491.745 27.3C491.745 26.9 491.965 26.66 492.385 26.66H496.005V24.34C494.945 24.56 493.885 24.72 492.925 24.82C492.665 24.84 492.445 24.74 492.405 24.42C492.365 24.12 492.505 23.92 492.785 23.86C495.145 23.3 497.105 22.66 499.025 21.58C499.485 21.34 499.965 21.32 500.285 21.88C500.605 22.44 500.405 22.92 499.885 23.16C499.245 23.44 498.505 23.7 497.705 23.92V26.66H501.445C501.425 25.34 501.385 23.54 501.385 21.88C501.385 21.26 501.705 21 502.265 21C502.825 21 503.145 21.24 503.145 21.88C503.165 23.82 503.185 25.3 503.225 26.66H508.365C508.785 26.66 509.005 26.9 509.005 27.3C509.005 27.72 508.785 27.96 508.365 27.96H503.305C503.425 29.86 503.645 31.54 503.985 32.96C504.745 31.92 505.385 30.78 505.925 29.5C506.185 28.84 506.705 28.64 507.265 28.88C507.865 29.16 507.945 29.68 507.645 30.24C506.785 31.92 505.785 33.44 504.585 34.78C505.145 36.14 505.905 37.12 506.925 37.72C507.465 38.04 507.605 37.66 507.625 34.48C507.625 34.16 507.805 34 508.065 33.98ZM506.125 25.2C505.605 24.24 504.925 23.2 504.365 22.42C504.185 22.16 504.185 21.92 504.385 21.72C504.585 21.52 504.805 21.54 505.065 21.72C505.945 22.36 506.885 23.26 507.605 24.16C508.025 24.68 508.005 25.18 507.485 25.56C506.965 25.94 506.445 25.8 506.125 25.2ZM517.945 24.66V29.26C517.945 34.34 517.105 37.2 515.605 39.36C515.425 39.62 515.165 39.64 514.965 39.5C514.725 39.34 514.725 39.12 514.865 38.84C516.065 36.44 516.305 34.16 516.305 29.24V24.32C516.305 23.68 516.665 23.32 517.305 23.32H521.705V21.96C521.705 21.4 522.025 21.08 522.605 21.08C523.185 21.08 523.505 21.4 523.505 21.96V23.32H528.045C528.405 23.32 528.605 23.52 528.605 23.86C528.605 24.22 528.405 24.42 528.045 24.42H518.185C518.045 24.42 517.945 24.52 517.945 24.66ZM515.845 34.06C515.845 34.7 515.485 35.06 514.845 35.06H513.185V36.24C513.185 36.72 512.905 37 512.425 37C511.945 37 511.665 36.72 511.665 36.24V24.34C511.665 23.7 512.025 23.34 512.665 23.34H514.845C515.485 23.34 515.845 23.7 515.845 24.34V34.06ZM514.365 33.72V24.68C514.365 24.54 514.265 24.44 514.125 24.44H513.425C513.285 24.44 513.185 24.54 513.185 24.68V33.96H514.125C514.265 33.96 514.365 33.86 514.365 33.72ZM522.865 27.68C522.865 28.04 522.665 28.24 522.305 28.24H521.265V38.92C521.265 39.36 521.005 39.62 520.565 39.62C520.125 39.62 519.865 39.36 519.865 38.92V28.24H518.685C518.325 28.24 518.125 28.02 518.125 27.68C518.125 27.34 518.325 27.14 518.685 27.14H519.745V25.52C519.745 25 520.025 24.72 520.545 24.72C521.065 24.72 521.345 25 521.345 25.52V27.14H522.305C522.665 27.14 522.865 27.34 522.865 27.68ZM528.345 27.68C528.345 28.04 528.145 28.24 527.785 28.24H526.225V38.92C526.225 39.36 525.965 39.62 525.525 39.62C525.085 39.62 524.825 39.36 524.825 38.92V28.24H523.685C523.325 28.24 523.125 28.02 523.125 27.68C523.125 27.34 523.325 27.14 523.685 27.14H524.685V25.52C524.685 25 524.965 24.72 525.485 24.72C526.005 24.72 526.285 25 526.285 25.52V27.14H527.785C528.145 27.14 528.345 27.34 528.345 27.68ZM518.965 28.98C519.245 28.98 519.445 29.18 519.445 29.54V32C519.445 34.66 518.825 36.54 518.125 37.68C517.985 37.94 517.745 37.96 517.565 37.84C517.345 37.7 517.365 37.5 517.465 37.26C518.045 35.94 518.365 33.98 518.365 32V29.54C518.365 29.18 518.605 28.98 518.965 28.98ZM522.785 35.44C522.785 35.8 522.585 36 522.225 36C521.905 36 521.705 35.8 521.705 35.44V29.54C521.705 29.18 521.905 28.98 522.225 28.98C522.585 28.98 522.785 29.18 522.785 29.54V35.44ZM523.905 28.98C524.225 28.98 524.425 29.18 524.425 29.54V32C524.425 34.7 523.945 36.58 523.225 37.84C523.085 38.08 522.865 38.14 522.665 38.02C522.465 37.9 522.405 37.7 522.525 37.44C523.185 35.82 523.345 34.02 523.345 32V29.54C523.345 29.18 523.545 28.98 523.905 28.98ZM528.945 36.46C529.045 36.76 529.025 37.04 528.745 37.2C528.445 37.36 528.205 37.38 527.865 37.38C526.925 37.38 526.605 37.2 526.605 35.88V29.54C526.605 29.18 526.805 28.98 527.165 28.98C527.525 28.98 527.685 29.18 527.685 29.54V35.7C527.685 36.02 527.725 36.2 528.005 36.2C528.105 36.2 528.205 36.18 528.325 36.16C528.645 36.1 528.865 36.2 528.945 36.46ZM541.892 22.14C542.052 21.66 542.392 21.46 542.872 21.58C543.372 21.7 543.572 22.06 543.432 22.56L538.392 39.02C538.252 39.52 537.872 39.7 537.392 39.56C536.912 39.42 536.712 39.06 536.872 38.56L541.892 22.14Z"
        fill="#838383" />
    </svg>