      <svg width="143" height="113" viewBox="0 0 286 227" fill="none" xmlns="http://www.w3.org/2000/svg">
        <path
          d="M71.4814 213.153C23.8448 190.773 -1.0436 140.061 0.522513 89.068C1.32536 62.9035 9.92357 35.2798 29.9839 17.2773C38.4083 9.71646 49.5228 5.92726 60.5428 3.91089C78.5465 0.615364 97.221 0.6395 115.449 1.15511C130.576 1.58296 145.473 2.41233 160.143 3.64321C176.138 4.986 192.345 7.04186 208.184 10.3769C217.888 12.4196 227.542 15.1161 236.71 18.9163C246.037 22.7823 254.773 28.1117 261.306 35.9095C282.486 61.1965 289.107 96.6749 283.122 128.454C280.942 140.026 277.084 150.985 271.552 161.335C255.453 191.442 224.998 209.493 193.139 218.787C172.702 224.749 151.828 227.377 130.516 226.668C110.214 225.995 89.914 221.813 71.4814 213.153ZM181.83 53.6812C180.432 49.3637 175.397 47.1192 170.586 48.6688C165.776 50.2194 163.009 54.9762 164.406 59.2947C165.804 63.6121 170.839 65.8567 175.65 64.3071C180.46 62.7565 183.227 57.9997 181.83 53.6812ZM237.477 63.4397C236.088 59.1208 231.057 56.8675 226.241 58.4105C221.425 59.9524 218.65 64.7048 220.04 69.0241C221.43 73.343 226.46 75.5963 231.276 74.0533C236.092 72.5114 238.868 67.759 237.477 63.4397Z"
          fill="#C7C4DC" />
        <path
          d="M181.83 53.6812C183.227 57.9997 180.46 62.7565 175.65 64.3071C170.839 65.8567 165.804 63.6122 164.406 59.2947C163.009 54.9762 165.776 50.2194 170.586 48.6688C175.397 47.1192 180.432 49.3637 181.83 53.6812ZM177.25 53.2702C176.89 52.1239 175.562 51.5183 174.285 51.9184C173.008 52.317 172.265 53.5698 172.624 54.7163C172.984 55.8626 174.312 56.4682 175.589 56.0681C176.866 55.6695 177.61 54.4167 177.25 53.2702Z"
          fill="#4B4948" />
        <path
          d="M175.589 56.0681C176.866 55.6688 177.61 54.4161 177.25 53.2702C176.89 52.1243 175.563 51.5191 174.285 51.9184C173.008 52.3178 172.264 53.5704 172.624 54.7163C172.984 55.8622 174.311 56.4675 175.589 56.0681Z"
          fill="#C7C4DC" />
        <path
          d="M237.477 63.4397C238.868 67.759 236.092 72.5114 231.276 74.0533C226.46 75.5963 221.43 73.343 220.04 69.0241C218.649 64.7048 221.425 59.9524 226.241 58.4105C231.057 56.8675 236.088 59.1209 237.477 63.4397ZM232.06 64.0949C232.06 62.9408 231.123 62.0061 229.966 62.0061C228.809 62.0061 227.872 62.9408 227.872 64.0949C227.872 65.249 228.809 66.1836 229.966 66.1836C231.123 66.1836 232.06 65.249 232.06 64.0949Z"
          fill="#4B4948" />
        <path
          d="M229.966 66.1837C231.123 66.1837 232.06 65.2485 232.06 64.0949C232.06 62.9413 231.123 62.0061 229.966 62.0061C228.81 62.0061 227.872 62.9413 227.872 64.0949C227.872 65.2485 228.81 66.1837 229.966 66.1837Z"
          fill="#C7C4DC" />
      </svg>