            <svg width="240" height="222" viewBox="0 0 205 120" fill="none" xmlns="http://www.w3.org/2000/svg">
              <path
                d="M198.33 1H6.37C3.40423 1 1 3.40423 1 6.37V106.83C1 109.796 3.40423 112.2 6.37 112.2H198.33C201.296 112.2 203.7 109.796 203.7 106.83V6.37C203.7 3.40423 201.296 1 198.33 1Z"
                fill="white" stroke="#0C794D" stroke-width="2" stroke-miterlimit="10" />
              <path d="M6.27002 112.35L9.99002 118.19C10.59 119.13 192.44 118.19 192.44 118.19L195.55 112.35H6.27002Z"
                fill="white" stroke="#0C794D" stroke-width="2" stroke-miterlimit="10" />
              <path
                d="M162.24 112.21V1H7.17C5.53361 1 3.96425 1.65005 2.80715 2.80715C1.65005 3.96425 1 5.53362 1 7.17V106.64C0.999998 108.116 1.58546 109.531 2.62788 110.575C3.67029 111.619 5.08448 112.207 6.56 112.21H162.24Z"
                fill="#0C794D" stroke="#0C794D" stroke-width="2" stroke-miterlimit="10" />
              <path
                d="M183.28 81.08C189.035 81.08 193.7 76.4148 193.7 70.66C193.7 64.9052 189.035 60.24 183.28 60.24C177.525 60.24 172.86 64.9052 172.86 70.66C172.86 76.4148 177.525 81.08 183.28 81.08Z"
                stroke="#0C794D" stroke-width="2" stroke-miterlimit="10" />
              <path
                d="M10.8999 105H152.34C152.34 105 150.8 74.3501 150.8 59.1401C150.8 43.9301 152.34 11.5701 152.34 11.5701H10.8999V105Z"
                fill="white" stroke="#0C794D" stroke-width="2" stroke-miterlimit="10" />
              <path d="M145.13 16.64H16.73V99.7H145.13V16.64Z" stroke="#0C794D" stroke-width="2"
                stroke-miterlimit="10" />
              <path
                d="M183.28 76.66C186.594 76.66 189.28 73.9737 189.28 70.66C189.28 67.3463 186.594 64.66 183.28 64.66C179.966 64.66 177.28 67.3463 177.28 70.66C177.28 73.9737 179.966 76.66 183.28 76.66Z"
                stroke="#0C794D" stroke-width="2" stroke-miterlimit="10" />
              <path d="M174.86 10.01H167.54V21.43H174.86V10.01Z" stroke="#0C794D" stroke-width="2"
                stroke-miterlimit="10" />
              <path d="M182.18 10.01H174.86V21.43H182.18V10.01Z" stroke="#0C794D" stroke-width="2"
                stroke-miterlimit="10" />
              <path d="M189.5 10.01H182.18V21.43H189.5V10.01Z" stroke="#0C794D" stroke-width="2"
                stroke-miterlimit="10" />
              <path d="M196.82 10.01H189.5V21.43H196.82V10.01Z" stroke="#0C794D" stroke-width="2"
                stroke-miterlimit="10" />
              <path d="M34.41 16.64V78.12L16.73 99.7" stroke="#0C794D" stroke-width="2" stroke-miterlimit="10" />
              <path d="M34.4099 78.12H127.59V16.64" stroke="#0C794D" stroke-width="2" stroke-miterlimit="10" />
              <path d="M145.13 99.7L127.4 77.9" stroke="#0C794D" stroke-width="2" stroke-miterlimit="10" />
              <path
                d="M139.78 87.03C139.78 92.18 113.62 96.35 78.8399 96.35C44.0599 96.35 19.9299 92.18 19.9299 87.03C19.9299 81.88 48.1299 77.71 82.9299 77.71C117.73 77.71 139.78 81.88 139.78 87.03Z"
                fill="white" stroke="#0C794D" stroke-width="2" stroke-miterlimit="10" />
              <path
                d="M136.46 81.57C136.46 86.44 111.75 90.38 78.89 90.38C46.03 90.38 23.25 86.44 23.25 81.57C23.25 76.7 46.04 72.77 78.89 72.77C111.74 72.77 136.46 76.71 136.46 81.57Z"
                fill="white" stroke="#0C794D" stroke-width="2" stroke-miterlimit="10" />
              <path
                d="M169.9 107.41C171.203 107.41 172.26 106.353 172.26 105.05C172.26 103.747 171.203 102.69 169.9 102.69C168.597 102.69 167.54 103.747 167.54 105.05C167.54 106.353 168.597 107.41 169.9 107.41Z"
                stroke="#0C794D" stroke-width="2" stroke-miterlimit="10" />
              <path
                d="M177.79 107.41C179.093 107.41 180.15 106.353 180.15 105.05C180.15 103.747 179.093 102.69 177.79 102.69C176.487 102.69 175.43 103.747 175.43 105.05C175.43 106.353 176.487 107.41 177.79 107.41Z"
                stroke="#0C794D" stroke-width="2" stroke-miterlimit="10" />
              <path
                d="M185.73 107.41C187.033 107.41 188.09 106.353 188.09 105.05C188.09 103.747 187.033 102.69 185.73 102.69C184.426 102.69 183.37 103.747 183.37 105.05C183.37 106.353 184.426 107.41 185.73 107.41Z"
                stroke="#0C794D" stroke-width="2" stroke-miterlimit="10" />
              <path
                d="M79.3832 81.6626C75.1018 80.1732 70.344 76.5228 70.4629 71.4607C70.4967 70.0238 70.9264 68.5858 71.5907 67.3103C72.455 65.6515 73.6989 64.2168 75.1195 63.0118C76.4458 61.887 77.9366 60.9206 79.5234 60.2035C80.5504 59.7395 81.6186 59.4063 82.728 59.2042C86.6136 58.4956 90.538 59.6542 93.4321 62.3238C94.3296 63.1514 95.0515 64.1044 95.661 65.1625C96.9439 67.3894 97.4487 69.8806 96.8604 72.41C96.0484 75.901 93.609 78.8735 90.6175 80.7579C88.9138 81.8312 87.0521 82.4177 85.0326 82.5177C83.8004 82.5785 82.5678 82.467 81.3624 82.2076C80.6961 82.0642 80.0271 81.8867 79.3832 81.6626ZM84.0336 64.175C83.8777 63.8265 83.4374 63.6844 83.05 63.8577C82.6628 64.0311 82.4751 64.4539 82.631 64.8025C82.7868 65.1509 83.2271 65.2931 83.6145 65.1197C84.0017 64.9464 84.1894 64.5235 84.0336 64.175ZM88.766 64.4786C88.6095 64.1303 88.169 63.9889 87.7821 64.1628C87.3952 64.3366 87.2083 64.7601 87.3649 65.1084C87.5214 65.4567 87.9619 65.598 88.3488 65.4241C88.7357 65.2503 88.9226 64.8269 88.766 64.4786Z"
                fill="#DBAC95" />
              <path
                d="M84.0336 64.1751C84.1894 64.5236 84.0018 64.9465 83.6145 65.1198C83.2271 65.2932 82.7869 65.151 82.631 64.8026C82.4752 64.454 82.6628 64.0312 83.0501 63.8578C83.4374 63.6845 83.8777 63.8266 84.0336 64.1751ZM83.6463 64.1808C83.605 64.0886 83.4887 64.051 83.3862 64.0968C83.2838 64.1427 83.2343 64.2546 83.2755 64.3467C83.3168 64.4389 83.4331 64.4765 83.5356 64.4307C83.638 64.3848 83.6875 64.2729 83.6463 64.1808Z"
                fill="#4B4948" />
              <path
                d="M83.5357 64.4306C83.6381 64.3848 83.6877 64.2729 83.6465 64.1807C83.6052 64.0885 83.4888 64.0509 83.3864 64.0967C83.284 64.1425 83.2344 64.2544 83.2756 64.3466C83.3168 64.4389 83.4333 64.4765 83.5357 64.4306Z"
                fill="white" />
              <path
                d="M88.7661 64.4787C88.9226 64.827 88.7358 65.2504 88.3489 65.4242C87.9619 65.5981 87.5214 65.4568 87.3649 65.1084C87.2084 64.7602 87.3952 64.3367 87.7821 64.1629C88.1691 63.989 88.6095 64.1304 88.7661 64.4787ZM88.3225 64.6039C88.3225 64.5069 88.2438 64.4282 88.1468 64.4282C88.0498 64.4282 87.9711 64.5069 87.9711 64.6039C87.9711 64.7009 88.0498 64.7796 88.1468 64.7796C88.2438 64.7796 88.3225 64.7009 88.3225 64.6039Z"
                fill="#4B4948" />
              <path
                d="M88.1469 64.7795C88.244 64.7795 88.3226 64.7008 88.3226 64.6037C88.3226 64.5067 88.244 64.428 88.1469 64.428C88.0499 64.428 87.9712 64.5067 87.9712 64.6037C87.9712 64.7008 88.0499 64.7795 88.1469 64.7795Z"
                fill="white" />
              <path
                d="M111.018 79.4962C106.713 77.4685 104.464 72.8735 104.606 68.2532C104.678 65.8825 105.455 63.3795 107.268 61.7484C108.029 61.0633 109.034 60.72 110.03 60.5373C111.657 60.2387 113.344 60.2408 114.991 60.2876C116.358 60.3263 117.705 60.4015 119.03 60.513C120.476 60.6347 121.94 60.821 123.372 61.1231C124.249 61.3082 125.121 61.5525 125.95 61.8969C126.792 62.2472 127.582 62.7301 128.172 63.4366C130.086 65.7278 130.685 68.9424 130.144 71.8219C129.947 72.8704 129.598 73.8634 129.098 74.8011C127.643 77.5291 124.891 79.1646 122.012 80.0068C120.165 80.5469 118.279 80.7851 116.353 80.7209C114.518 80.6598 112.684 80.2809 111.018 79.4962ZM120.99 65.0469C120.864 64.6557 120.409 64.4523 119.974 64.5927C119.539 64.7332 119.289 65.1642 119.416 65.5555C119.542 65.9467 119.997 66.15 120.432 66.0096C120.866 65.8691 121.116 65.4381 120.99 65.0469ZM126.019 65.931C125.893 65.5397 125.439 65.3356 125.003 65.4754C124.568 65.6151 124.317 66.0457 124.443 66.437C124.569 66.8284 125.023 67.0325 125.458 66.8927C125.894 66.753 126.145 66.3224 126.019 65.931Z"
                fill="#C7C4DC" />
              <path
                d="M120.99 65.0468C121.116 65.4381 120.866 65.8691 120.431 66.0096C119.997 66.15 119.542 65.9466 119.415 65.5554C119.289 65.1642 119.539 64.7332 119.974 64.5927C120.409 64.4522 120.864 64.6556 120.99 65.0468ZM120.576 65.0096C120.543 64.9057 120.423 64.8508 120.308 64.8871C120.193 64.9232 120.125 65.0367 120.158 65.1406C120.19 65.2445 120.311 65.2993 120.426 65.2631C120.541 65.227 120.608 65.1135 120.576 65.0096Z"
                fill="#4B4948" />
              <path
                d="M120.426 65.2631C120.542 65.2269 120.609 65.1134 120.576 65.0096C120.544 64.9058 120.424 64.8509 120.308 64.8871C120.193 64.9233 120.126 65.0368 120.158 65.1406C120.191 65.2445 120.311 65.2993 120.426 65.2631Z"
                fill="#C7C4DC" />
              <path
                d="M126.019 65.931C126.144 66.3224 125.893 66.753 125.458 66.8927C125.023 67.0325 124.568 66.8283 124.443 66.437C124.317 66.0456 124.568 65.615 125.003 65.4753C125.438 65.3355 125.893 65.5397 126.019 65.931ZM125.529 65.9904C125.529 65.8858 125.444 65.8011 125.34 65.8011C125.235 65.8011 125.151 65.8858 125.151 65.9904C125.151 66.0949 125.235 66.1796 125.34 66.1796C125.444 66.1796 125.529 66.0949 125.529 65.9904Z"
                fill="#4B4948" />
              <path
                d="M125.34 66.1795C125.445 66.1795 125.53 66.0948 125.53 65.9903C125.53 65.8858 125.445 65.801 125.34 65.801C125.236 65.801 125.151 65.8858 125.151 65.9903C125.151 66.0948 125.236 66.1795 125.34 66.1795Z"
                fill="#C7C4DC" />
              <path
                d="M49.3302 67.5859C51.8487 69.1101 53.4405 71.6202 53.5533 74.5933C53.6578 77.3408 52.6576 80.0273 50.2583 81.5417C48.7005 82.525 46.9351 82.8595 45.1092 82.9428C44.5014 82.9705 43.688 82.9852 42.6693 82.987C42.482 82.9873 42.3094 82.9824 42.1519 82.9718C41.1436 82.9048 40.1469 82.7568 39.1619 82.5278C35.8292 81.7538 32.75 79.7746 32.1098 76.1589C31.9448 75.2253 31.9706 74.2454 32.1546 73.3156C32.7352 70.379 34.7603 67.8249 37.4602 66.5573C38.7743 65.9401 40.2106 65.6817 41.6792 65.7577C42.8375 65.818 44.0023 65.9261 45.1467 66.1186C46.4577 66.339 47.7279 66.7056 48.9054 67.3324C48.9144 67.3373 48.9204 67.3347 48.9232 67.3246C49.2955 65.9898 50.2824 64.7597 51.8454 65.0533C52.0733 65.096 52.1877 65.1175 52.1882 65.1175C53.3114 65.2515 54.1515 64.4319 54.5525 63.4727C54.5559 63.4647 54.5567 63.4564 54.5549 63.4479C54.3743 62.6283 53.7657 61.9811 53.1243 61.4808C52.2886 60.8292 51.3566 60.3224 50.4446 59.7887C49.9934 59.5246 49.6518 59.0949 49.9972 58.571C50.3848 57.983 51.2537 57.9137 51.8674 58.0754C52.1077 58.1385 52.3196 58.2195 52.5471 58.3387C54.1411 59.1756 55.2772 60.5262 55.1531 62.4279C55.1525 62.4341 55.1603 62.4374 55.1644 62.433C56.2532 61.2901 57.9999 60.3131 59.6118 60.7027C60.1536 60.8335 60.757 61.2136 60.8962 61.7925C60.978 62.133 60.8641 62.4649 60.5267 62.6128C60.38 62.6772 60.1999 62.6928 60.0173 62.6941C58.6902 62.7026 57.2667 62.5888 56.0009 63.0679C55.7386 63.1672 55.1942 63.4616 55.0816 63.7337C54.5831 64.94 53.4439 65.8886 52.072 65.6956C51.9026 65.6718 51.6511 65.6113 51.4692 65.6015C50.3429 65.5402 49.7028 66.6497 49.4637 67.5849C49.4617 67.5929 49.4534 67.5978 49.4454 67.5957L49.3372 67.5688C49.3328 67.5678 49.3281 67.5701 49.3263 67.5742C49.3245 67.5786 49.3263 67.5836 49.3302 67.5859ZM43.0862 69.7318C42.955 69.3276 42.4841 69.1184 42.0349 69.2644C41.5855 69.4104 41.3278 69.8564 41.4592 70.2604C41.5904 70.6646 42.0613 70.8738 42.5105 70.7278C42.9599 70.5818 43.2176 70.1358 43.0862 69.7318ZM48.2865 70.6444C48.1553 70.2403 47.6844 70.031 47.235 70.1771C46.7856 70.3231 46.5276 70.7691 46.659 71.1731C46.7902 71.5772 47.2611 71.7865 47.7105 71.6405C48.16 71.4944 48.4179 71.0485 48.2865 70.6444Z"
                fill="#B9D27E" />
              <path
                d="M43.0864 69.7319C43.2178 70.1359 42.9601 70.5819 42.5106 70.7279C42.0615 70.874 41.5906 70.6647 41.4593 70.2605C41.328 69.8565 41.5857 69.4106 42.0351 69.2645C42.4842 69.1185 42.9551 69.3278 43.0864 69.7319ZM42.6614 69.6949C42.6278 69.587 42.5031 69.5296 42.3828 69.5669C42.2625 69.6041 42.1919 69.7218 42.2254 69.8298C42.2589 69.9378 42.3836 69.9952 42.5039 69.9578C42.6242 69.9207 42.6949 69.803 42.6614 69.6949Z"
                fill="#4B4948" />
              <path
                d="M42.5036 69.9578C42.624 69.9205 42.6945 69.8028 42.6611 69.6948C42.6276 69.5869 42.5029 69.5295 42.3825 69.5668C42.2622 69.6041 42.1916 69.7218 42.2251 69.8298C42.2585 69.9377 42.3832 69.995 42.5036 69.9578Z"
                fill="white" />
              <path
                d="M48.2863 70.6445C48.4177 71.0485 48.1597 71.4945 47.7103 71.6405C47.2609 71.7866 46.79 71.5773 46.6588 71.1732C46.5274 70.7691 46.7853 70.3232 47.2348 70.1771C47.6842 70.0311 48.1551 70.2404 48.2863 70.6445ZM47.7825 70.7089C47.7825 70.6002 47.6943 70.512 47.5856 70.512C47.4769 70.512 47.3887 70.6002 47.3887 70.7089C47.3887 70.8175 47.4769 70.9057 47.5856 70.9057C47.6943 70.9057 47.7825 70.8175 47.7825 70.7089Z"
                fill="#4B4948" />
              <path
                d="M47.5861 70.9056C47.6948 70.9056 47.783 70.8174 47.783 70.7087C47.783 70.6 47.6948 70.5118 47.5861 70.5118C47.4773 70.5118 47.3892 70.6 47.3892 70.7087C47.3892 70.8174 47.4773 70.9056 47.5861 70.9056Z"
                fill="white" />
              <path
                d="M94.0945 84.6268C91.8762 82.3451 90.7626 79.1583 90.6937 76.0193C90.6823 75.5088 90.7059 74.9999 90.7642 74.4925C91.263 70.1519 94.6426 66.8078 98.7421 65.7014C101.188 65.0414 103.795 65.2404 106.086 66.3148C107.641 67.0436 109.009 68.1733 110.136 69.4967C112.506 72.2792 113.908 75.7892 113.985 79.4538C114.011 80.7252 113.835 82.0186 113.363 83.2091C112.906 84.3629 112.058 85.2371 111.026 85.8967C108.619 87.4337 105.562 87.7829 102.77 87.6752C101.088 87.6103 99.453 87.2984 97.8648 86.7393C96.8778 86.3918 95.917 85.9466 95.0337 85.3839C94.6905 85.1653 94.3781 84.9188 94.0945 84.6268ZM103.011 69.2182C102.894 68.7914 102.414 68.5514 101.94 68.6821C101.466 68.8128 101.177 69.2645 101.294 69.6913C101.412 70.1182 101.891 70.3581 102.366 70.2275C102.84 70.0968 103.129 69.645 103.011 69.2182ZM108.382 70.3859C108.263 69.9595 107.782 69.7211 107.308 69.8534C106.834 69.9857 106.547 70.4387 106.666 70.8651C106.785 71.2915 107.265 71.5299 107.739 71.3976C108.213 71.2653 108.501 70.8123 108.382 70.3859Z"
                fill="#EABC6A" />
              <path
                d="M103.011 69.2183C103.129 69.645 102.839 70.0968 102.365 70.2275C101.891 70.3582 101.411 70.1182 101.294 69.6914C101.177 69.2646 101.466 68.8128 101.94 68.6821C102.414 68.5514 102.894 68.7914 103.011 69.2183ZM102.566 69.1555C102.534 69.0428 102.407 68.9796 102.282 69.0146C102.157 69.0496 102.081 69.1695 102.112 69.2822C102.144 69.3949 102.271 69.458 102.396 69.423C102.521 69.3881 102.597 69.2682 102.566 69.1555Z"
                fill="#4B4948" />
              <path
                d="M102.396 69.423C102.522 69.3881 102.598 69.2683 102.566 69.1555C102.535 69.0427 102.408 68.9797 102.282 69.0146C102.157 69.0496 102.081 69.1694 102.113 69.2822C102.144 69.395 102.271 69.458 102.396 69.423Z"
                fill="white" />
              <path
                d="M108.381 70.3857C108.5 70.8121 108.213 71.2651 107.739 71.3974C107.265 71.5297 106.785 71.2913 106.666 70.8649C106.546 70.4385 106.834 69.9855 107.308 69.8531C107.782 69.7209 108.262 69.9593 108.381 70.3857ZM107.853 70.4217C107.853 70.3092 107.762 70.2179 107.649 70.2179C107.537 70.2179 107.445 70.3092 107.445 70.4217C107.445 70.5342 107.537 70.6255 107.649 70.6255C107.762 70.6255 107.853 70.5342 107.853 70.4217Z"
                fill="#4B4948" />
              <path
                d="M107.649 70.6258C107.762 70.6258 107.853 70.5345 107.853 70.422C107.853 70.3094 107.762 70.2181 107.649 70.2181C107.537 70.2181 107.445 70.3094 107.445 70.422C107.445 70.5345 107.537 70.6258 107.649 70.6258Z"
                fill="white" />
              <path
                d="M54.0343 85.2794C53.1106 84.853 52.2382 84.2741 51.5641 83.5158C51.0346 82.92 50.6607 82.1566 50.4563 81.3718C50.0459 79.7937 50.2351 78.1257 50.6965 76.5806C51.1538 75.0493 51.8267 73.6201 52.715 72.2927C53.3795 71.2998 54.1786 70.4017 55.1263 69.6707C56.4893 68.6194 58.1676 68.0176 59.8766 67.8822C62.1669 67.7007 64.4528 68.3228 66.4991 69.3142C68.0828 70.0812 69.5571 71.0575 70.8567 72.237C72.1906 73.4477 73.4365 74.8556 74.3014 76.4456C74.9075 77.5597 75.3346 78.8529 75.2352 80.1368C74.9448 83.8884 70.8511 85.4456 67.7691 86.0879C66.3433 86.385 64.9239 86.5587 63.4857 86.6426C62.1701 86.7195 60.8556 86.704 59.5423 86.5961C57.6657 86.4418 55.7539 86.0728 54.0343 85.2794ZM62.4657 70.0885C62.1874 69.7422 61.6497 69.7124 61.2647 70.0219C60.8798 70.3315 60.7934 70.8631 61.0718 71.2094C61.3501 71.5557 61.8878 71.5855 62.2728 71.276C62.6577 70.9665 62.7441 70.4349 62.4657 70.0885ZM57.0504 71.1423C56.7708 70.7969 56.2329 70.7688 55.8492 71.0796C55.4654 71.3903 55.381 71.9223 55.6607 72.2677C55.9403 72.6131 56.4782 72.6412 56.8619 72.3304C57.2457 72.0197 57.3301 71.4877 57.0504 71.1423Z"
                fill="#F6DD6F" />
              <path
                d="M62.4658 70.0887C62.7443 70.435 62.6578 70.9666 62.2729 71.2761C61.8879 71.5857 61.3503 71.5558 61.0719 71.2095C60.7935 70.8632 60.88 70.3316 61.2648 70.0221C61.6498 69.7125 62.1875 69.7424 62.4658 70.0887ZM62.0084 70.4115C62.0084 70.2986 61.9168 70.207 61.8039 70.207C61.691 70.207 61.5993 70.2986 61.5993 70.4115C61.5993 70.5245 61.691 70.6161 61.8039 70.6161C61.9168 70.6161 62.0084 70.5245 62.0084 70.4115Z"
                fill="#4B4948" />
              <path
                d="M61.8039 70.616C61.9169 70.616 62.0084 70.5245 62.0084 70.4115C62.0084 70.2985 61.9169 70.2069 61.8039 70.2069C61.6909 70.2069 61.5994 70.2985 61.5994 70.4115C61.5994 70.5245 61.6909 70.616 61.8039 70.616Z"
                fill="white" />
              <path
                d="M57.0505 71.1422C57.3303 71.4877 57.2458 72.0197 56.8621 72.3304C56.4784 72.6411 55.9405 72.6131 55.6609 72.2677C55.3811 71.9222 55.4656 71.3902 55.8493 71.0795C56.2331 70.7688 56.771 70.7968 57.0505 71.1422ZM56.6198 71.2675C56.5473 71.1749 56.4052 71.1652 56.3025 71.2458C56.1997 71.3262 56.1752 71.4666 56.2478 71.5592C56.3203 71.6517 56.4625 71.6614 56.5652 71.5809C56.668 71.5004 56.6924 71.36 56.6198 71.2675Z"
                fill="#4B4948" />
              <path
                d="M56.5647 71.5807C56.6674 71.5002 56.6918 71.3599 56.6193 71.2673C56.5467 71.1748 56.4047 71.1651 56.302 71.2456C56.1992 71.3262 56.1748 71.4665 56.2473 71.559C56.3199 71.6516 56.462 71.6613 56.5647 71.5807Z"
                fill="white" />
              <path
                d="M42.58 41.2679C41.476 41.2679 41.14 40.7559 41.124 40.0679C41.108 39.3799 41.284 39.1079 42.004 38.5639C43.172 37.6839 44.116 36.9319 44.916 36.0199C45.796 35.0119 46.372 34.1479 46.388 33.0599C46.404 32.0519 45.732 31.4439 44.772 31.3319C44.1 31.2519 43.38 31.5079 42.852 32.0039C42.404 32.4359 41.764 32.4359 41.38 31.9559C41.012 31.5079 41.092 30.8839 41.54 30.4839C42.292 29.8119 43.524 29.2999 45.124 29.3319C47.428 29.3799 49.14 30.5639 49.14 32.8039C49.14 34.3559 47.764 36.0839 46.98 36.8679C46.18 37.6679 45.3 38.4359 44.42 39.0759C44.244 39.2039 44.308 39.3159 44.532 39.3159H48.372C49.06 39.3159 49.428 39.6519 49.428 40.2599C49.428 40.9159 49.06 41.2679 48.372 41.2679H42.58ZM67.1843 32.7559C69.1203 32.7559 70.2563 33.8759 70.2563 35.8119V40.2599C70.2563 41.1079 69.7923 41.5559 68.9123 41.5559C68.0323 41.5559 67.5683 41.1079 67.5683 40.2599V35.7799C67.5683 34.9639 67.1843 34.4839 66.5603 34.4839C65.9523 34.4839 65.4723 34.8839 65.1683 35.6359V40.2599C65.1683 41.1079 64.7043 41.5559 63.8403 41.5559C62.9603 41.5559 62.4963 41.1079 62.4963 40.2599V35.8279C62.4963 34.9799 62.1123 34.5159 61.4723 34.5159C60.8483 34.5159 60.2723 35.1079 60.0163 35.9719V40.2279C60.0163 41.0919 59.5363 41.5559 58.6563 41.5559C57.7763 41.5559 57.2963 41.0919 57.2963 40.2279V34.0519C57.2963 33.2199 57.7923 32.7719 58.6083 32.7719C59.3763 32.7719 59.8723 33.1719 59.8723 33.9719V34.1479C60.2723 33.2359 61.2163 32.7559 62.2723 32.7559C63.3923 32.7559 64.2403 33.1879 64.7203 33.9559C65.2803 33.1879 66.1283 32.7559 67.1843 32.7559ZM59.8883 36.7399L59.9043 36.5639C59.8883 36.6119 59.8883 36.6759 59.8883 36.7399ZM73.8951 31.7799C73.0151 31.7799 72.2791 31.1079 72.2791 30.2439C72.2791 29.3479 72.9991 28.6919 73.8951 28.6919C74.8071 28.6919 75.4471 29.3319 75.4471 30.2439C75.4471 31.1239 74.7911 31.7799 73.8951 31.7799ZM73.8631 41.5559C72.9671 41.5559 72.5031 41.0919 72.5031 40.2279V34.2439C72.5031 33.3799 72.9671 32.9159 73.8631 32.9159C74.7591 32.9159 75.2231 33.3799 75.2231 34.2439V40.2279C75.2231 41.0919 74.7591 41.5559 73.8631 41.5559ZM82.6804 32.7559C84.5844 32.7559 85.7684 33.9719 85.7684 35.9399V40.2279C85.7684 41.0919 85.2884 41.5559 84.4084 41.5559C83.5284 41.5559 83.0484 41.0919 83.0484 40.2279V36.1479C83.0484 35.1399 82.6324 34.5319 81.8964 34.5319C81.1924 34.5319 80.5524 35.1719 80.3444 36.0679V40.2279C80.3444 41.0919 79.8644 41.5559 78.9844 41.5559C78.1044 41.5559 77.6244 41.0919 77.6244 40.2279V34.0039C77.6244 33.2039 78.0724 32.7719 78.8724 32.7719C79.6884 32.7719 80.1364 33.1719 80.1364 33.9879V34.2439C80.6164 33.2679 81.6084 32.7559 82.6804 32.7559ZM94.3871 32.7559C95.2511 32.7559 95.7151 33.2199 95.7151 34.0519V40.3879C95.7151 41.1079 95.2991 41.5559 94.5151 41.5559C93.7471 41.5559 93.3151 41.1239 93.2991 40.4039V40.2439C92.8351 41.0599 91.9231 41.5399 90.7871 41.5399C88.8511 41.5399 87.6831 40.3559 87.6831 38.3719V34.0679C87.6831 33.2199 88.1631 32.7559 89.0431 32.7559C89.9231 32.7559 90.4031 33.2199 90.4031 34.0679V38.0199C90.4031 39.1559 90.7551 39.6999 91.5551 39.6999C92.4351 39.6999 92.9151 38.6439 93.0591 38.0039V34.0519C93.0591 33.2199 93.5391 32.7559 94.3871 32.7559ZM93.1071 37.7159V37.6519V37.7159ZM102.769 39.3959C103.233 39.3959 103.521 39.9559 103.521 40.3559C103.521 41.1879 102.337 41.4279 101.457 41.4279C99.6165 41.4279 98.7845 40.5479 98.7845 38.6439V34.8199H97.8885C97.3765 34.8199 97.0885 34.4679 97.0885 33.9079C97.0885 33.3319 97.3925 32.9959 97.8885 32.9959H98.7845V31.9879C98.7845 31.1239 99.2645 30.6599 100.145 30.6599C101.025 30.6599 101.505 31.1239 101.505 31.9879V32.9959H102.545C103.057 32.9959 103.345 33.3479 103.345 33.9079C103.345 34.4839 103.041 34.8199 102.545 34.8199H101.505V38.6119C101.505 39.2519 101.681 39.5399 101.969 39.5399C102.273 39.5399 102.481 39.3959 102.769 39.3959ZM111.017 39.2199C111.449 38.8999 111.913 38.9319 112.217 39.2839C112.521 39.6199 112.537 40.0839 112.201 40.4519C111.689 41.0279 110.441 41.5559 108.857 41.5559C106.345 41.5559 104.409 40.2919 104.409 37.3479C104.409 34.5159 106.073 32.7399 108.745 32.7399C111.369 32.7399 112.681 34.6919 112.681 36.5799C112.681 37.4919 112.217 37.9719 111.241 37.9719H107.177C107.337 39.2999 107.929 39.7959 109.065 39.8279C109.849 39.8439 110.489 39.6199 111.017 39.2199ZM108.777 34.4199C107.769 34.4199 107.321 35.1079 107.177 36.2119H110.089C110.185 36.2119 110.233 36.1639 110.233 36.0679C110.233 34.9639 109.673 34.4199 108.777 34.4199ZM113.896 39.3319C114.168 38.9959 114.616 38.9319 115.032 39.1879C115.512 39.4759 116.2 39.7639 116.904 39.7639C117.608 39.7639 117.944 39.5879 117.944 39.1719C117.944 38.7719 117.768 38.4999 116.392 37.8919C114.76 37.1719 113.912 36.4999 113.912 35.1879C113.912 33.7479 115.304 32.7559 117.352 32.7559C118.728 32.7559 119.672 33.1879 120.136 33.5879C120.504 33.9079 120.568 34.3879 120.296 34.7559C120.024 35.1239 119.432 35.2199 118.984 34.8999C118.6 34.6279 118.088 34.5319 117.496 34.5319C116.888 34.5319 116.584 34.7559 116.584 35.0919C116.584 35.4759 116.904 35.6679 118.088 36.2119C119.96 37.0599 120.696 37.7639 120.696 39.0279C120.696 40.7559 119.064 41.5559 117.352 41.5559C116.136 41.5559 114.712 41.2519 114.024 40.5639C113.64 40.1799 113.576 39.7159 113.896 39.3319Z"
                fill="#DB5331" />
            </svg>