            <svg width="240" height="222" viewBox="0 0 451 414" fill="none" xmlns="http://www.w3.org/2000/svg">
              <path
                d="M329.596 196.047C333.394 198.187 337.34 198.771 341.423 197.779C384.039 208.338 408.568 243.938 423.663 283.04C434.349 310.73 443.26 338.912 450.405 367.574C450.509 367.968 450.167 368.33 449.768 368.263C403.148 360.125 362.818 339.485 328.779 306.342C329.908 299.784 329.756 288.577 323.246 284.835C322.999 284.7 322.831 284.455 322.78 284.178C322.483 282.499 321.515 281.482 319.855 281.12C319.525 281.045 319.223 280.856 319.002 280.587C306.377 265.015 299.353 246.915 297.93 226.287C297.816 224.628 297.835 223.451 297.981 222.776L299.89 221.044C300.355 220.435 300.987 219.97 301.794 219.627C302.657 235.506 307.162 249.135 315.308 260.516C324.777 273.754 337.172 287.629 352.492 302.121C363.024 312.08 374.416 320.921 386.662 328.664C388.771 329.999 390.958 331.123 393.222 332.036C404.967 339.257 417.402 344.912 430.536 348.99C431.172 349.193 431.408 348.964 431.265 348.312C427.244 331.083 421.001 314.395 412.516 298.251C408.592 290.108 404.586 281.852 400.494 273.465C384.32 240.297 362.024 214.275 328.842 197.499C329.245 197.049 329.492 196.565 329.596 196.047Z"
                fill="#DB5331" />
              <path
                d="M324.038 202.309C330.964 219.255 338.815 235.844 347.594 252.097C347.632 252.164 347.61 252.237 347.553 252.274C347.498 252.321 347.416 252.31 347.37 252.254C335.804 238.064 322.716 225.37 308.104 214.173L309.512 211.919C317.284 213.353 323.506 217.117 328.179 223.232C328.296 223.381 328.501 223.419 328.661 223.32C328.82 223.211 328.878 223.012 328.789 222.84C325.767 216.926 323.492 210.676 321.954 204.091C322.066 203.47 322.764 202.876 324.038 202.309Z"
                fill="#DB5331" />
              <path
                d="M328.842 197.499C362.024 214.275 384.32 240.297 400.494 273.465C404.586 281.852 408.592 290.108 412.516 298.251L416.482 318.869C416.652 319.762 416.312 320.053 415.464 319.753L398.743 313.805C398.449 313.696 398.161 314.001 398.294 314.29L404.963 329.026C405.124 329.383 405.009 329.528 404.629 329.458L386.798 326.278C386.368 326.205 386.128 326.758 386.479 327.023L393.222 332.036C390.958 331.123 388.771 329.999 386.662 328.664C374.416 320.921 363.024 312.08 352.492 302.121C337.172 287.629 324.777 273.754 315.308 260.516C307.162 249.135 302.657 235.506 301.794 219.627L308.104 214.173C322.716 225.37 335.804 238.064 347.37 252.254C347.417 252.31 347.498 252.321 347.553 252.274C347.61 252.237 347.632 252.164 347.594 252.097C338.815 235.844 330.964 219.255 324.038 202.309L328.842 197.499Z"
                fill="#DA6634" />
              <path
                d="M412.516 298.251C421.001 314.395 427.244 331.083 431.265 348.312C431.408 348.964 431.172 349.193 430.536 348.99C417.402 344.912 404.967 339.257 393.222 332.036L386.479 327.023C386.128 326.758 386.368 326.205 386.798 326.278L404.629 329.458C405.009 329.528 405.124 329.383 404.963 329.026L398.294 314.29C398.161 314.001 398.449 313.696 398.743 313.805L415.464 319.753C416.312 320.053 416.652 319.762 416.482 318.869L412.516 298.251Z"
                fill="#F2B13D" />
              <path
                d="M239.774 115.905C245.882 119.611 228.047 134.376 225.306 136.322C214.246 144.164 203.381 148.967 189.451 150.106C184.675 150.497 181.532 148.654 180.02 144.566C179.861 144.131 180.002 143.954 180.463 144.023C204.047 147.454 226.218 135.657 239.028 116.068C239.227 115.774 239.472 115.717 239.774 115.905Z"
                fill="#0C794D" />
              <path
                d="M110.077 196.931C109.87 197.507 109.237 197.789 108.66 197.581L108.272 197.434C106.55 196.79 105.675 194.896 106.31 193.195L109.44 184.797C110.075 183.096 111.981 182.229 113.703 182.873L114.092 183.021C114.658 183.229 114.951 183.871 114.743 184.437L110.077 196.931Z"
                fill="#0C794D" />
              <path
                d="M319.666 164.328C320.062 164.002 320.643 164.068 320.959 164.466L321.684 165.371C322.49 166.378 322.157 167.995 320.937 168.966L313.177 175.173C311.958 176.154 310.315 176.126 309.508 175.119L308.784 174.213C308.468 173.816 308.524 173.236 308.921 172.92L319.666 164.328Z"
                fill="#0C794D" />
              <path
                d="M224.077 259.797C220.9 259.004 217.58 256.023 216.826 252.776C216.765 252.501 216.832 252.202 217.009 251.981C230.012 236.024 256.904 269.412 269.136 248.61C273.28 241.548 272.706 232.606 277.047 225.693C279.792 221.333 287.686 213.44 293.079 218.585C297.517 222.839 291.432 227.824 288.956 231.158C282.745 239.537 279.836 250.366 271.119 256.75C268.44 258.709 264.642 259.846 261.383 261.296C252.19 265.399 233.826 262.222 224.077 259.797Z"
                fill="#0C794D" />
              <path
                d="M303.838 292.226C302.762 291.783 302.771 290.242 303.86 289.809C308.703 287.851 313.647 285.71 318.668 283.37C323.548 281.106 324.928 286.456 320.825 288.01C316.125 289.801 308.776 294.282 303.838 292.226Z"
                fill="#0C794D" />
              <path
                d="M255.53 320.76C255.009 320.063 255.001 319.178 255.506 318.106C255.629 317.861 255.818 317.659 256.064 317.521L271.65 308.942C273.091 308.148 274.65 309.765 273.811 311.177C271.11 315.744 264.582 318.202 261.297 320.328C259.693 321.372 256.961 322.683 255.53 320.76Z"
                fill="#0C794D" />
              <path
                d="M210.714 135.035C183.2 147.371 150.741 134.727 138.204 106.784C125.67 78.8385 137.819 46.1828 165.332 33.8456C192.846 21.5094 225.305 34.1538 237.842 62.0966C250.376 90.0418 238.227 122.698 210.714 135.035ZM234.352 70.1965C224.303 48.1004 196.556 39.0968 172.386 50.0853C148.212 61.0738 136.772 87.9052 146.819 110.006C156.868 132.102 184.615 141.106 208.785 130.117C232.959 119.129 244.399 92.2974 234.352 70.1965Z"
                fill="white" />
              <path
                d="M275.597 153.772C275.099 141.089 265.686 131.462 256.821 121.975C253.841 118.795 250.558 116.514 246.972 115.123C267.276 111.231 281.983 115.721 296.027 130.688C304.373 139.589 311.234 149.51 316.609 160.462C316.777 160.796 316.718 161.074 316.433 161.317L307.789 168.538C307.522 168.759 307.241 168.771 306.957 168.561C297.525 161.572 287.076 156.648 275.597 153.772Z"
                fill="white" />
              <path
                d="M238.589 127.125C239.571 128.987 240.441 130.289 241.196 131.02C246.838 136.409 253.447 143.802 261.005 153.214C263.868 156.789 267.64 158.401 272.311 158.062C284.218 175.803 291.783 195.386 295.024 216.808C295.138 217.56 294.911 217.686 294.351 217.175C285.158 208.902 273.942 224.55 272.265 232.263C269.71 244.099 267.065 257.755 250.634 252.331C241.148 249.192 224.959 240.973 216.051 249.794C215.815 250.031 215.574 250.028 215.327 249.804C200.184 235.623 192.513 220.228 186.549 200.829C191.24 192.448 191.192 185.34 190.985 175.079C190.834 167.308 190.559 159.783 188.21 152.246C207.847 151.216 225.341 141.158 238.589 127.125ZM260.878 161.161C257.846 154.481 249.971 151.535 243.292 154.57L202.457 173.142C195.776 176.176 192.83 184.05 195.866 190.728L206.39 213.868C209.422 220.548 217.297 223.494 223.976 220.459L264.811 201.887C271.492 198.853 274.438 190.979 271.402 184.3L260.878 161.161Z"
                fill="white" />
              <path
                d="M172.864 152.859C172.411 168.032 172.463 186.027 179.78 199.681C159.639 214.612 133.086 213.978 114.35 197.169C114.081 196.927 114.008 196.633 114.121 196.289L117.175 187.124C117.303 186.738 117.577 186.577 117.977 186.643C134.56 189.273 148.245 184.951 159.022 173.659C164.264 168.155 168.677 159.986 172.864 152.859Z"
                fill="white" />
              <path
                d="M90.6153 167.464C91.5143 167.585 91.6016 167.918 90.8784 168.471L88.965 169.902C88.6592 170.137 88.213 170.016 88.0616 169.65L87.5179 168.292C87.34 167.869 87.4824 167.612 87.9352 167.521C88.8119 167.353 89.7053 167.334 90.6153 167.464Z"
                fill="white" />
              <path
                d="M91.251 189.972L96.4797 189.128C96.7966 189.083 96.9577 188.722 96.7766 188.451L96.1214 187.447C95.9646 187.213 96.0097 186.896 96.2206 186.712L99.7989 183.697C100.204 183.36 100.196 183.019 99.7876 182.692L99.0033 182.065C98.7504 181.872 98.3926 181.912 98.2093 182.164C95.4175 185.825 90.0797 187.225 86.7293 183.704C81.8623 178.581 91.6466 166.695 97.5643 169.507C102.728 171.961 106.396 175.899 108.57 181.321C108.695 181.63 108.704 181.981 108.598 182.294L104.292 195.402C104.18 195.746 103.953 195.973 103.614 196.091C92.7202 199.729 79.0677 196.4 75.4479 184.679C74.0607 180.175 74.9507 175.789 78.12 171.542C78.3309 171.267 78.6014 171.076 78.9415 170.968C82.1614 169.975 83.1052 172.577 84.1229 174.939C84.26 175.265 84.2667 175.597 84.142 175.923C82.0023 181.735 83.8034 185.62 89.5651 187.574C89.8998 187.687 90.1163 187.915 90.2246 188.255L90.6557 189.595C90.7496 189.897 90.944 190.016 91.251 189.972Z"
                fill="white" />
              <path
                d="M322.739 183.787C322.036 186.059 320.967 194.529 318.217 195.852C317.931 195.995 317.648 195.986 317.359 195.827C316.308 195.25 315.698 194.462 315.527 193.475C314.65 188.492 313.616 183.546 312.424 178.627C312.33 178.235 312.446 177.921 312.772 177.683L323.632 169.672C323.892 169.482 324.226 169.404 324.553 169.448C334.148 170.945 349.794 181.88 345.661 193.097C344.217 197.031 340.039 197.999 336.205 196.827C329.8 194.874 325.522 190.521 323.373 183.787C323.157 183.117 322.945 183.11 322.739 183.787Z"
                fill="white" />
              <path
                d="M307.22 287C291.575 284.577 277.7 274.37 270.47 260.314C270.292 259.982 270.361 259.702 270.68 259.496C279.5 253.674 283.744 243.723 288.708 235.08C290.437 232.08 292.744 229.489 294.929 226.79C295.185 226.47 295.706 226.633 295.732 227.043C296.879 247.552 303.714 265.828 316.24 281.89C316.579 282.315 316.428 282.945 315.941 283.181L308.151 286.866C307.864 286.998 307.537 287.045 307.22 287Z"
                fill="white" />
              <path
                d="M259.001 314.346C230.41 312.58 212.853 288.023 218.771 260.126C218.83 259.838 219.144 259.682 219.41 259.813C229.324 264.807 244.415 265.329 255.339 265.028C255.609 265.018 255.781 265.301 255.657 265.536C247.254 281.062 251.572 299.96 266.869 309.193C267.269 309.44 267.264 310.035 266.847 310.262L259.874 314.148C259.599 314.299 259.314 314.361 259.001 314.346Z"
                fill="white" />
              <path
                d="M323.814 322.068C320.621 328.27 313.099 326.954 310.037 321.148C306.683 314.79 301.346 296.871 310.973 293.232C315.443 291.537 319.771 289.566 323.958 287.319C324.262 287.154 324.639 287.202 324.888 287.446C332.583 295.102 327.935 314.083 323.814 322.068Z"
                fill="white" />
              <path
                d="M274.872 312.93C281.376 320.195 279.126 334.773 276.526 343.324C275.601 346.395 273.993 349.844 270.788 350.976C258.786 355.231 254.84 330.556 256.285 323.301C256.348 322.962 256.644 322.728 256.985 322.72C261.164 322.748 268.299 317.516 271.997 315.303C272.27 315.142 272.488 314.926 272.671 314.674L273.852 312.993C274.095 312.644 274.585 312.62 274.872 312.93Z"
                fill="white" />
              <path
                d="M234.352 70.1966C244.399 92.2974 232.959 119.129 208.785 130.117C184.615 141.106 156.868 132.102 146.819 110.006C136.772 87.9052 148.212 61.0739 172.386 50.0854C196.556 39.0969 224.303 48.1005 234.352 70.1966ZM225.525 74.8798C229.862 64.858 212.345 50.4085 203.301 56.2958C200.402 58.1784 200.32 61.9607 203.565 63.7223C204.679 64.3327 206.645 65.1802 209.455 66.286C213.611 67.9159 214.986 71.7674 217.29 75.294C219.647 78.9254 223.66 79.1827 225.525 74.8798ZM230.872 88.8368C232.811 87.7121 233.407 85.1201 232.207 83.0383C231.002 80.9609 228.451 80.1885 226.514 81.3067C224.575 82.4314 223.979 85.0233 225.179 87.1052C226.384 89.1826 228.935 89.955 230.872 88.8368Z"
                fill="#5E5E5E" />
              <path
                d="M273.247 111.361L272.106 110.965C267.659 107.446 266.727 103.776 269.33 99.9546C270.515 98.2127 272.162 97.2846 274.251 97.1626C282.483 96.7186 284.851 107.865 277.197 110.599C276.907 110.702 276.608 110.735 276.31 110.678C275.1 110.47 274.079 110.695 273.247 111.361Z"
                fill="#5E5E5E" />
              <path
                d="M246.972 115.123C250.558 116.514 253.841 118.795 256.821 121.975C265.686 131.462 275.099 141.089 275.597 153.772C275.5 155.523 274.411 156.952 272.311 158.062C267.64 158.401 263.868 156.788 261.005 153.213C253.447 143.802 246.838 136.409 241.196 131.02C240.441 130.289 239.571 128.987 238.589 127.125L239.671 125.364C240.991 127.28 242.117 129.167 243.797 130.791C249.989 136.792 255.741 143.174 261.045 149.959C263.204 152.717 269.598 158.907 273.149 154.92C273.373 154.673 273.482 154.389 273.485 154.057C273.577 141.781 261.303 128.971 252.768 120.816C249.873 118.04 246.63 116.841 243.049 117.21C242.592 116.627 242.4 116.085 242.486 115.592C242.555 115.212 242.777 115.037 243.15 115.045L246.972 115.123Z"
                fill="#5E5E5E" />
              <path
                d="M177.902 144.973C172.207 149.763 175.433 176.731 176.548 184.123C177.403 189.814 179.25 194.921 182.09 199.464C182.715 200.471 184.192 200.447 184.792 199.425C187.287 195.172 188.634 190.826 188.834 186.387C189.348 175.01 189.132 163.322 186.248 152.243L188.211 152.246C190.559 159.782 190.834 167.308 190.985 175.079C191.192 185.339 191.24 192.448 186.549 200.829L183.008 202.642C182.285 202.753 182.004 202.844 182.154 202.928L179.78 199.681C172.463 186.027 172.411 168.032 172.864 152.859C172.85 149.027 173.994 145.841 176.307 143.299C176.594 142.985 176.894 142.972 177.208 143.259C177.567 143.591 177.801 144.159 177.902 144.973Z"
                fill="#5E5E5E" />
              <path
                d="M305.529 172.453C308.143 174.335 309.638 176.01 310.032 177.475C311.841 184.226 312.911 189.138 313.252 192.199C313.591 195.24 315.619 198.999 319.221 197.642C321.914 196.617 322.576 192.348 323.283 189.935C323.422 189.467 323.63 189.433 323.897 189.846C325.901 192.933 328.395 195.362 331.39 197.132C331.286 197.646 331.038 198.127 330.635 198.574L325.824 203.356C324.549 203.921 323.85 204.512 323.738 205.128C317.967 205.62 315.39 201.822 312.179 197.742C312.027 197.548 311.8 197.412 311.554 197.369L309.017 196.907C308.719 196.85 308.455 196.919 308.214 197.107L305.305 199.443C303.995 200.505 303.954 202.492 305.233 203.587C308.14 206.101 310.156 209.207 311.283 212.915L309.873 215.154L303.554 220.577C302.747 220.919 302.114 221.382 301.648 221.987C301.58 221.552 301.372 221.313 301.015 221.273C300.465 221.213 299.987 221.437 299.59 221.934C298.365 209.403 295.376 196.927 290.634 184.526L305.529 172.453Z"
                fill="#5E5E5E" />
              <g filter="url(#filter0_d_475_232)">
                <path
                  d="M244.071 103.171L240.85 111.197C240.701 111.575 240.83 111.742 241.237 111.697C251.81 110.499 260.815 108.872 272.106 110.965L273.247 111.361C287.869 115.538 298.815 126.272 308.27 138.712C312.991 145.592 317.396 153.07 321.464 161.139C321.618 161.434 321.632 161.744 321.505 162.05L321.222 162.756C321.089 163.103 321.193 163.494 321.48 163.723C322.449 164.471 322.904 165.486 322.845 166.761C322.823 167.105 323.079 167.419 323.426 167.461C333.84 168.907 341.423 173.747 346.162 181.973C350.052 188.714 349.069 194.337 343.222 198.842C339.136 199.831 335.188 199.254 331.39 197.132C328.395 195.362 325.901 192.933 323.897 189.846C323.63 189.433 323.422 189.467 323.283 189.935C322.576 192.348 321.914 196.617 319.221 197.642C315.619 198.999 313.591 195.24 313.252 192.199C312.911 189.138 311.841 184.226 310.032 177.475C309.638 176.01 308.143 174.335 305.529 172.453C297.036 166.034 287.939 161.422 278.24 158.629C277.575 158.431 277.426 158.629 277.802 159.211C283.069 167.469 287.349 175.907 290.634 184.526C295.376 196.927 298.365 209.403 299.59 221.934C299.274 222.624 299.331 223.221 299.737 223.709C299.591 224.379 299.57 225.549 299.683 227.196C301.09 247.687 308.103 265.661 320.722 281.119C320.943 281.386 321.245 281.574 321.576 281.648C323.235 282.006 324.203 283.015 324.5 284.683C324.55 284.959 324.718 285.201 324.965 285.335C331.476 289.047 331.619 300.18 330.483 306.695C329.194 314.365 326.202 330.586 315.092 327.859C304.674 325.297 301.228 302.488 305.61 294.494C305.786 294.183 305.593 293.802 305.235 293.751C303.498 293.512 302.423 292.535 302.021 290.819C301.916 290.327 301.618 290.008 301.13 289.871C285.745 285.347 274.258 275.991 266.691 261.802C266.525 261.488 266.274 261.395 265.948 261.542C264.204 262.33 262.436 262.809 261.232 264.372C250.459 278.401 255.153 301.483 272.531 307.456C274.006 307.955 274.559 308.679 274.704 310.162C274.731 310.491 274.89 310.745 275.163 310.936C283.92 316.933 280.979 334.245 278.648 343.037C275.928 353.311 266.09 358.573 259.446 347.702C254.795 340.09 253.132 331.666 254.385 322.497C254.573 321.118 254.47 319.741 254.085 318.365C253.999 318.042 253.787 317.855 253.458 317.791C224.22 312.294 206.611 285.005 215.858 256.376C215.971 256.031 215.889 255.748 215.621 255.517C199.371 241.238 188.503 223.613 183.008 202.642L186.549 200.829C192.513 220.228 200.184 235.623 215.327 249.804C215.574 250.028 215.815 250.031 216.051 249.794C224.959 240.973 241.148 249.192 250.634 252.331C267.065 257.755 269.71 244.099 272.265 232.263C273.942 224.55 285.158 208.902 294.351 217.175C294.911 217.686 295.138 217.56 295.024 216.808C291.783 195.386 284.218 175.803 272.311 158.062C274.411 156.952 275.5 155.523 275.597 153.772C287.076 156.649 297.525 161.572 306.957 168.561C307.241 168.771 307.522 168.759 307.789 168.539L316.433 161.317C316.718 161.074 316.777 160.796 316.609 160.462C311.234 149.51 304.373 139.589 296.027 130.688C281.983 115.721 267.276 111.231 246.972 115.123L243.15 115.046C242.777 115.037 242.555 115.212 242.486 115.592C242.4 116.085 242.592 116.627 243.049 117.21C242.753 120.241 241.627 122.963 239.671 125.364L238.589 127.125C225.341 141.158 207.847 151.216 188.211 152.246L186.248 152.243C182.489 151.555 179.703 149.129 177.902 144.973C177.801 144.159 177.567 143.591 177.208 143.259C176.894 142.972 176.594 142.985 176.307 143.299C173.994 145.841 172.85 149.027 172.864 152.859C168.677 159.986 164.265 168.155 159.022 173.659C148.245 184.952 134.56 189.273 117.977 186.643C117.577 186.577 117.303 186.738 117.175 187.125L114.121 196.289C114.008 196.634 114.081 196.927 114.35 197.169C133.086 213.978 159.639 214.613 179.78 199.681L182.154 202.928C160.142 219.577 130.467 217.842 110.438 198.993C110.179 198.75 109.874 198.634 109.525 198.662C108.365 198.721 107.371 198.379 106.541 197.616C106.294 197.382 105.934 197.312 105.606 197.439C95.827 201.154 87.3909 200.212 80.3096 194.632C72.5434 188.504 70.4582 179.268 76.0437 170.878C76.3208 170.475 76.2081 170.276 75.7167 170.291L14.3183 172.089C14.0875 172.094 13.977 171.825 14.1404 171.666C29.1034 157.673 43.7924 143.661 58.2065 129.619C60.249 127.631 62.9154 125.825 61.7262 122.375C61.5947 122.007 61.6708 121.606 61.9103 121.318C62.7284 120.352 63.7862 119.821 65.0959 119.746C65.5067 119.73 65.817 119.897 66.0082 120.258C73.5932 134.516 79.6779 150.299 86.1201 165.137C86.2428 165.425 86.4692 165.561 86.7806 165.557C98.5845 165.027 106.359 170.238 110.603 181.055C110.703 181.325 110.9 181.464 111.183 181.473C112.931 181.54 114.285 181.681 115.234 181.897C132.579 185.851 146.601 181.754 157.312 169.603C163.976 162.039 168.172 151.118 174.912 142.7C175.08 142.49 174.975 142.18 174.715 142.108C146.768 134.475 126.973 108.969 129.369 79.5333C131.709 51.0391 153.648 27.4957 182.742 25.2912C225.624 22.024 255.708 62.8444 244.071 103.171ZM210.714 135.035C238.227 122.698 250.376 90.0419 237.842 62.0967C225.305 34.1538 192.846 21.5095 165.332 33.8457C137.819 46.1828 125.67 78.8386 138.204 106.784C150.741 134.727 183.2 147.371 210.714 135.035ZM26.2136 166.689C25.9597 166.938 26.1387 167.371 26.4998 167.361L78.8318 165.647C79.1034 165.647 79.2823 165.356 79.174 165.106L64.3812 131.396C64.2729 131.147 63.9538 131.082 63.7628 131.264L26.2136 166.689ZM225.306 136.322C228.047 134.376 245.882 119.611 239.774 115.905C239.472 115.717 239.227 115.774 239.028 116.068C226.218 135.657 204.047 147.454 180.463 144.023C180.002 143.954 179.861 144.131 180.02 144.566C181.532 148.654 184.675 150.497 189.451 150.106C203.381 148.967 214.246 144.164 225.306 136.322ZM90.6153 167.464C89.7053 167.334 88.8119 167.353 87.9352 167.521C87.4824 167.612 87.34 167.869 87.5179 168.292L88.0616 169.65C88.213 170.016 88.6592 170.137 88.965 169.902L90.8784 168.471C91.6016 167.918 91.5143 167.585 90.6153 167.464ZM90.6556 189.596L90.2246 188.255C90.1163 187.915 89.8997 187.687 89.5651 187.574C83.8034 185.62 82.0023 181.735 84.1419 175.923C84.2666 175.597 84.2599 175.265 84.1229 174.939C83.1052 172.577 82.1614 169.975 78.9415 170.968C78.6014 171.076 78.3309 171.267 78.12 171.542C74.9507 175.789 74.0607 180.175 75.4478 184.679C79.0677 196.4 92.7201 199.729 103.614 196.091C103.953 195.973 104.18 195.746 104.292 195.402L108.598 182.294C108.704 181.981 108.695 181.63 108.57 181.322C106.396 175.899 102.728 171.961 97.5642 169.507C91.6465 166.695 81.8623 178.581 86.7293 183.704C90.0796 187.225 95.4175 185.825 98.2093 182.164C98.3925 181.912 98.7503 181.872 99.0033 182.065L99.7875 182.692C100.196 183.019 100.204 183.36 99.7988 183.697L96.2206 186.712C96.0097 186.896 95.9645 187.213 96.1214 187.447L96.7765 188.451C96.9577 188.722 96.7966 189.083 96.4796 189.128L91.2509 189.972C90.944 190.016 90.7496 189.897 90.6556 189.596ZM110.077 196.931L114.743 184.437C114.951 183.871 114.658 183.229 114.092 183.021L113.703 182.873C111.981 182.229 110.075 183.096 109.44 184.797L106.31 193.195C105.675 194.895 106.55 196.79 108.272 197.434L108.66 197.581C109.237 197.789 109.87 197.507 110.077 196.931ZM319.666 164.328L308.921 172.92C308.524 173.236 308.468 173.816 308.784 174.213L309.508 175.119C310.315 176.126 311.958 176.154 313.177 175.173L320.937 168.966C322.157 167.995 322.49 166.378 321.684 165.371L320.959 164.466C320.643 164.068 320.062 164.002 319.666 164.328ZM323.373 183.787C325.522 190.521 329.8 194.874 336.205 196.827C340.039 197.999 344.217 197.031 345.661 193.097C349.794 181.88 334.148 170.945 324.553 169.448C324.226 169.404 323.893 169.482 323.632 169.672L312.772 177.683C312.446 177.921 312.331 178.235 312.425 178.627C313.616 183.546 314.65 188.492 315.527 193.475C315.698 194.462 316.309 195.25 317.359 195.827C317.648 195.986 317.931 195.995 318.217 195.852C320.967 194.529 322.036 186.059 322.739 183.787C322.945 183.11 323.157 183.117 323.373 183.787ZM216.826 252.776C217.58 256.023 220.9 259.004 224.077 259.797C233.826 262.222 252.19 265.399 261.383 261.296C264.642 259.846 268.44 258.709 271.119 256.75C279.836 250.366 282.745 239.537 288.956 231.158C291.432 227.824 297.517 222.839 293.079 218.585C287.686 213.44 279.792 221.332 277.047 225.693C272.706 232.606 273.279 241.548 269.136 248.61C256.903 269.412 230.012 236.024 217.009 251.981C216.832 252.202 216.765 252.501 216.826 252.776ZM270.47 260.314C277.7 274.37 291.575 284.577 307.22 287C307.537 287.045 307.864 286.998 308.151 286.866L315.941 283.181C316.428 282.945 316.579 282.315 316.24 281.89C303.714 265.828 297.196 247.144 295.732 227.043C295.706 226.633 295.185 226.47 294.929 226.79C292.744 229.489 290.437 232.08 288.708 235.08C283.745 243.722 279.5 253.674 270.68 259.496C270.361 259.702 270.292 259.982 270.47 260.314ZM218.771 260.126C212.853 288.023 230.41 312.58 259.001 314.346C259.314 314.361 259.599 314.299 259.874 314.148L266.847 310.262C267.264 310.035 267.269 309.44 266.869 309.193C251.572 299.96 247.254 281.062 255.657 265.536C255.781 265.301 255.609 265.018 255.339 265.028C244.415 265.329 229.324 264.807 219.41 259.813C219.144 259.682 218.83 259.838 218.771 260.126ZM303.838 292.226C308.776 294.282 316.125 289.801 320.825 288.01C324.928 286.456 323.548 281.106 318.668 283.37C313.647 285.71 308.703 287.851 303.86 289.809C302.771 290.242 302.762 291.783 303.838 292.226ZM310.037 321.148C313.099 326.954 320.621 328.27 323.814 322.068C327.935 314.083 332.583 295.102 324.888 287.447C324.639 287.203 324.262 287.154 323.958 287.319C319.771 289.566 315.443 291.537 310.973 293.233C301.346 296.871 306.683 314.79 310.037 321.148ZM255.529 320.76C256.961 322.683 259.693 321.372 261.297 320.328C264.582 318.202 271.11 315.744 273.811 311.177C274.65 309.765 273.091 308.148 271.65 308.942L256.064 317.52C255.818 317.659 255.629 317.861 255.506 318.106C255.001 319.178 255.009 320.063 255.529 320.76ZM273.852 312.993L272.671 314.674C272.488 314.926 272.27 315.142 271.997 315.303C268.299 317.516 261.164 322.748 256.985 322.72C256.644 322.728 256.348 322.962 256.285 323.301C254.84 330.556 258.786 355.231 270.788 350.976C273.993 349.844 275.601 346.395 276.526 343.324C279.126 334.773 281.376 320.195 274.872 312.93C274.585 312.62 274.095 312.644 273.852 312.993Z"
                  fill="#0C794D" />
              </g>
              <path
                d="M203.301 56.2959C212.345 50.4085 229.862 64.8581 225.525 74.8798C223.66 79.1828 219.647 78.9255 217.29 75.294C214.986 71.7675 213.611 67.916 209.455 66.286C206.645 65.1803 204.679 64.3327 203.565 63.7223C200.32 61.9607 200.402 58.1784 203.301 56.2959Z"
                fill="#929292" />
              <path
                d="M225.179 87.1053C226.382 89.1847 228.931 89.96 230.871 88.8369C232.812 87.7139 233.41 85.1178 232.207 83.0384C231.004 80.959 228.455 80.1837 226.514 81.3067C224.573 82.4298 223.975 85.0259 225.179 87.1053Z"
                fill="#929292" />
              <path
                d="M243.049 117.21C246.63 116.841 249.873 118.04 252.768 120.816C261.303 128.972 273.577 141.782 273.485 154.057C273.482 154.39 273.373 154.673 273.149 154.92C269.598 158.907 263.204 152.717 261.045 149.959C255.741 143.175 249.989 136.792 243.797 130.791C242.117 129.167 240.991 127.28 239.671 125.364C241.627 122.963 242.753 120.241 243.049 117.21Z"
                fill="#929292" />
              <path
                d="M177.902 144.973C179.703 149.129 182.489 151.555 186.248 152.243C189.132 163.322 189.348 175.01 188.834 186.387C188.634 190.826 187.287 195.172 184.792 199.425C184.192 200.447 182.715 200.471 182.09 199.464C179.25 194.921 177.403 189.814 176.548 184.123C175.433 176.731 172.207 149.763 177.902 144.973Z"
                fill="#929292" />
              <path
                d="M308.27 138.712C298.815 126.272 287.869 115.538 273.247 111.361C274.078 110.695 275.1 110.47 276.31 110.678C276.608 110.735 276.907 110.702 277.197 110.599C284.851 107.865 282.483 96.7185 274.251 97.1625C272.162 97.2846 270.515 98.2126 269.33 99.9545C266.727 103.776 267.659 107.446 272.106 110.965C260.815 108.872 251.81 110.499 241.238 111.697C240.83 111.742 240.701 111.575 240.85 111.196L244.071 103.171C252.926 96.6703 263.037 88.1687 274.945 89.8407C295.848 92.7747 304.134 121.725 308.27 138.712Z"
                fill="#7F7E7F" />
              <path
                d="M305.529 172.453L290.634 184.526C287.349 175.907 283.069 167.469 277.802 159.211C277.426 158.629 277.575 158.431 278.241 158.629C287.939 161.422 297.036 166.034 305.529 172.453Z"
                fill="#7F7E7F" />
              <rect x="185.1" y="177.922" width="78.8801" height="65.3536" rx="25"
                transform="rotate(-27.7533 185.1 177.922)" fill="white" />
              <path d="M65.2329 129.907L81.3659 166.345L25.6338 167.773L65.2329 129.907Z" fill="white" />
              <path
                d="M62.1635 146.622C64.4665 146.85 66.4466 148.092 67.5352 150.164C68.5413 152.079 68.7433 154.324 67.5557 156.212C66.7846 157.438 65.6462 158.274 64.3797 158.952C63.9581 159.177 63.3863 159.464 62.6646 159.81C62.5318 159.874 62.4078 159.929 62.2925 159.975C61.5548 160.269 60.7978 160.502 60.0217 160.673C57.3959 161.253 54.541 160.892 52.8606 158.543C52.4268 157.936 52.1128 157.232 51.9278 156.509C51.3434 154.228 51.913 151.729 53.3976 149.915C54.12 149.031 55.0508 148.361 56.118 147.917C56.9598 147.567 57.8225 147.249 58.6993 146.998C59.7037 146.71 60.7287 146.54 61.7763 146.586C61.7844 146.586 61.7877 146.582 61.7863 146.574C61.5975 145.501 61.88 144.293 63.088 143.972C63.2641 143.925 63.3525 143.901 63.3528 143.901C64.1947 143.616 64.5125 142.749 64.4715 141.933C64.4711 141.926 64.4689 141.92 64.4647 141.914C64.0586 141.394 63.4075 141.141 62.783 141.003C61.9694 140.824 61.1366 140.78 60.3088 140.71C59.8993 140.676 59.5113 140.486 59.5786 139.997C59.6539 139.449 60.2465 139.105 60.7365 139.012C60.9284 138.975 61.1061 138.961 61.3079 138.968C62.7221 139.022 63.9859 139.596 64.5429 140.987C64.5446 140.992 64.5512 140.992 64.5527 140.987C64.937 139.807 65.8442 138.522 67.1194 138.252C67.548 138.161 68.1047 138.226 68.3998 138.59C68.5733 138.804 68.6051 139.078 68.4161 139.298C68.3339 139.393 68.2115 139.465 68.0824 139.528C67.1443 139.984 66.0962 140.385 65.3612 141.154C65.2088 141.314 64.9227 141.707 64.9352 141.939C64.9908 142.964 64.5048 144.023 63.4666 144.351C63.3383 144.391 63.1395 144.434 63.0071 144.488C62.1877 144.827 62.1102 145.831 62.2579 146.576C62.2591 146.582 62.2549 146.588 62.2485 146.59L62.1627 146.607C62.1592 146.608 62.1567 146.611 62.1568 146.615C62.157 146.619 62.16 146.621 62.1635 146.622ZM58.4638 150.261C58.2337 150.019 57.8288 150.03 57.5598 150.286C57.2906 150.541 57.2592 150.945 57.4894 151.188C57.7195 151.43 58.1245 151.419 58.3934 151.163C58.6626 150.907 58.694 150.503 58.4638 150.261ZM62.4609 149.146C62.2308 148.904 61.8259 148.915 61.5568 149.171C61.2876 149.427 61.256 149.831 61.4862 150.073C61.7163 150.315 62.1212 150.304 62.3904 150.048C62.6595 149.792 62.6912 149.389 62.4609 149.146Z"
                fill="#B9D27E" />
              <path
                d="M58.4638 150.261C58.694 150.503 58.6626 150.907 58.3934 151.163C58.1245 151.419 57.7196 151.43 57.4894 151.188C57.2592 150.945 57.2906 150.541 57.5598 150.286C57.8288 150.03 58.2337 150.019 58.4638 150.261ZM58.1499 150.379C58.0895 150.313 57.9816 150.315 57.909 150.382C57.8362 150.449 57.8261 150.557 57.8865 150.622C57.9469 150.687 58.0548 150.686 58.1274 150.619C58.2001 150.552 58.2103 150.444 58.1499 150.379Z"
                fill="#4B4948" />
              <path
                d="M58.1274 150.619C58.2001 150.551 58.2102 150.444 58.1498 150.379C58.0895 150.313 57.9817 150.315 57.9089 150.382C57.8362 150.45 57.8261 150.557 57.8864 150.622C57.9468 150.688 58.0546 150.686 58.1274 150.619Z"
                fill="white" />
              <path
                d="M62.461 149.146C62.6912 149.388 62.6596 149.792 62.3904 150.048C62.1213 150.304 61.7164 150.315 61.4862 150.073C61.256 149.831 61.2876 149.427 61.5568 149.171C61.8259 148.915 62.2308 148.904 62.461 149.146ZM62.1256 149.363C62.0887 149.286 61.9962 149.253 61.9192 149.29C61.8421 149.327 61.8095 149.419 61.8463 149.496C61.8832 149.573 61.9757 149.606 62.0527 149.569C62.1298 149.532 62.1624 149.44 62.1256 149.363Z"
                fill="#4B4948" />
              <path
                d="M62.0527 149.569C62.1298 149.532 62.1624 149.44 62.1256 149.363C62.0887 149.286 61.9963 149.253 61.9192 149.29C61.8421 149.327 61.8094 149.419 61.8463 149.496C61.8832 149.573 61.9756 149.606 62.0527 149.569Z"
                fill="white" />
              <path
                d="M59.9078 163.001C60.2688 162.921 60.4836 163.065 60.5186 163.361C60.556 163.675 60.3726 163.876 60.0419 163.908C59.4128 163.969 58.7812 163.872 58.2671 163.659L58.6629 164.487C58.7845 164.741 58.6844 164.936 58.3975 165.073C58.1106 165.21 57.8967 165.166 57.7751 164.911L57.4258 164.181C57.1741 164.753 56.7249 165.413 56.1482 165.848C56.0364 165.948 55.9265 165.941 55.8314 165.854C55.7338 165.761 55.7357 165.653 55.8291 165.529C56.2672 165.04 56.5773 164.506 56.7514 163.924L55.5929 164.478C55.4467 164.548 55.3241 164.5 55.2491 164.343C55.1741 164.186 55.2139 164.061 55.3601 163.991L56.9679 163.222L56.9058 163.092C56.8049 162.881 56.8696 162.711 57.041 162.582C57.0118 162.563 56.9746 162.541 56.9457 162.508C56.7928 162.355 56.613 162.202 56.4808 162.092C56.457 162.07 56.4358 162.053 56.4201 162.034C56.1113 162.195 55.7864 162.351 55.4807 162.49C55.7193 162.502 56.0078 162.577 56.2342 162.675C56.5086 162.79 56.5886 162.971 56.4527 163.216C56.3197 163.452 56.1147 163.51 55.8714 163.307C55.6968 163.165 55.4848 163.013 55.3149 162.908C55.1928 162.834 55.1516 162.734 55.1938 162.627L55.1994 162.611C55.1128 162.653 55.0236 162.689 54.9398 162.722C54.7777 162.786 54.6845 162.744 54.625 162.62C54.5681 162.501 54.602 162.405 54.751 162.327C55.6583 161.86 56.4501 161.402 57.16 160.869C57.0122 160.88 56.893 160.798 56.8047 160.627L55.8953 161.062L55.9237 161.121C56.0505 161.386 55.9613 161.575 55.696 161.702C55.4308 161.829 55.2277 161.78 55.1009 161.514L55.0724 161.455L54.2117 161.866C54.0547 161.941 53.9241 161.891 53.8517 161.739C53.7766 161.582 53.827 161.465 53.984 161.39L54.8447 160.979L54.8318 160.951C54.705 160.686 54.8268 160.482 55.0595 160.37C55.3248 160.244 55.5279 160.293 55.6547 160.558L55.6676 160.585L56.5771 160.151L56.5667 160.129C56.4373 159.858 56.5537 159.656 56.7973 159.54C57.0679 159.411 57.271 159.46 57.4004 159.73L57.4107 159.752L58.3148 159.32C58.461 159.25 58.5944 159.293 58.6694 159.45C58.7393 159.596 58.6886 159.727 58.5425 159.796L57.6384 160.229C57.6744 160.318 57.6892 160.39 57.6826 160.46L57.9171 160.255C58.1026 160.086 58.3282 160.072 58.4941 160.252C58.6626 160.437 58.6802 160.655 58.4462 160.833C58.4163 160.854 58.3864 160.875 58.3537 160.904C58.3887 160.894 58.429 160.895 58.4692 160.895C58.7561 160.911 58.865 161.125 58.8063 161.406C58.7248 161.764 58.5932 162.073 58.4008 162.325C58.3184 162.431 58.2344 162.477 58.117 162.44C57.9996 162.403 57.9316 162.303 57.9608 162.169C58.0103 161.953 58.0261 161.666 58.0182 161.357C58.0147 161.252 58.035 161.17 58.0738 161.098C57.7643 161.299 57.3846 161.52 56.9727 161.744C57.1116 161.784 57.2447 161.84 57.3723 161.912C57.5928 162.039 57.6351 162.225 57.5105 162.438C57.631 162.453 57.7263 162.527 57.7936 162.668L57.8557 162.798L59.4797 162.022C59.6259 161.952 59.7485 162 59.8235 162.157C59.8985 162.314 59.8587 162.439 59.7126 162.509L58.3917 163.14C58.8287 163.164 59.3312 163.13 59.9078 163.001ZM65.5378 160.31C65.8988 160.231 66.1137 160.374 66.1487 160.67C66.186 160.985 66.0026 161.185 65.6719 161.217C65.0429 161.278 64.4112 161.181 63.8971 160.968L64.2929 161.796C64.4145 162.051 64.3145 162.245 64.0276 162.382C63.7406 162.519 63.5267 162.475 63.4051 162.221L63.0558 161.49C62.8041 162.062 62.3549 162.722 61.7782 163.158C61.6664 163.258 61.5565 163.25 61.4614 163.163C61.3638 163.07 61.3657 162.962 61.4592 162.838C61.8973 162.349 62.2074 161.815 62.3814 161.233L61.2229 161.787C61.0768 161.857 60.9542 161.809 60.8791 161.652C60.8041 161.495 60.8439 161.37 60.9901 161.3L62.5979 160.532L62.5358 160.402C62.4349 160.19 62.4996 160.02 62.671 159.891C62.6418 159.872 62.6047 159.85 62.5757 159.817C62.4228 159.664 62.243 159.511 62.1108 159.401C62.087 159.379 62.0659 159.363 62.0501 159.344C61.7413 159.505 61.4165 159.66 61.1107 159.799C61.3494 159.812 61.6379 159.886 61.8642 159.984C62.1386 160.099 62.2186 160.281 62.0827 160.525C61.9497 160.762 61.7447 160.82 61.5014 160.617C61.3268 160.474 61.1148 160.323 60.9449 160.218C60.8228 160.143 60.7817 160.043 60.8238 159.936L60.8295 159.92C60.7429 159.962 60.6537 159.998 60.5699 160.031C60.4077 160.095 60.3145 160.053 60.255 159.929C60.1981 159.81 60.232 159.714 60.381 159.636C61.2883 159.169 62.0801 158.711 62.7901 158.179C62.6423 158.189 62.523 158.107 62.4348 157.936L61.5253 158.371L61.5538 158.43C61.6805 158.696 61.5913 158.885 61.326 159.011C61.0608 159.138 60.8577 159.089 60.7309 158.824L60.7025 158.764L59.8417 159.175C59.6847 159.251 59.5541 159.2 59.4817 159.048C59.4066 158.891 59.457 158.774 59.614 158.699L60.4748 158.288L60.4618 158.261C60.3351 157.995 60.4568 157.791 60.6896 157.68C60.9548 157.553 61.1579 157.602 61.2847 157.867L61.2976 157.894L62.2071 157.46L62.1967 157.438C62.0674 157.167 62.1837 156.966 62.4273 156.849C62.698 156.72 62.9011 156.769 63.0304 157.04L63.0408 157.061L63.9448 156.629C64.091 156.559 64.2244 156.602 64.2994 156.759C64.3693 156.905 64.3187 157.036 64.1725 157.106L63.2685 157.538C63.3044 157.627 63.3192 157.7 63.3126 157.769L63.5471 157.564C63.7326 157.396 63.9583 157.381 64.1241 157.561C64.2926 157.746 64.3102 157.964 64.0762 158.143C64.0463 158.163 64.0164 158.184 63.9837 158.213C64.0188 158.203 64.059 158.204 64.0993 158.205C64.3861 158.22 64.495 158.434 64.4364 158.715C64.3548 159.073 64.2232 159.382 64.0309 159.634C63.9485 159.74 63.8644 159.787 63.747 159.75C63.6296 159.713 63.5616 159.612 63.5908 159.478C63.6403 159.262 63.6561 158.975 63.6482 158.666C63.6447 158.562 63.665 158.479 63.7038 158.407C63.3943 158.608 63.0147 158.829 62.6027 159.053C62.7416 159.093 62.8748 159.149 63.0023 159.221C63.2228 159.348 63.2651 159.534 63.1406 159.747C63.261 159.762 63.3563 159.837 63.4236 159.977L63.4857 160.107L65.1097 159.331C65.2559 159.261 65.3785 159.309 65.4535 159.466C65.5286 159.623 65.4888 159.748 65.3426 159.818L64.0217 160.45C64.4587 160.473 64.9612 160.439 65.5378 160.31ZM70.5258 155.845C70.6936 155.765 70.8322 155.818 70.9202 156.002C71.0082 156.186 70.9627 156.328 70.7949 156.408L69.0951 157.22L69.7548 158.601C70.1585 159.445 69.4466 160.085 68.1207 160.093C67.9732 160.091 67.8939 160.022 67.8614 159.885C67.8342 159.758 67.8949 159.662 68.0517 159.601C68.8274 159.29 68.9117 159.23 68.7539 158.899L68.1639 157.665L66.3721 158.522C66.2043 158.602 66.0657 158.548 65.9777 158.364C65.8897 158.18 65.9352 158.039 66.103 157.959L67.8949 157.102L67.6439 156.577C67.499 156.274 67.589 156.045 67.8921 155.9C68.0004 155.848 68.1028 155.826 68.1967 155.827C68.2946 155.601 68.3905 155.342 68.468 155.059C68.4826 154.992 68.4379 154.941 68.3838 154.967L65.8069 156.198C65.6445 156.276 65.5088 156.214 65.4337 156.057C65.3587 155.9 65.4119 155.775 65.5689 155.7L68.3081 154.391C68.5532 154.041 68.9168 153.967 69.1726 154.071C69.4524 154.183 69.5841 154.473 69.46 154.811C69.2879 155.286 69.0058 155.753 68.6138 156.213L68.826 156.657L70.5258 155.845Z"
                fill="#4D886C" />
              <path
                d="M207.281 187.058C207.209 187.094 207.175 187.166 207.219 187.252L208.502 189.74L211.318 188.288C211.815 188.032 212.232 188.177 212.503 188.703C212.775 189.229 212.651 189.653 212.153 189.909L209.338 191.361L211.171 194.917C211.589 195.727 211.354 196.388 210.586 196.784C209.804 197.188 209.143 196.988 208.725 196.178L204.479 187.944C204.091 187.19 204.283 186.551 205.023 186.17L209.573 183.823C210.071 183.567 210.488 183.712 210.759 184.238C211.03 184.764 210.907 185.188 210.409 185.444L207.281 187.058ZM219 183.732C219.662 183.968 220.205 184.498 220.63 185.322L222.581 189.105C222.977 189.873 222.891 190.439 222.151 190.821C221.398 191.209 220.844 190.973 220.448 190.205L220.426 190.162C220.382 191.229 219.705 192.082 218.582 192.661C217.075 193.439 215.696 193.033 214.97 191.626C214.097 189.933 215.133 188.067 217.522 186.835C217.806 186.688 218.112 186.549 218.312 186.482L218.246 186.354C217.879 185.643 217.261 185.421 216.493 185.782C215.866 186.069 215.352 186.676 215.112 187.538C214.961 188.084 214.493 188.397 213.976 188.268C213.452 188.16 213.168 187.712 213.282 187.131C213.471 186.242 214.25 184.994 215.743 184.224C217.066 183.542 218.059 183.408 219 183.732ZM219.462 188.643L219.088 187.918C218.889 187.985 218.561 188.117 218.298 188.271C216.97 189.046 216.772 189.814 217.086 190.354C217.364 190.823 217.809 190.953 218.392 190.653C219.061 190.308 219.487 189.494 219.462 188.643ZM223.633 187.554C223.72 187.131 224.089 186.869 224.576 186.906C225.135 186.942 225.878 186.882 226.504 186.56C227.13 186.237 227.348 185.927 227.157 185.557C226.974 185.201 226.693 185.04 225.191 185.131C223.411 185.239 222.349 185.03 221.748 183.864C221.088 182.584 221.87 181.064 223.69 180.126C224.913 179.495 225.95 179.447 226.546 179.589C227.02 179.705 227.297 180.102 227.224 180.554C227.151 181.006 226.668 181.363 226.124 181.283C225.658 181.218 225.159 181.367 224.632 181.638C224.092 181.917 223.924 182.255 224.078 182.554C224.254 182.895 224.627 182.919 225.929 182.86C227.981 182.756 228.958 183.044 229.537 184.168C230.329 185.704 229.245 187.163 227.724 187.947C226.643 188.505 225.238 188.887 224.311 188.591C223.794 188.425 223.524 188.042 223.633 187.554ZM235.353 181.583C235.766 181.37 236.278 181.736 236.462 182.091C236.843 182.831 235.901 183.587 235.119 183.99C233.483 184.833 232.34 184.432 231.468 182.74L229.715 179.341L228.919 179.752C228.464 179.987 228.046 179.806 227.79 179.308C227.526 178.796 227.642 178.358 228.083 178.131L228.879 177.72L228.417 176.824C228.021 176.056 228.235 175.424 229.017 175.021C229.799 174.617 230.439 174.81 230.835 175.578L231.297 176.474L232.221 175.997C232.676 175.762 233.093 175.943 233.35 176.441C233.614 176.953 233.498 177.391 233.057 177.618L232.133 178.095L233.871 181.465C234.164 182.034 234.452 182.209 234.708 182.077C234.978 181.938 235.097 181.715 235.353 181.583ZM242.604 177.646C242.841 177.163 243.268 176.979 243.7 177.153C244.124 177.312 244.351 177.717 244.221 178.198C244.03 178.945 243.163 179.986 241.755 180.712C239.522 181.863 237.222 181.627 235.873 179.01C234.575 176.493 235.24 174.152 237.615 172.928C239.947 171.725 242.008 172.859 242.873 174.537C243.291 175.347 243.099 175.986 242.231 176.434L238.619 178.296C239.37 179.403 240.123 179.573 241.148 179.081C241.852 178.736 242.318 178.243 242.604 177.646ZM238.413 174.406C237.517 174.868 237.435 175.685 237.813 176.732L240.401 175.397C240.486 175.353 240.507 175.289 240.463 175.203C239.957 174.222 239.21 173.995 238.413 174.406ZM245.214 176.426C245.301 176.003 245.67 175.741 246.157 175.777C246.716 175.813 247.459 175.754 248.085 175.431C248.711 175.109 248.929 174.798 248.738 174.429C248.555 174.073 248.274 173.912 246.772 174.002C244.992 174.11 243.93 173.902 243.329 172.736C242.669 171.456 243.451 169.936 245.271 168.997C246.494 168.367 247.531 168.318 248.127 168.461C248.601 168.577 248.878 168.974 248.805 169.426C248.731 169.877 248.249 170.234 247.704 170.155C247.239 170.089 246.739 170.239 246.213 170.51C245.673 170.789 245.505 171.127 245.659 171.426C245.835 171.767 246.208 171.791 247.509 171.732C249.562 171.627 250.539 171.916 251.118 173.039C251.91 174.575 250.826 176.034 249.305 176.819C248.224 177.376 246.819 177.758 245.892 177.462C245.375 177.297 245.105 176.914 245.214 176.426ZM256.934 170.454C257.347 170.241 257.859 170.607 258.043 170.963C258.424 171.702 257.482 172.458 256.699 172.861C255.064 173.705 253.921 173.304 253.049 171.612L251.296 168.213L250.5 168.624C250.045 168.858 249.627 168.677 249.371 168.18C249.107 167.668 249.223 167.23 249.664 167.002L250.46 166.592L249.998 165.696C249.602 164.928 249.816 164.296 250.598 163.892C251.38 163.489 252.02 163.681 252.416 164.449L252.878 165.345L253.802 164.869C254.257 164.634 254.674 164.815 254.931 165.312C255.195 165.824 255.079 166.262 254.638 166.49L253.714 166.966L255.452 170.337C255.745 170.905 256.033 171.081 256.289 170.949C256.559 170.809 256.678 170.586 256.934 170.454ZM219.556 214.643C218.674 215.098 217.534 215.47 216.732 215.416C216.173 215.38 215.716 214.913 215.702 214.362C215.696 213.861 216.085 213.463 216.571 213.428C217.093 213.393 217.808 213.349 218.348 213.07C219.458 212.498 220.084 211.617 219.57 210.622C218.918 209.356 218.051 209.317 216.309 210.161C215.803 210.404 215.372 210.266 215.116 209.768C214.874 209.299 214.989 208.825 215.501 208.561C217.023 207.777 217.456 206.905 216.972 205.967C216.503 205.057 215.779 204.98 214.812 205.479C214.3 205.743 213.963 206.24 213.768 206.665C213.552 207.154 212.883 207.499 212.313 207.127C211.823 206.804 211.73 206.24 212.031 205.671C212.45 204.878 213.485 204.057 214.281 203.646C216.187 202.663 218.255 202.695 219.208 204.544C219.788 205.667 219.46 206.916 218.348 207.903C220.066 207.36 221.418 207.851 222.144 209.259C223.17 211.249 222.172 213.294 219.556 214.643ZM231.212 198.75C232.805 197.928 234.386 198.517 235.274 200.238L237.268 204.106C237.657 204.859 237.449 205.434 236.667 205.838C235.885 206.241 235.296 206.077 234.908 205.323L232.964 201.555C232.554 200.758 232.007 200.5 231.367 200.83C230.698 201.175 230.484 201.807 230.588 202.672L232.575 206.526C232.964 207.279 232.728 207.869 231.946 208.272C231.164 208.676 230.547 208.526 230.158 207.772L225.502 198.742C225.106 197.974 225.32 197.378 226.116 196.967C226.913 196.556 227.523 196.728 227.919 197.496L229.65 200.852C229.746 199.956 230.274 199.234 231.212 198.75ZM243.086 202.546C240.569 203.844 238.47 203.018 237.157 200.473C235.969 198.169 236.799 195.869 239.146 194.659C241.463 193.463 243.698 194.166 244.907 196.476C246.263 199.071 245.504 201.299 243.086 202.546ZM242.301 200.953C243.268 200.418 243.327 199.487 242.455 197.795C241.663 196.259 240.869 195.732 239.881 196.26C238.921 196.773 238.855 197.725 239.653 199.239C240.496 200.839 241.292 201.509 242.301 200.953ZM250.31 188.902C251.078 188.506 251.703 188.705 252.084 189.445L254.988 195.076C255.318 195.716 255.154 196.305 254.457 196.664C253.774 197.016 253.192 196.83 252.848 196.198L252.775 196.056C252.736 196.993 252.146 197.838 251.136 198.359C249.416 199.246 247.835 198.729 246.926 196.966L244.953 193.14C244.564 192.387 244.778 191.754 245.56 191.351C246.342 190.948 246.982 191.14 247.37 191.894L249.182 195.406C249.702 196.416 250.265 196.738 250.976 196.371C251.758 195.968 251.7 194.809 251.535 194.175L249.724 190.662C249.342 189.923 249.556 189.29 250.31 188.902ZM251.446 193.897L251.416 193.84L251.446 193.897ZM259.138 185.43C259.612 186.175 259.239 186.673 258.586 187.118C257.884 187.606 257.554 188.712 257.825 189.761L259.343 192.705C259.754 193.501 259.446 194.092 258.664 194.495C257.882 194.898 257.329 194.733 256.925 193.951L253.985 188.249C253.633 187.566 253.934 187.033 254.631 186.674C255.285 186.336 255.888 186.458 256.247 187.154L256.592 187.823C256.282 186.488 256.701 185.66 257.525 185.199C258.158 184.855 258.751 184.819 259.138 185.43ZM262.511 190.009C262.599 189.586 262.968 189.323 263.455 189.36C264.013 189.396 264.757 189.337 265.382 189.014C266.008 188.692 266.226 188.381 266.035 188.011C265.852 187.656 265.571 187.495 264.069 187.585C262.289 187.693 261.227 187.485 260.626 186.318C259.966 185.039 260.748 183.519 262.569 182.58C263.792 181.95 264.829 181.901 265.424 182.044C265.898 182.16 266.175 182.557 266.102 183.009C266.029 183.46 265.547 183.817 265.002 183.738C264.536 183.672 264.037 183.821 263.511 184.093C262.97 184.371 262.803 184.71 262.957 185.009C263.133 185.35 263.505 185.374 264.807 185.315C266.859 185.21 267.836 185.499 268.415 186.622C269.207 188.158 268.123 189.617 266.602 190.402C265.521 190.959 264.116 191.341 263.189 191.045C262.672 190.88 262.402 190.497 262.511 190.009Z"
                fill="#DB5331" />
              <defs>
                <filter id="filter0_d_475_232" x="10.0626" y="25.1073" width="342.429" height="336.612"
                  filterUnits="userSpaceOnUse" color-interpolation-filters="sRGB">
                  <feFlood flood-opacity="0" result="BackgroundImageFix" />
                  <feColorMatrix in="SourceAlpha" type="matrix" values="0 0 0 0 0 0 0 0 0 0 0 0 0 0 0 0 0 0 127 0"
                    result="hardAlpha" />
                  <feOffset dy="4" />
                  <feGaussianBlur stdDeviation="2" />
                  <feComposite in2="hardAlpha" operator="out" />
                  <feColorMatrix type="matrix" values="0 0 0 0 0 0 0 0 0 0 0 0 0 0 0 0 0 0 0.25 0" />
                  <feBlend mode="normal" in2="BackgroundImageFix" result="effect1_dropShadow_475_232" />
                  <feBlend mode="normal" in="SourceGraphic" in2="effect1_dropShadow_475_232" result="shape" />
                </filter>
              </defs>
            </svg>