            <svg width="240" height="222" viewBox="0 0 373 222" fill="none" xmlns="http://www.w3.org/2000/svg">
              <rect width="275" height="87" rx="43.5" fill="#0C794D" />
              <path
                d="M55.872 36.844C55.232 36.844 54.848 36.46 54.848 35.788C54.848 35.116 55.232 34.764 55.872 34.764H66.528V29.868C66.528 28.876 67.072 28.332 68.032 28.332C68.992 28.332 69.536 28.876 69.536 29.868V34.764H80.096C80.736 34.764 81.12 35.116 81.12 35.788C81.12 36.46 80.736 36.844 80.096 36.844H55.872ZM80.96 54.7C81.664 54.7 82.08 55.084 82.08 55.788C82.08 56.46 81.664 56.844 80.96 56.844H55.04C54.336 56.844 53.92 56.492 53.92 55.788C53.92 55.084 54.336 54.7 55.04 54.7H70.336C71.456 50.316 72.512 44.78 73.12 40.268C73.312 38.956 74.112 38.476 75.2 38.636C76.32 38.796 76.928 39.436 76.672 40.844C75.808 45.324 74.24 50.668 72.416 54.7H80.96ZM59.52 38.956C60.032 38.764 60.448 38.988 60.704 39.468C62.56 42.892 64.096 47.212 65.12 51.276C65.44 52.524 65.024 53.324 63.776 53.612C62.592 53.9 61.824 53.292 61.632 52.076C60.96 48.172 60.064 43.884 59.04 40.076C58.912 39.532 59.072 39.148 59.52 38.956ZM111.52 29.772C112.544 29.772 113.12 30.348 113.12 31.372V49.1C113.12 52.524 110.112 52.908 106.176 51.18C105.76 50.988 105.664 50.572 105.76 50.188C105.824 49.804 106.176 49.644 106.656 49.708C109.984 50.124 110.304 49.868 110.304 48.46V31.916C110.304 31.692 110.144 31.532 109.92 31.532H105.344C105.12 31.532 104.96 31.692 104.96 31.916V56.972C104.96 57.9 104.448 58.412 103.52 58.412C102.592 58.412 102.08 57.9 102.08 56.972V31.372C102.08 30.348 102.656 29.772 103.68 29.772H111.52ZM96.032 46.22C97.76 48.204 99.456 51.084 100.512 53.516C100.928 54.508 100.704 55.244 99.744 55.66C98.784 56.044 98.08 55.692 97.728 54.604C97.472 53.836 97.216 53.036 96.896 52.204C94.272 53.708 90.88 55.084 88 56.076C87.04 56.396 86.24 56.14 85.952 55.148C85.696 54.188 85.952 53.452 87.104 53.196L88.064 53.004V31.82C88.064 30.796 88.64 30.22 89.664 30.22H98.304C99.328 30.22 99.904 30.796 99.904 31.82V42.828C99.904 43.852 99.328 44.428 98.304 44.428H90.944V52.3C92.672 51.852 94.496 51.308 96.32 50.668C95.808 49.356 95.264 48.108 94.784 47.084C94.56 46.636 94.656 46.284 95.008 46.028C95.36 45.772 95.712 45.836 96.032 46.22ZM90.944 32.364V36.428H97.088V32.364C97.088 32.14 96.928 31.98 96.704 31.98H91.328C91.104 31.98 90.944 32.14 90.944 32.364ZM90.944 38.124V42.668H96.704C96.928 42.668 97.088 42.508 97.088 42.284V38.124H90.944ZM130.304 33.964C130.88 33.964 131.2 34.284 131.2 34.86C131.2 35.436 130.88 35.756 130.304 35.756H118.4C117.824 35.756 117.504 35.436 117.504 34.86C117.504 34.284 117.824 33.964 118.4 33.964H123.008V29.996C123.008 29.1 123.52 28.588 124.416 28.588C125.312 28.588 125.824 29.1 125.824 29.996V33.964H130.304ZM145.76 31.02C146.336 31.02 146.656 31.34 146.656 31.948C146.656 32.588 146.336 32.94 145.76 32.94H140.512V55.212C140.512 58.092 137.28 59.18 132.384 56.972C131.872 56.748 131.712 56.332 131.84 55.884C132 55.404 132.352 55.244 132.928 55.34C137.024 55.948 137.568 55.852 137.568 53.964V32.94H130.592C130.016 32.94 129.696 32.556 129.696 31.948C129.696 31.34 130.016 31.02 130.592 31.02H145.76ZM128.928 38.508C129.472 38.508 129.824 38.828 129.824 39.404C129.824 39.948 129.472 40.3 128.928 40.3H119.776C119.2 40.3 118.88 39.948 118.88 39.404C118.88 38.828 119.2 38.508 119.776 38.508H128.928ZM128.928 42.828C129.472 42.828 129.824 43.18 129.824 43.724C129.824 44.3 129.472 44.62 128.928 44.62H119.776C119.2 44.62 118.88 44.3 118.88 43.724C118.88 43.18 119.2 42.828 119.776 42.828H128.928ZM128 47.34C129.024 47.34 129.6 47.916 129.6 48.94V56.94C129.6 57.836 129.12 58.316 128.224 58.316C127.328 58.316 126.848 57.836 126.848 56.94V55.884H121.792V57.004C121.792 57.9 121.312 58.38 120.416 58.38C119.52 58.38 119.04 57.9 119.04 57.004V48.94C119.04 47.916 119.616 47.34 120.64 47.34H128ZM121.792 54.124H126.848V49.484C126.848 49.26 126.688 49.1 126.464 49.1H122.176C121.952 49.1 121.792 49.26 121.792 49.484V54.124ZM177.504 49.996C178.112 49.996 178.4 50.316 178.4 50.86C178.4 51.436 178.112 51.756 177.504 51.756H176V55.052C176 58.252 173.248 58.764 169.664 57.228C169.12 57.004 169.024 56.62 169.152 56.204C169.28 55.788 169.6 55.66 170.112 55.724C172.864 56.076 173.312 56.012 173.312 54.636V51.756H164.224V56.876C164.224 57.74 163.744 58.22 162.88 58.22C162.016 58.22 161.536 57.74 161.536 56.876V51.756H159.872C159.296 51.756 158.976 51.404 158.976 50.86C158.976 50.316 159.296 49.996 159.872 49.996H161.536V43.916C161.536 42.892 162.112 42.316 163.136 42.316H167.392V40.556H161.024C160.448 40.556 160.128 40.204 160.128 39.66C160.128 39.116 160.448 38.796 161.024 38.796H164.512V36.908H162.016C161.44 36.908 161.12 36.556 161.12 36.012C161.12 35.468 161.44 35.148 162.016 35.148H164.512V33.356H161.568C160.992 33.356 160.672 33.004 160.672 32.46C160.672 31.916 160.992 31.596 161.568 31.596H164.512V29.9C164.512 29.068 164.992 28.588 165.824 28.588C166.656 28.588 167.136 29.068 167.136 29.9V31.756H170.4V29.9C170.4 29.068 170.88 28.588 171.712 28.588C172.544 28.588 173.024 29.068 173.024 29.9V31.596H176.064C176.64 31.596 176.96 31.916 176.96 32.46C176.96 33.036 176.64 33.356 176.064 33.356H173.024V35.148H175.68C176.256 35.148 176.576 35.468 176.576 36.012C176.576 36.588 176.256 36.908 175.68 36.908H173.024V38.796H176.896C177.472 38.796 177.792 39.116 177.792 39.66C177.792 40.236 177.472 40.556 176.896 40.556H170.144V42.316H174.4C175.424 42.316 176 42.892 176 43.916V49.996H177.504ZM152.64 48.908C151.616 48.908 151.04 48.332 151.04 47.308V31.788C151.04 30.764 151.616 30.188 152.64 30.188H157.984C159.008 30.188 159.584 30.764 159.584 31.788V47.308C159.584 48.332 159.008 48.908 157.984 48.908H152.64ZM153.6 32.332V35.724H157.024V32.332C157.024 32.108 156.864 31.948 156.64 31.948H153.984C153.76 31.948 153.6 32.108 153.6 32.332ZM167.136 33.356V35.148H170.4V33.356H167.136ZM167.136 36.908V38.796H170.4V36.908H167.136ZM153.6 37.484V41.26H157.024V37.484H153.6ZM153.6 43.02V46.764C153.6 46.988 153.76 47.148 153.984 47.148H156.64C156.864 47.148 157.024 46.988 157.024 46.764V43.02H153.6ZM167.392 46.124V44.076H164.608C164.384 44.076 164.224 44.236 164.224 44.46V46.124H167.392ZM173.312 46.124V44.46C173.312 44.236 173.152 44.076 172.928 44.076H170.144V46.124H173.312ZM167.392 49.996V47.852H164.224V49.996H167.392ZM173.312 49.996V47.852H170.144V49.996H173.312ZM154.208 49.612C155.072 49.868 155.264 50.604 154.944 51.5C154.144 53.772 152.672 56.492 151.2 57.772C150.752 58.156 150.368 58.156 150.016 57.9C149.664 57.644 149.6 57.164 149.888 56.716C150.784 55.276 151.712 52.972 152.416 50.668C152.704 49.676 153.312 49.356 154.208 49.612ZM157.44 49.996C158.464 51.244 159.712 53.804 160.352 55.532C160.672 56.396 160.512 57.068 159.648 57.388C158.816 57.708 158.08 57.42 157.824 56.492C157.344 54.732 156.64 52.204 156.064 50.764C155.872 50.252 155.968 49.868 156.352 49.676C156.736 49.484 157.12 49.58 157.44 49.996Z"
                fill="white" />
              <path
                d="M218.5 54C219.428 54 220.318 54.3687 220.975 55.0251C221.631 55.6815 222 56.5717 222 57.5C222 58.4283 221.631 59.3185 220.975 59.9749C220.318 60.6312 219.428 61 218.5 61C217.572 61 216.682 60.6312 216.025 59.9749C215.369 59.3185 215 58.4283 215 57.5C215 55.5575 216.558 54 218.5 54ZM190.5 26H196.222L197.868 29.5H223.75C224.214 29.5 224.659 29.6844 224.987 30.0126C225.316 30.3408 225.5 30.7859 225.5 31.25C225.5 31.5475 225.412 31.845 225.29 32.125L219.025 43.4475C218.43 44.515 217.275 45.25 215.962 45.25H202.925L201.35 48.1025L201.298 48.3125C201.298 48.4285 201.344 48.5398 201.426 48.6219C201.508 48.7039 201.619 48.75 201.735 48.75H222V52.25H201C200.072 52.25 199.182 51.8813 198.525 51.2249C197.869 50.5685 197.5 49.6783 197.5 48.75C197.5 48.1375 197.657 47.56 197.92 47.07L200.3 42.7825L194 29.5H190.5V26ZM201 54C201.928 54 202.818 54.3687 203.475 55.0251C204.131 55.6815 204.5 56.5717 204.5 57.5C204.5 58.4283 204.131 59.3185 203.475 59.9749C202.818 60.6312 201.928 61 201 61C200.072 61 199.182 60.6312 198.525 59.9749C197.869 59.3185 197.5 58.4283 197.5 57.5C197.5 55.5575 199.057 54 201 54ZM216.75 41.75L221.615 33H199.495L203.625 41.75H216.75Z"
                fill="white" />
              <path
                d="M351.652 177.584L302.035 192.404C301.605 192.46 301.205 192.565 300.836 192.719C300.689 192.782 300.547 192.778 300.431 192.813C298.974 193.258 297.52 193.701 296.068 194.14C296.043 194.148 296.017 194.134 296.008 194.109C293.004 184.919 286.916 177.106 278.485 172.299C277.205 171.569 275.279 170.657 274.078 170.001C268.945 167.194 264.632 163.637 261.137 159.326C252.813 149.063 244.488 138.799 236.163 128.536C234.016 125.889 232.844 123.355 233.017 119.832C233.634 110.765 243.602 105.881 251.167 110.907C251.186 110.92 251.219 110.926 251.265 110.923C251.305 110.951 251.338 110.981 251.361 111.014C251.381 111.043 251.404 111.068 251.432 111.089C252.244 111.696 253.052 112.489 253.854 113.472C257.797 118.304 261.728 123.132 265.647 127.956C265.67 127.985 265.717 127.961 265.707 127.925C265.111 125.812 264.504 123.718 263.888 121.642C256.593 97.0818 249.304 72.5207 242.021 47.9582C241.858 47.4088 241.732 46.5971 241.639 45.5206C241.667 45.1787 241.697 44.8172 241.728 44.4362C242.269 37.8777 248.848 33.3392 255.192 35.5784C258.214 36.6445 260.303 38.6645 261.462 41.6385C261.591 41.9673 261.852 42.7972 262.245 44.1269C267.233 60.9395 272.215 77.7416 277.192 94.5333C277.2 94.562 277.229 94.579 277.258 94.5738C277.286 94.5686 277.307 94.5412 277.305 94.5124C276.487 84.4293 289.726 80.4598 294.588 89.3176C294.627 89.388 294.713 89.418 294.787 89.3854C294.863 89.3528 294.894 89.2993 294.88 89.2262C294.869 89.1727 294.864 89.1427 294.864 89.1375C294.316 81.612 302.34 76.6546 308.749 80.5015C310.806 81.7373 312.191 83.5655 312.905 85.9874C313.649 88.5216 314.39 91.0466 315.125 93.5612C315.134 93.5925 315.165 93.6121 315.198 93.6068C315.23 93.6003 315.254 93.5703 315.251 93.5377C315.055 91.0022 315.704 88.7891 317.195 86.9009C321.753 81.124 330.755 82.8465 333.111 89.7351C333.138 89.8173 333.338 90.4842 333.709 91.7356C338.815 108.988 343.937 126.235 349.076 143.477C350.121 146.979 350.13 150.453 349.105 153.898C349.077 153.988 348.839 154.642 348.388 155.858C347.21 159.035 347.105 162.256 348.077 165.52C349.268 169.523 350.46 173.545 351.652 177.584ZM250.901 54.762L257.932 52.6637C259.506 52.1952 260.402 50.538 259.933 48.963L258.213 43.1913C257.154 39.6354 253.445 37.6023 249.93 38.6515H249.928C246.413 39.7007 244.421 43.4327 245.482 46.9886L247.201 52.7603C247.67 54.3353 249.327 55.2305 250.901 54.762ZM240.291 127.563C241.702 129.102 244.211 129.309 245.779 127.952C247.819 126.188 249.854 124.419 251.884 122.644C253.329 121.379 253.752 119.314 252.829 117.642C252.686 117.385 252.41 117.016 251.999 116.532C251.252 115.653 250.423 114.632 249.646 113.992C246.562 111.458 242.002 111.542 239.067 114.287C236.405 116.777 235.677 120.894 237.511 124.108C238.162 125.248 239.311 126.495 240.291 127.563Z"
                fill="#F8BF92" />
              <path
                d="M364.201 192.73L372.817 221.788C372.859 221.929 372.806 221.999 372.659 221.999H311.462C311.34 222.008 311.273 221.949 311.263 221.823C311.252 221.704 311.242 221.628 311.232 221.594C310.036 217.583 308.837 213.56 307.636 209.525C307.64 209.525 307.645 209.525 307.65 209.525L364.201 192.73Z"
                fill="#DB5331" />
              <path
                d="M242.178 45.5205C242.271 46.5971 242.397 47.4087 242.56 47.9581C249.844 72.5206 257.132 97.0817 264.427 121.642C265.044 123.718 265.65 125.812 266.246 127.925C266.257 127.961 266.21 127.985 266.186 127.956C262.267 123.132 258.336 118.304 254.393 113.472C253.591 112.489 252.783 111.696 251.971 111.089C251.943 111.068 251.92 111.043 251.9 111.014C251.877 110.98 251.844 110.95 251.804 110.923C246.737 93.869 241.679 76.8138 236.63 59.7546C236.201 58.3022 235.962 57.4657 235.914 57.2452C234.837 52.2917 237.479 47.4427 242.178 45.5205Z"
                fill="#BFBFBF" />
              <path
                d="M233.556 119.832C233.383 123.355 234.555 125.889 236.701 128.536C245.027 138.799 253.352 149.063 261.676 159.326C265.171 163.637 269.484 167.194 274.617 170.001C275.818 170.657 277.744 171.569 279.024 172.299C287.455 177.106 293.543 184.919 296.547 194.109C296.556 194.134 296.582 194.148 296.607 194.14C298.058 193.701 299.513 193.258 300.97 192.813C301.086 192.778 301.228 192.782 301.375 192.719C301.744 192.565 302.143 192.46 302.574 192.404L307.65 209.525C307.645 209.525 307.64 209.525 307.636 209.525L290.531 214.604C290.491 214.616 290.477 214.642 290.488 214.682L292.661 221.991L283.29 221.995C283.258 221.995 283.229 221.973 283.218 221.942L278.888 207.351C278.866 207.277 278.892 207.23 278.966 207.208L287.399 204.712C287.455 204.695 287.487 204.635 287.47 204.578L285.411 197.615C285.373 197.486 285.419 197.401 285.548 197.362L286.941 196.951C286.994 196.934 287.007 196.902 286.98 196.853C283.597 190.749 278.938 185.919 273.003 182.363C271.48 181.451 269.308 180.444 267.971 179.716C262.68 176.828 258.264 172.948 254.433 168.23C246.392 158.327 238.354 148.42 230.32 138.512C229.567 137.585 229.048 136.888 228.76 136.421C225.099 130.488 227.367 122.966 233.556 119.832Z"
                fill="#BFBFBF" />
              <path
                d="M364.201 192.73L307.65 209.525L302.574 192.403L352.191 177.584L359.007 175.556C359.067 175.537 359.13 175.571 359.147 175.631L364.201 192.73Z"
                fill="white" />
              <path
                d="M251.141 55.8644C249.446 56.3751 247.663 55.3992 247.158 53.6821L245.307 47.3899C244.165 43.5134 246.309 39.4447 250.094 38.301H250.097C253.881 37.1572 257.873 39.3736 259.013 43.2502L260.866 49.5423C261.371 51.2594 260.406 53.0661 258.712 53.5768L251.141 55.8644Z"
                fill="#F5DECD" />
              <path
                d="M246.318 127.952C244.75 129.309 242.241 129.102 240.83 127.563C239.85 126.495 238.701 125.248 238.05 124.108C236.217 120.894 236.944 116.777 239.606 114.287C242.541 111.542 247.101 111.458 250.185 113.992C250.963 114.632 251.791 115.653 252.538 116.532C252.949 117.016 253.226 117.385 253.368 117.642C254.291 119.314 253.869 121.379 252.423 122.644C250.393 124.418 248.358 126.188 246.318 127.952Z"
                fill="#F5DECD" />
              <path
                d="M307.636 209.525C308.837 213.56 310.035 217.583 311.232 221.594C311.242 221.628 311.252 221.704 311.263 221.823C311.273 221.949 311.34 222.008 311.462 221.999L292.661 221.991L290.488 214.682C290.477 214.642 290.491 214.616 290.531 214.604L307.636 209.525Z"
                fill="#AC252C" />
            </svg>