<svg width="240" height="222" viewBox="0 0 240 222" fill="none" xmlns="http://www.w3.org/2000/svg">
<path d="M175.395 105.171C177.416 106.31 179.516 106.621 181.689 106.093C204.367 111.712 217.42 130.657 225.453 151.465C231.139 166.2 235.881 181.197 239.683 196.45C239.739 196.659 239.557 196.852 239.344 196.816C214.536 192.486 193.074 181.502 174.96 163.865C175.561 160.375 175.48 154.411 172.016 152.42C171.884 152.348 171.795 152.218 171.768 152.07C171.61 151.177 171.094 150.636 170.211 150.443C170.035 150.403 169.875 150.303 169.757 150.159C163.039 141.873 159.301 132.241 158.544 121.264C158.483 120.381 158.493 119.754 158.571 119.395L159.587 118.474C159.834 118.149 160.17 117.902 160.6 117.719C161.059 126.169 163.457 133.422 167.791 139.479C172.83 146.523 179.426 153.907 187.579 161.619C193.184 166.918 199.246 171.623 205.762 175.744C206.885 176.454 208.049 177.052 209.253 177.538C215.504 181.381 222.121 184.39 229.11 186.56C229.449 186.668 229.574 186.546 229.498 186.199C227.358 177.031 224.036 168.15 219.521 159.559C217.433 155.226 215.301 150.833 213.123 146.369C204.516 128.719 192.651 114.871 174.994 105.944C175.208 105.705 175.339 105.447 175.395 105.171Z" fill="#DB5331"/>
<path d="M172.437 108.504C176.123 117.522 180.301 126.349 184.972 134.998C184.993 135.034 184.981 135.073 184.951 135.093C184.921 135.118 184.878 135.112 184.853 135.082C178.698 127.531 171.734 120.776 163.958 114.817L164.707 113.618C168.843 114.381 172.154 116.384 174.641 119.638C174.703 119.717 174.812 119.737 174.897 119.685C174.982 119.627 175.013 119.521 174.965 119.429C173.357 116.282 172.147 112.956 171.328 109.452C171.388 109.122 171.759 108.805 172.437 108.504Z" fill="#DB5331"/>
<path d="M174.994 105.944C192.651 114.871 204.516 128.719 213.123 146.369C215.301 150.833 217.433 155.226 219.521 159.559L221.631 170.531C221.722 171.006 221.541 171.161 221.089 171.002L212.191 167.836C212.035 167.778 211.882 167.941 211.952 168.094L215.501 175.936C215.587 176.126 215.526 176.203 215.324 176.166L205.835 174.474C205.606 174.435 205.478 174.729 205.665 174.87L209.253 177.538C208.049 177.052 206.885 176.454 205.762 175.744C199.246 171.623 193.184 166.918 187.579 161.619C179.426 153.907 172.83 146.523 167.791 139.479C163.457 133.422 161.059 126.169 160.6 117.719L163.958 114.817C171.734 120.776 178.698 127.531 184.853 135.082C184.878 135.112 184.921 135.118 184.951 135.093C184.981 135.073 184.993 135.034 184.972 134.998C180.301 126.349 176.123 117.522 172.437 108.504L174.994 105.944Z" fill="#DA6634"/>
<path d="M219.521 159.559C224.036 168.15 227.358 177.031 229.498 186.199C229.574 186.546 229.449 186.668 229.11 186.56C222.121 184.39 215.504 181.381 209.253 177.538L205.665 174.87C205.478 174.729 205.606 174.435 205.835 174.474L215.324 176.166C215.526 176.203 215.587 176.126 215.501 175.936L211.952 168.094C211.882 167.941 212.035 167.778 212.191 167.836L221.089 171.002C221.541 171.161 221.722 171.006 221.631 170.531L219.521 159.559Z" fill="#F2B13D"/>
<path d="M127.596 62.5237C130.846 64.4959 121.355 72.3531 119.897 73.3887C114.011 77.5618 108.229 80.1177 100.816 80.7238C98.2749 80.9319 96.6024 79.9511 95.7978 77.7757C95.7132 77.5442 95.7882 77.45 96.0335 77.4867C108.584 79.3126 120.382 73.0348 127.199 62.6105C127.305 62.454 127.435 62.4237 127.596 62.5237Z" fill="#0C794D"/>
<path d="M58.5776 105.642C58.4674 105.948 58.1305 106.098 57.8235 105.988L57.617 105.909C56.7007 105.567 56.235 104.559 56.5729 103.654L58.2386 99.1847C58.5765 98.2795 59.5908 97.8181 60.5071 98.1608L60.7141 98.2396C61.0153 98.3502 61.1713 98.6919 61.0606 98.9931L58.5776 105.642Z" fill="#0C794D"/>
<path d="M170.111 88.2921C170.321 88.1186 170.63 88.1537 170.799 88.3655L171.184 88.8471C171.613 89.383 171.436 90.2435 170.787 90.7602L166.657 94.0633C166.009 94.5853 165.134 94.5704 164.705 94.0345L164.32 93.5524C164.151 93.3411 164.181 93.0325 164.393 92.8643L170.111 88.2921Z" fill="#0C794D"/>
<path d="M119.243 139.096C117.552 138.674 115.785 137.088 115.384 135.36C115.352 135.213 115.387 135.054 115.481 134.937C122.401 126.445 136.712 144.213 143.221 133.143C145.426 129.385 145.121 124.626 147.431 120.948C148.892 118.627 153.092 114.427 155.962 117.165C158.324 119.429 155.086 122.082 153.768 123.856C150.463 128.315 148.915 134.077 144.276 137.475C142.851 138.517 140.829 139.122 139.095 139.894C134.203 142.077 124.431 140.386 119.243 139.096Z" fill="#0C794D"/>
<path d="M161.688 156.353C161.115 156.117 161.12 155.297 161.699 155.067C164.277 154.025 166.907 152.886 169.579 151.64C172.176 150.436 172.911 153.283 170.727 154.11C168.226 155.063 164.315 157.447 161.688 156.353Z" fill="#0C794D"/>
<path d="M135.98 171.537C135.703 171.167 135.699 170.696 135.968 170.125C136.033 169.995 136.134 169.887 136.265 169.814L144.559 165.248C145.326 164.826 146.155 165.686 145.709 166.438C144.271 168.868 140.797 170.176 139.049 171.308C138.196 171.863 136.742 172.561 135.98 171.537Z" fill="#0C794D"/>
<path d="M112.132 72.7038C97.49 79.2684 80.2169 72.5399 73.5454 57.67C66.8754 42.7987 73.3405 25.421 87.9816 18.8557C102.623 12.291 119.896 19.0197 126.568 33.8895C133.238 48.7606 126.773 66.1386 112.132 72.7038ZM124.711 38.1999C119.363 26.4414 104.597 21.6502 91.7354 27.4977C78.8711 33.3452 72.7833 47.6236 78.1299 59.3846C83.4774 71.143 98.243 75.9344 111.105 70.0866C123.969 64.2394 130.057 49.9609 124.711 38.1999Z" fill="white"/>
<path d="M146.659 82.6747C146.394 75.9254 141.385 70.8024 136.667 65.7539C135.082 64.0616 133.335 62.8478 131.426 62.1076C142.231 60.0364 150.057 62.4258 157.531 70.3905C161.972 75.1272 165.623 80.4066 168.484 86.2348C168.573 86.4125 168.542 86.5604 168.39 86.6898L163.79 90.5324C163.648 90.65 163.499 90.6564 163.347 90.5447C158.328 86.8255 152.768 84.2051 146.659 82.6747Z" fill="white"/>
<path d="M126.965 68.4944C127.488 69.4853 127.951 70.1782 128.353 70.5672C131.355 73.4349 134.872 77.3691 138.894 82.3777C140.418 84.2802 142.425 85.138 144.911 84.9576C151.247 94.3985 155.273 104.82 156.997 116.219C157.058 116.62 156.937 116.687 156.639 116.415C151.747 112.012 145.778 120.339 144.886 124.444C143.526 130.742 142.119 138.009 133.375 135.123C128.327 133.452 119.712 129.079 114.972 133.773C114.846 133.899 114.718 133.897 114.586 133.778C106.528 126.232 102.446 118.039 99.2722 107.716C101.769 103.256 101.743 99.4736 101.633 94.0132C101.552 89.8779 101.406 85.8734 100.156 81.8626C110.606 81.3145 119.915 75.9621 126.965 68.4944ZM138.826 86.6067C137.213 83.052 133.022 81.4843 129.468 83.0993L107.738 92.9824C104.182 94.597 102.615 98.7871 104.23 102.341L109.831 114.655C111.444 118.21 115.635 119.777 119.189 118.162L140.919 108.279C144.475 106.665 146.042 102.474 144.427 98.9202L138.826 86.6067Z" fill="white"/>
<path d="M91.9897 82.1888C91.7487 90.2631 91.7763 99.8392 95.6701 107.105C84.952 115.051 70.8218 114.713 60.8514 105.768C60.7083 105.64 60.6695 105.483 60.7296 105.3L62.3548 100.423C62.4229 100.218 62.5687 100.132 62.7816 100.167C71.6062 101.567 78.8887 99.2666 84.6237 93.2576C87.4132 90.3286 89.7616 85.9815 91.9897 82.1888Z" fill="white"/>
<path d="M48.221 89.9609C48.6994 90.0253 48.7459 90.2025 48.361 90.4968L47.3428 91.2583C47.1801 91.3833 46.9426 91.3189 46.8621 91.1242L46.5727 90.4015C46.4781 90.1764 46.5538 90.0396 46.7948 89.9912C47.2613 89.9018 47.7368 89.8917 48.221 89.9609Z" fill="white"/>
<path d="M48.5593 101.939L51.3417 101.489C51.5104 101.465 51.5961 101.273 51.4997 101.129L51.1511 100.595C51.0676 100.47 51.0916 100.302 51.2038 100.204L53.108 98.5993C53.3236 98.42 53.3194 98.2385 53.102 98.0645L52.6847 97.7308C52.5501 97.6281 52.3597 97.6494 52.2621 97.7835C50.7765 99.7317 47.936 100.477 46.1531 98.603C43.5631 95.8768 48.7698 89.5517 51.9189 91.0481C54.6668 92.354 56.6187 94.4496 57.7756 97.3349C57.8421 97.4993 57.8469 97.6861 57.7905 97.8527L55.4991 104.828C55.4395 105.011 55.3187 105.132 55.1383 105.195C49.3411 107.131 42.0759 105.359 40.1496 99.1219C39.4114 96.7251 39.8851 94.3911 41.5716 92.131C41.6838 91.9847 41.8278 91.883 42.0088 91.8256C43.7222 91.2971 44.2245 92.6818 44.7661 93.9387C44.839 94.1122 44.8426 94.2889 44.7762 94.4624C43.6376 97.5552 44.596 99.6226 47.6621 100.662C47.8402 100.723 47.9554 100.844 48.0131 101.025L48.2425 101.738C48.2925 101.899 48.3959 101.962 48.5593 101.939Z" fill="white"/>
<path d="M171.746 98.6472C171.372 99.8562 170.803 104.364 169.339 105.068C169.187 105.144 169.037 105.139 168.883 105.054C168.324 104.747 167.999 104.328 167.908 103.803C167.441 101.151 166.891 98.5189 166.257 95.9013C166.207 95.6927 166.268 95.5256 166.442 95.3989L172.221 91.1359C172.359 91.0348 172.537 90.9933 172.711 91.0167C177.817 91.8133 186.143 97.6324 183.944 103.602C183.175 105.695 180.952 106.21 178.912 105.586C175.503 104.547 173.227 102.231 172.083 98.6472C171.968 98.2907 171.855 98.2869 171.746 98.6472Z" fill="white"/>
<path d="M163.487 153.572C155.162 152.283 147.778 146.851 143.931 139.371C143.836 139.194 143.873 139.045 144.043 138.936C148.736 135.838 150.995 130.542 153.636 125.943C154.556 124.346 155.784 122.968 156.947 121.531C157.083 121.361 157.36 121.448 157.374 121.666C157.984 132.58 161.622 142.305 168.287 150.853C168.468 151.079 168.387 151.414 168.128 151.54L163.983 153.501C163.83 153.571 163.656 153.596 163.487 153.572Z" fill="white"/>
<path d="M137.828 168.124C122.613 167.184 113.27 154.116 116.419 139.271C116.451 139.118 116.618 139.035 116.759 139.104C122.035 141.762 130.066 142.04 135.879 141.88C136.023 141.874 136.114 142.025 136.048 142.15C131.576 150.412 133.874 160.469 142.015 165.382C142.227 165.514 142.225 165.83 142.003 165.951L138.292 168.019C138.146 168.099 137.994 168.132 137.828 168.124Z" fill="white"/>
<path d="M172.318 172.234C170.619 175.534 166.616 174.834 164.986 171.744C163.202 168.361 160.362 158.825 165.485 156.888C167.863 155.986 170.166 154.938 172.395 153.742C172.556 153.654 172.757 153.68 172.889 153.809C176.984 157.884 174.511 167.984 172.318 172.234Z" fill="white"/>
<path d="M146.273 167.371C149.734 171.237 148.537 178.995 147.154 183.545C146.661 185.179 145.806 187.015 144.1 187.617C137.713 189.881 135.613 176.75 136.382 172.89C136.416 172.709 136.573 172.585 136.755 172.581C138.979 172.595 142.776 169.811 144.743 168.634C144.889 168.548 145.005 168.433 145.102 168.299L145.731 167.404C145.86 167.219 146.121 167.206 146.273 167.371Z" fill="white"/>
<path d="M124.711 38.1999C130.057 49.9609 123.969 64.2394 111.105 70.0866C98.243 75.9344 83.4774 71.143 78.1298 59.3845C72.7833 47.6236 78.8711 33.3453 91.7353 27.4978C104.597 21.6502 119.363 26.4415 124.711 38.1999ZM120.013 40.6921C122.321 35.359 113 27.6697 108.187 30.8026C106.644 31.8045 106.6 33.8172 108.327 34.7546C108.92 35.0795 109.966 35.5305 111.462 36.1189C113.673 36.9863 114.405 39.0358 115.631 40.9125C116.885 42.845 119.021 42.9819 120.013 40.6921ZM122.859 48.1193C123.891 47.5208 124.208 46.1415 123.569 45.0337C122.928 43.9282 121.57 43.5171 120.54 44.1122C119.508 44.7107 119.191 46.09 119.829 47.1979C120.47 48.3034 121.828 48.7144 122.859 48.1193Z" fill="#5E5E5E"/>
<path d="M145.409 60.1056L144.801 59.8949C142.435 58.0222 141.939 56.0693 143.324 54.0357C143.955 53.1087 144.831 52.6148 145.943 52.5499C150.324 52.3137 151.584 58.2452 147.511 59.7001C147.356 59.7549 147.197 59.7725 147.039 59.7422C146.395 59.6315 145.851 59.7512 145.409 60.1056Z" fill="#5E5E5E"/>
<path d="M131.426 62.1076C133.335 62.8478 135.082 64.0616 136.668 65.7539C141.385 70.8024 146.394 75.9254 146.659 82.6747C146.608 83.6065 146.028 84.3669 144.911 84.9576C142.425 85.138 140.418 84.2796 138.894 82.3772C134.872 77.3691 131.355 73.4349 128.353 70.5672C127.951 70.1782 127.488 69.4853 126.965 68.4944L127.541 67.5573C128.244 68.5769 128.843 69.5811 129.737 70.4453C133.032 73.6387 136.093 77.0349 138.915 80.6456C140.064 82.1132 143.467 85.4073 145.356 83.2856C145.476 83.1541 145.534 83.003 145.535 82.8263C145.584 76.2936 139.053 69.4768 134.511 65.1371C132.97 63.6599 131.244 63.0218 129.339 63.2182C129.096 62.9079 128.993 62.6195 129.039 62.3571C129.076 62.1549 129.194 62.0618 129.392 62.0661L131.426 62.1076Z" fill="#5E5E5E"/>
<path d="M94.6707 77.9923C91.6401 80.5413 93.3568 94.8923 93.9501 98.826C94.4051 101.854 95.388 104.572 96.8993 106.99C97.2319 107.526 98.0179 107.513 98.3372 106.969C99.6649 104.706 100.382 102.393 100.488 100.031C100.762 93.9765 100.647 87.7567 99.112 81.861L100.157 81.8626C101.406 85.8729 101.552 89.8779 101.633 94.0132C101.743 99.4731 101.769 103.256 99.2722 107.716L97.3878 108.681C97.0031 108.74 96.8536 108.788 96.9334 108.833L95.6701 107.105C91.7763 99.8392 91.7486 90.2631 91.9897 82.1888C91.9822 80.1496 92.591 78.4542 93.8219 77.1014C93.9746 76.9344 94.1343 76.9274 94.3014 77.0802C94.4924 77.2568 94.6169 77.5591 94.6707 77.9923Z" fill="#5E5E5E"/>
<path d="M162.587 92.6158C163.979 93.6173 164.774 94.5086 164.984 95.2882C165.946 98.8808 166.516 101.495 166.697 103.124C166.878 104.742 167.957 106.742 169.874 106.02C171.307 105.475 171.659 103.203 172.035 101.919C172.109 101.67 172.22 101.652 172.362 101.871C173.428 103.514 174.756 104.807 176.349 105.749C176.294 106.022 176.162 106.278 175.948 106.516L173.388 109.061C172.709 109.362 172.337 109.676 172.277 110.004C169.206 110.266 167.835 108.245 166.126 106.073C166.045 105.97 165.925 105.898 165.794 105.875L164.444 105.629C164.285 105.599 164.145 105.635 164.016 105.735L162.468 106.979C161.771 107.544 161.749 108.601 162.43 109.184C163.977 110.522 165.05 112.174 165.649 114.148L164.899 115.339L161.536 118.225C161.107 118.407 160.77 118.653 160.522 118.975C160.486 118.744 160.375 118.617 160.185 118.595C159.893 118.563 159.638 118.683 159.427 118.947C158.775 112.279 157.185 105.64 154.661 99.0404L162.587 92.6158Z" fill="#5E5E5E"/>
<path d="M129.883 55.7473L128.169 60.0183C128.089 60.2195 128.158 60.3084 128.374 60.2844C134.001 59.6469 138.793 58.7811 144.801 59.8949L145.409 60.1056C153.19 62.3284 159.015 68.0405 164.046 74.6605C166.558 78.3217 168.903 82.3011 171.067 86.595C171.149 86.752 171.157 86.917 171.089 87.0798L170.939 87.4555C170.868 87.6402 170.923 87.8482 171.076 87.9701C171.592 88.3682 171.834 88.9083 171.802 89.5868C171.791 89.7698 171.927 89.9369 172.111 89.9593C177.653 90.7288 181.689 93.3044 184.21 97.6819C186.28 101.269 185.757 104.261 182.646 106.659C180.471 107.185 178.371 106.878 176.349 105.749C174.756 104.807 173.428 103.514 172.362 101.871C172.22 101.652 172.109 101.67 172.035 101.919C171.659 103.203 171.307 105.475 169.874 106.02C167.957 106.742 166.878 104.742 166.697 103.124C166.516 101.495 165.946 98.8808 164.984 95.2882C164.774 94.5086 163.979 93.6173 162.588 92.6158C158.068 89.1999 153.227 86.7456 148.066 85.2593C147.712 85.154 147.632 85.2593 147.833 85.569C150.635 89.9635 152.913 94.4538 154.661 99.0404C157.185 105.64 158.775 112.279 159.427 118.947C159.259 119.314 159.289 119.632 159.505 119.892C159.428 120.248 159.416 120.871 159.477 121.747C160.225 132.652 163.957 142.216 170.672 150.442C170.79 150.585 170.951 150.685 171.127 150.724C172.01 150.914 172.525 151.451 172.683 152.339C172.71 152.486 172.799 152.615 172.93 152.686C176.395 154.661 176.471 160.586 175.867 164.053C175.181 168.134 173.589 176.766 167.676 175.315C162.133 173.952 160.299 161.814 162.631 157.56C162.724 157.394 162.622 157.192 162.431 157.165C161.507 157.037 160.935 156.518 160.721 155.604C160.665 155.343 160.506 155.173 160.247 155.1C152.059 152.692 145.947 147.714 141.92 140.163C141.832 139.996 141.698 139.946 141.524 140.025C140.596 140.444 139.656 140.699 139.015 141.531C133.282 148.996 135.78 161.279 145.028 164.458C145.813 164.723 146.107 165.109 146.184 165.898C146.198 166.073 146.283 166.208 146.428 166.31C151.088 169.501 149.523 178.714 148.283 183.392C146.835 188.86 141.6 191.66 138.064 185.875C135.589 181.824 134.704 177.341 135.371 172.462C135.471 171.728 135.416 170.995 135.212 170.263C135.166 170.091 135.053 169.992 134.878 169.958C119.319 167.032 109.948 152.51 114.869 137.275C114.929 137.092 114.886 136.941 114.743 136.818C106.095 129.22 100.312 119.841 97.3879 108.681L99.2722 107.716C102.446 118.039 106.528 126.232 114.586 133.778C114.718 133.897 114.846 133.899 114.972 133.773C119.712 129.079 128.327 133.452 133.375 135.123C142.119 138.009 143.526 130.742 144.886 124.444C145.778 120.339 151.747 112.012 156.639 116.415C156.937 116.687 157.058 116.62 156.997 116.219C155.273 104.82 151.247 94.3985 144.911 84.9576C146.028 84.3669 146.608 83.6065 146.659 82.6747C152.768 84.2057 158.328 86.8254 163.347 90.5446C163.499 90.6564 163.648 90.65 163.79 90.5329L168.39 86.6897C168.542 86.5604 168.573 86.4125 168.484 86.2348C165.623 80.4066 161.972 75.1272 157.531 70.3905C150.057 62.4258 142.231 60.0364 131.426 62.1076L129.392 62.0666C129.194 62.0618 129.076 62.1549 129.039 62.3571C128.993 62.6195 129.096 62.9079 129.339 63.2182C129.181 64.8311 128.582 66.2796 127.541 67.5573L126.965 68.4944C119.915 75.9621 110.606 81.3145 100.157 81.8626L99.112 81.861C97.1117 81.4949 95.6291 80.2039 94.6707 77.9923C94.617 77.5591 94.4924 77.2568 94.3014 77.0802C94.1343 76.9274 93.9747 76.9344 93.8219 77.1014C92.5911 78.4542 91.9823 80.1496 91.9897 82.1888C89.7616 85.9814 87.4138 90.3286 84.6237 93.2575C78.8887 99.2671 71.6062 101.567 62.7816 100.167C62.5687 100.132 62.4229 100.218 62.3548 100.423L60.7296 105.3C60.6695 105.484 60.7083 105.64 60.8514 105.768C70.8218 114.713 84.952 115.051 95.6701 107.105L96.9334 108.833C85.2197 117.693 69.4281 116.77 58.7697 106.739C58.6319 106.61 58.4695 106.548 58.2838 106.563C57.6665 106.594 57.1376 106.412 56.6959 106.006C56.5644 105.882 56.3729 105.845 56.1983 105.912C50.9944 107.889 46.5051 107.388 42.7368 104.418C38.604 101.157 37.4944 96.2424 40.4667 91.7776C40.6142 91.5632 40.5542 91.4573 40.2927 91.4653L7.6195 92.4221C7.49668 92.4247 7.43788 92.2816 7.52483 92.197C15.4874 84.7506 23.3042 77.2941 30.9746 69.8216C32.0616 68.7637 33.4805 67.8026 32.8477 65.9667C32.7777 65.7709 32.8182 65.5575 32.9456 65.4042C33.381 64.8902 33.9439 64.6076 34.6408 64.5677C34.8595 64.5592 35.0246 64.6481 35.1263 64.8402C39.1627 72.4276 42.4007 80.8265 45.8289 88.7226C45.8942 88.8758 46.0147 88.9482 46.1804 88.9461C52.4618 88.664 56.599 91.4371 58.8575 97.1933C58.9107 97.337 59.0155 97.411 59.1661 97.4158C60.0963 97.4514 60.8169 97.5265 61.3219 97.6414C70.552 99.7455 78.0138 97.5653 83.7137 91.0991C87.26 87.074 89.4929 81.2623 93.0796 76.7827C93.169 76.6709 93.1131 76.506 92.9747 76.4677C78.1027 72.4058 67.5688 58.8327 68.8438 43.1685C70.0891 28.0053 81.7639 15.4766 97.2463 14.3035C120.066 12.5649 136.075 34.2875 129.883 55.7473ZM112.132 72.7038C126.773 66.1386 133.238 48.7606 126.568 33.8896C119.896 19.0197 102.623 12.2911 87.9816 18.8558C73.3405 25.421 66.8754 42.7988 73.5454 57.67C80.2169 72.5398 97.49 79.2684 112.132 72.7038ZM13.9496 89.5485C13.8145 89.681 13.9097 89.9114 14.1019 89.9061L41.9504 88.994C42.0949 88.994 42.1901 88.8391 42.1325 88.7061L34.2605 70.7673C34.2029 70.6347 34.0331 70.6002 33.9314 70.697L13.9496 89.5485ZM119.897 73.3886C121.355 72.3531 130.846 64.4959 127.596 62.5237C127.435 62.4237 127.305 62.454 127.199 62.6104C120.382 73.0348 108.584 79.3125 96.0335 77.4867C95.7882 77.45 95.7132 77.5442 95.7978 77.7757C96.6024 79.9511 98.275 80.9319 100.817 80.7238C108.229 80.1177 114.011 77.5618 119.897 73.3886ZM48.221 89.9609C47.7368 89.8917 47.2613 89.9018 46.7948 89.9912C46.5538 90.0396 46.4781 90.1764 46.5727 90.4015L46.8621 91.1242C46.9426 91.3189 47.1801 91.3833 47.3428 91.2583L48.361 90.4967C48.7459 90.2025 48.6994 90.0253 48.221 89.9609ZM48.2425 101.738L48.0131 101.025C47.9555 100.844 47.8402 100.723 47.6621 100.662C44.5961 99.6226 43.6376 97.5552 44.7762 94.4623C44.8425 94.2889 44.839 94.1122 44.7661 93.9387C44.2245 92.6818 43.7223 91.2971 42.0088 91.8255C41.8278 91.883 41.6839 91.9846 41.5716 92.131C39.8851 94.391 39.4115 96.725 40.1496 99.1219C42.0759 105.359 49.3411 107.131 55.1383 105.195C55.3187 105.132 55.4395 105.011 55.4991 104.828L57.7905 97.8527C57.8469 97.6861 57.8421 97.4993 57.7756 97.3354C56.6187 94.4496 54.6668 92.354 51.9189 91.0481C48.7698 89.5517 43.5631 95.8768 46.1531 98.603C47.9359 100.477 50.7765 99.7317 52.2622 97.7835C52.3597 97.6494 52.5501 97.6281 52.6847 97.7308L53.102 98.0645C53.3194 98.2385 53.3236 98.4199 53.108 98.5993L51.2039 100.204C51.0916 100.302 51.0676 100.47 51.1511 100.595L51.4997 101.129C51.5961 101.273 51.5104 101.465 51.3417 101.489L48.5592 101.939C48.3959 101.962 48.2925 101.899 48.2425 101.738ZM58.5776 105.642L61.0606 98.9931C61.1713 98.6919 61.0154 98.3502 60.7142 98.2395L60.5072 98.1608C59.5908 97.8181 58.5765 98.2795 58.2386 99.1846L56.573 103.654C56.235 104.558 56.7007 105.567 57.617 105.909L57.8235 105.988C58.1306 106.098 58.4674 105.948 58.5776 105.642ZM170.111 88.2921L164.393 92.8643C164.181 93.0324 164.152 93.3411 164.32 93.5524L164.705 94.0345C165.134 94.5704 166.009 94.5853 166.657 94.0632L170.787 90.7602C171.436 90.2435 171.613 89.383 171.184 88.8471L170.799 88.3655C170.63 88.1537 170.321 88.1186 170.111 88.2921ZM172.083 98.6472C173.227 102.231 175.503 104.547 178.912 105.586C180.952 106.21 183.175 105.695 183.944 103.601C186.143 97.6324 177.817 91.8133 172.711 91.0167C172.537 90.9932 172.36 91.0348 172.221 91.1359L166.442 95.3989C166.268 95.5256 166.207 95.6927 166.257 95.9013C166.891 98.5189 167.441 101.151 167.908 103.803C167.999 104.328 168.324 104.747 168.883 105.054C169.037 105.139 169.187 105.144 169.339 105.068C170.803 104.364 171.372 99.8562 171.746 98.6472C171.855 98.2869 171.968 98.2906 172.083 98.6472ZM115.384 135.36C115.785 137.088 117.552 138.674 119.243 139.096C124.431 140.386 134.203 142.077 139.095 139.894C140.829 139.122 142.851 138.517 144.276 137.474C148.915 134.077 150.463 128.315 153.768 123.856C155.086 122.082 158.324 119.429 155.962 117.165C153.092 114.427 148.892 118.627 147.431 120.947C145.121 124.626 145.426 129.385 143.221 133.143C136.711 144.213 122.401 126.445 115.482 134.937C115.387 135.054 115.352 135.213 115.384 135.36ZM143.931 139.371C147.778 146.851 155.162 152.283 163.487 153.572C163.656 153.596 163.83 153.571 163.983 153.501L168.128 151.54C168.387 151.414 168.468 151.079 168.287 150.853C161.622 142.305 158.153 132.363 157.374 121.666C157.36 121.448 157.083 121.361 156.947 121.531C155.784 122.968 154.556 124.346 153.636 125.943C150.995 130.542 148.736 135.838 144.043 138.936C143.873 139.045 143.836 139.194 143.931 139.371ZM116.419 139.271C113.27 154.116 122.613 167.184 137.828 168.124C137.994 168.132 138.146 168.099 138.292 168.019L142.003 165.951C142.225 165.83 142.227 165.514 142.015 165.382C133.874 160.469 131.576 150.412 136.048 142.15C136.114 142.025 136.023 141.874 135.879 141.88C130.066 142.04 122.035 141.762 116.759 139.104C116.618 139.035 116.451 139.118 116.419 139.271ZM161.688 156.353C164.315 157.447 168.226 155.063 170.727 154.11C172.911 153.283 172.176 150.436 169.579 151.64C166.908 152.886 164.277 154.025 161.699 155.067C161.12 155.297 161.115 156.117 161.688 156.353ZM164.986 171.744C166.616 174.834 170.619 175.534 172.318 172.234C174.511 167.984 176.984 157.884 172.889 153.81C172.757 153.68 172.556 153.654 172.395 153.742C170.166 154.938 167.863 155.986 165.485 156.889C160.362 158.825 163.202 168.361 164.986 171.744ZM135.98 171.537C136.742 172.561 138.196 171.863 139.049 171.308C140.798 170.176 144.271 168.868 145.709 166.438C146.155 165.686 145.326 164.826 144.559 165.249L136.265 169.813C136.134 169.887 136.033 169.995 135.968 170.125C135.699 170.696 135.703 171.167 135.98 171.537ZM145.731 167.404L145.102 168.299C145.005 168.433 144.889 168.548 144.743 168.634C142.776 169.811 138.979 172.595 136.755 172.58C136.573 172.585 136.416 172.709 136.382 172.89C135.613 176.75 137.713 189.881 144.1 187.617C145.806 187.015 146.661 185.179 147.154 183.545C148.537 178.994 149.734 171.237 146.273 167.371C146.121 167.206 145.86 167.219 145.731 167.404Z" fill="#0C794D"/>
<path d="M108.187 30.8027C113 27.6697 122.321 35.3591 120.013 40.6921C119.021 42.982 116.885 42.845 115.631 40.9125C114.405 39.0359 113.673 36.9863 111.462 36.1189C109.966 35.5305 108.92 35.0795 108.327 34.7546C106.6 33.8172 106.644 31.8045 108.187 30.8027Z" fill="#929292"/>
<path d="M119.829 47.1979C120.469 48.3045 121.826 48.7171 122.858 48.1194C123.891 47.5218 124.209 46.1403 123.569 45.0337C122.929 43.9272 121.573 43.5146 120.54 44.1122C119.507 44.7099 119.188 46.0914 119.829 47.1979Z" fill="#929292"/>
<path d="M129.339 63.2182C131.244 63.0218 132.97 63.6599 134.511 65.1371C139.053 69.4773 145.584 76.2942 145.535 82.8263C145.534 83.0036 145.476 83.1541 145.356 83.2856C143.467 85.4073 140.064 82.1133 138.915 80.6456C136.093 77.0355 133.032 73.6388 129.737 70.4453C128.843 69.5811 128.244 68.5769 127.541 67.5573C128.582 66.2796 129.181 64.8311 129.339 63.2182Z" fill="#929292"/>
<path d="M94.6707 77.9923C95.6291 80.2039 97.1117 81.4949 99.112 81.861C100.647 87.7567 100.762 93.9765 100.488 100.031C100.382 102.393 99.6649 104.706 98.3372 106.969C98.0179 107.513 97.2319 107.526 96.8994 106.99C95.388 104.572 94.4052 101.854 93.9502 98.826C93.3568 94.8923 91.6401 80.5413 94.6707 77.9923Z" fill="#929292"/>
<path d="M164.046 74.6605C159.015 68.0405 153.19 62.3284 145.409 60.1056C145.851 59.7512 146.395 59.6315 147.039 59.7422C147.197 59.7725 147.356 59.7549 147.511 59.7001C151.584 58.2452 150.324 52.3136 145.943 52.5499C144.831 52.6148 143.955 53.1087 143.324 54.0356C141.939 56.0693 142.435 58.0222 144.801 59.8949C138.793 58.7811 134.001 59.6469 128.375 60.2844C128.158 60.3084 128.089 60.2195 128.169 60.0178L129.883 55.7473C134.595 52.2879 139.975 47.7638 146.312 48.6536C157.436 50.2149 161.845 65.6208 164.046 74.6605Z" fill="#7F7E7F"/>
<path d="M162.587 92.6158L154.661 99.0404C152.913 94.4538 150.635 89.9636 147.833 85.5691C147.632 85.2593 147.712 85.154 148.066 85.2593C153.227 86.7456 158.068 89.1999 162.587 92.6158Z" fill="#7F7E7F"/>
<path d="M123.875 82.1744L110.274 89.331C103.772 92.7525 101.275 100.797 104.696 107.299L108.501 114.53C111.922 121.032 119.967 123.53 126.469 120.108L140.07 112.952C146.572 109.53 149.07 101.485 145.648 94.9831L141.843 87.7526C138.422 81.2504 130.377 78.7529 123.875 82.1744Z" fill="white"/>
<path d="M34.7137 69.9749L43.2989 89.3654L13.6411 90.1253L34.7137 69.9749Z" fill="white"/>
<path d="M33.0804 78.8698C34.3059 78.9911 35.3596 79.6521 35.9389 80.7547C36.4743 81.7737 36.5818 82.9684 35.9498 83.9731C35.5395 84.6255 34.9337 85.0704 34.2597 85.4312C34.0354 85.5509 33.7311 85.7037 33.347 85.8878C33.2763 85.9219 33.2104 85.9511 33.149 85.9756C32.7564 86.1321 32.3536 86.256 31.9406 86.347C30.5433 86.6557 29.024 86.4636 28.1298 85.2136C27.899 84.8905 27.7319 84.5159 27.6334 84.1312C27.3224 82.9173 27.6255 81.5875 28.4156 80.6222C28.8 80.1517 29.2953 79.7952 29.8632 79.5589C30.3112 79.3727 30.7703 79.2034 31.2369 79.0699C31.7714 78.9166 32.3168 78.8262 32.8743 78.8506C32.8786 78.8506 32.8804 78.8485 32.8796 78.8442C32.7792 78.2733 32.9295 77.6304 33.5723 77.4596C33.666 77.4346 33.7132 77.4218 33.7132 77.4218C34.1613 77.2701 34.3304 76.8088 34.3086 76.3745C34.3083 76.3708 34.3072 76.3676 34.3049 76.3644C34.0888 76.0877 33.7424 75.9531 33.41 75.8796C32.9771 75.7844 32.5339 75.761 32.0934 75.7237C31.8755 75.7056 31.669 75.6045 31.7048 75.3443C31.7449 75.0527 32.0602 74.8696 32.321 74.8201C32.4231 74.8004 32.5177 74.793 32.625 74.7967C33.3776 74.8254 34.0501 75.1309 34.3466 75.8711C34.3475 75.8738 34.351 75.8738 34.3518 75.8711C34.5563 75.2432 35.039 74.5594 35.7176 74.4157C35.9457 74.3673 36.242 74.4018 36.399 74.5956C36.4913 74.7094 36.5083 74.8552 36.4077 74.9723C36.3639 75.0229 36.2988 75.0612 36.2301 75.0947C35.7309 75.3374 35.1731 75.5508 34.782 75.96C34.7009 76.0451 34.5487 76.2543 34.5553 76.3777C34.5849 76.9232 34.3263 77.4867 33.7738 77.6613C33.7055 77.6826 33.5997 77.7054 33.5293 77.7342C33.0932 77.9146 33.052 78.4489 33.1306 78.8453C33.1312 78.8485 33.129 78.8517 33.1256 78.8528L33.0799 78.8618C33.0781 78.8623 33.0767 78.8639 33.0768 78.8661C33.0769 78.8682 33.0785 78.8693 33.0804 78.8698ZM31.1116 80.8063C30.9891 80.6775 30.7736 80.6834 30.6305 80.8196C30.4872 80.9553 30.4705 81.1703 30.593 81.2996C30.7155 81.4284 30.931 81.4225 31.0741 81.2863C31.2173 81.1501 31.2341 80.9351 31.1116 80.8063ZM33.2386 80.2129C33.1162 80.0842 32.9007 80.09 32.7575 80.2262C32.6142 80.3625 32.5974 80.5775 32.7199 80.7062C32.8424 80.835 33.0578 80.8292 33.2011 80.6929C33.3443 80.5567 33.3612 80.3422 33.2386 80.2129Z" fill="#B9D27E"/>
<path d="M31.1115 80.8063C31.234 80.9351 31.2173 81.1501 31.0741 81.2863C30.931 81.4225 30.7155 81.4284 30.593 81.2996C30.4705 81.1703 30.4872 80.9553 30.6305 80.8196C30.7736 80.6834 30.9891 80.6775 31.1115 80.8063ZM30.9445 80.8691C30.9124 80.834 30.8549 80.835 30.8163 80.8707C30.7776 80.9063 30.7722 80.9638 30.8043 80.9984C30.8365 81.033 30.8939 81.0325 30.9325 80.9968C30.9712 80.9612 30.9766 80.9037 30.9445 80.8691Z" fill="#4B4948"/>
<path d="M30.9325 80.9968C30.9712 80.9606 30.9766 80.9037 30.9444 80.8691C30.9124 80.834 30.855 80.835 30.8163 80.8707C30.7776 80.9069 30.7722 80.9638 30.8043 80.9984C30.8364 81.0335 30.8938 81.0324 30.9325 80.9968Z" fill="white"/>
<path d="M33.2387 80.2129C33.3612 80.3417 33.3443 80.5567 33.2011 80.6929C33.0579 80.8292 32.8424 80.835 32.7199 80.7062C32.5974 80.5775 32.6142 80.3625 32.7575 80.2263C32.9007 80.09 33.1162 80.0842 33.2387 80.2129ZM33.0602 80.3284C33.0405 80.2874 32.9913 80.2699 32.9503 80.2896C32.9093 80.3093 32.892 80.3582 32.9115 80.3992C32.9312 80.4402 32.9804 80.4577 33.0214 80.438C33.0624 80.4184 33.0798 80.3694 33.0602 80.3284Z" fill="#4B4948"/>
<path d="M33.0214 80.438C33.0624 80.4184 33.0798 80.3694 33.0602 80.3284C33.0405 80.2875 32.9914 80.2699 32.9503 80.2896C32.9093 80.3093 32.8919 80.3582 32.9116 80.3992C32.9312 80.4402 32.9804 80.4577 33.0214 80.438Z" fill="white"/>
<path d="M31.88 87.5859C32.0721 87.5433 32.1864 87.6199 32.205 87.7775C32.2249 87.9446 32.1273 88.0515 31.9513 88.0686C31.6166 88.101 31.2805 88.0494 31.0069 87.936L31.2175 88.3767C31.2822 88.5118 31.2289 88.6156 31.0763 88.6885C30.9236 88.7614 30.8098 88.738 30.7451 88.6023L30.5592 88.2138C30.4252 88.5182 30.1862 88.8694 29.8793 89.1009C29.8198 89.1541 29.7613 89.1504 29.7107 89.1041C29.6588 89.0546 29.6598 88.9972 29.7095 88.9312C29.9426 88.671 30.1077 88.3868 30.2003 88.0771L29.5838 88.3719C29.506 88.4091 29.4408 88.3836 29.4009 88.3C29.3609 88.2165 29.3821 88.15 29.4599 88.1127L30.3155 87.7035L30.2825 87.6343C30.2288 87.522 30.2632 87.4316 30.3544 87.3629C30.3389 87.3528 30.3191 87.3411 30.3037 87.3235C30.2223 87.2421 30.1267 87.1607 30.0563 87.1022C30.0436 87.0905 30.0324 87.0814 30.024 87.0713C29.8597 87.157 29.6868 87.24 29.5241 87.314C29.6511 87.3204 29.8046 87.3603 29.9251 87.4124C30.0711 87.4736 30.1137 87.5699 30.0413 87.7003C29.9706 87.8259 29.8615 87.8568 29.732 87.7487C29.6391 87.6732 29.5263 87.5923 29.4359 87.5364C29.3709 87.497 29.349 87.4438 29.3714 87.3869L29.3744 87.3784C29.3283 87.4007 29.2809 87.4199 29.2363 87.4374C29.15 87.4715 29.1004 87.4491 29.0687 87.3831C29.0385 87.3198 29.0565 87.2687 29.1358 87.2272C29.6186 86.9787 30.04 86.735 30.4177 86.4513C30.3391 86.4572 30.2757 86.4136 30.2287 86.3226L29.7447 86.5541L29.7598 86.5855C29.8273 86.7265 29.7798 86.827 29.6387 86.8946C29.4975 86.9622 29.3895 86.9361 29.322 86.7946L29.3068 86.7632L28.8488 86.9819C28.7652 87.0218 28.6958 86.9952 28.6572 86.9143C28.6173 86.8308 28.6441 86.7685 28.7276 86.7286L29.1856 86.5099L29.1788 86.495C29.1113 86.354 29.1761 86.2454 29.3 86.1858C29.4411 86.1188 29.5492 86.1448 29.6167 86.2858L29.6236 86.3002L30.1075 86.0693L30.102 86.0576C30.0332 85.9133 30.0951 85.8058 30.2247 85.7441C30.3687 85.6755 30.4768 85.7015 30.5457 85.8452L30.5511 85.8569L31.0323 85.627C31.1101 85.5898 31.1811 85.6127 31.221 85.6962C31.2582 85.7739 31.2312 85.8436 31.1534 85.8804L30.6723 86.1108C30.6915 86.1581 30.6994 86.1965 30.6958 86.2337L30.8206 86.1246C30.9193 86.0347 31.0394 86.0272 31.1277 86.123C31.2173 86.2215 31.2267 86.3375 31.1022 86.4322C31.0863 86.4434 31.0704 86.4545 31.053 86.47C31.0716 86.4647 31.093 86.4652 31.1144 86.4652C31.2671 86.4737 31.3251 86.5876 31.2938 86.7371C31.2504 86.9276 31.1804 87.0921 31.078 87.2262C31.0342 87.2826 30.9895 87.307 30.927 87.2874C30.8645 87.2677 30.8283 87.2145 30.8439 87.1431C30.8702 87.0282 30.8786 86.8755 30.8744 86.711C30.8726 86.6552 30.8834 86.6115 30.904 86.5732C30.7393 86.6802 30.5373 86.7978 30.3181 86.917C30.392 86.9383 30.4628 86.9681 30.5307 87.0064C30.6481 87.074 30.6706 87.1729 30.6043 87.2863C30.6684 87.2943 30.7191 87.3337 30.7549 87.4087L30.788 87.4779L31.6522 87.0649C31.73 87.0277 31.7952 87.0532 31.8351 87.1368C31.875 87.2203 31.8539 87.2868 31.7761 87.3241L31.0732 87.6599C31.3057 87.6726 31.5731 87.6545 31.88 87.5859ZM34.876 86.1539C35.0681 86.1118 35.1825 86.1879 35.2011 86.3454C35.2209 86.5131 35.1233 86.6195 34.9474 86.6365C34.6126 86.669 34.2765 86.6174 34.0029 86.504L34.2135 86.9447C34.2782 87.0804 34.225 87.1836 34.0723 87.2565C33.9196 87.3294 33.8058 87.306 33.7411 87.1708L33.5552 86.7818C33.4213 87.0862 33.1822 87.4374 32.8753 87.6694C32.8158 87.7227 32.7573 87.7184 32.7067 87.6721C32.6548 87.6226 32.6558 87.5651 32.7056 87.4992C32.9387 87.2389 33.1037 86.9548 33.1963 86.6451L32.5798 86.9399C32.5021 86.9771 32.4368 86.9516 32.3969 86.868C32.3569 86.7845 32.3781 86.718 32.4559 86.6807L33.3115 86.272L33.2785 86.2028C33.2248 86.09 33.2592 85.9996 33.3504 85.9309C33.3349 85.9208 33.3151 85.9091 33.2997 85.8915C33.2183 85.8101 33.1227 85.7287 33.0523 85.6702C33.0396 85.6584 33.0284 85.6499 33.02 85.6398C32.8557 85.7255 32.6828 85.808 32.5201 85.8819C32.6471 85.8889 32.8007 85.9282 32.9211 85.9804C33.0671 86.0416 33.1097 86.1384 33.0374 86.2683C32.9666 86.3944 32.8575 86.4253 32.728 86.3172C32.6351 86.2412 32.5223 86.1608 32.4319 86.1049C32.3669 86.065 32.345 86.0118 32.3674 85.9549L32.3705 85.9463C32.3244 85.9687 32.2769 85.9878 32.2323 86.0054C32.146 86.0395 32.0964 86.0171 32.0647 85.9511C32.0345 85.8878 32.0525 85.8367 32.1318 85.7952C32.6146 85.5467 33.036 85.303 33.4138 85.0199C33.3351 85.0252 33.2717 84.9815 33.2247 84.8906L32.7407 85.122L32.7559 85.1534C32.8233 85.295 32.7759 85.3956 32.6347 85.4626C32.4936 85.5302 32.3855 85.5041 32.318 85.3631L32.3029 85.3312L31.8448 85.5499C31.7613 85.5903 31.6918 85.5632 31.6532 85.4823C31.6133 85.3988 31.6401 85.3365 31.7236 85.2966L32.1817 85.0779L32.1748 85.0635C32.1074 84.9219 32.1721 84.8134 32.296 84.7543C32.4371 84.6867 32.5452 84.7128 32.6127 84.8538L32.6196 84.8682L33.1036 84.6372L33.098 84.6255C33.0292 84.4813 33.0911 84.3744 33.2207 84.3121C33.3648 84.2435 33.4729 84.2695 33.5417 84.4137L33.5472 84.4249L34.0283 84.195C34.1061 84.1578 34.1771 84.1807 34.217 84.2642C34.2542 84.3419 34.2272 84.4116 34.1494 84.4489L33.6684 84.6788C33.6875 84.7261 33.6954 84.765 33.6918 84.8017L33.8166 84.6926C33.9154 84.6032 34.0355 84.5952 34.1237 84.691C34.2134 84.7894 34.2227 84.9055 34.0982 85.0007C34.0823 85.0114 34.0664 85.0225 34.049 85.038C34.0677 85.0326 34.089 85.0332 34.1105 85.0337C34.2631 85.0417 34.3211 85.1556 34.2899 85.3051C34.2465 85.4956 34.1764 85.66 34.0741 85.7941C34.0302 85.8506 33.9855 85.8756 33.923 85.8559C33.8605 85.8362 33.8244 85.7824 33.8399 85.7111C33.8662 85.5962 33.8746 85.4435 33.8704 85.279C33.8686 85.2237 33.8794 85.1795 33.9 85.1412C33.7353 85.2482 33.5333 85.3658 33.3141 85.485C33.388 85.5062 33.4589 85.536 33.5267 85.5744C33.6441 85.6419 33.6666 85.7409 33.6003 85.8543C33.6644 85.8623 33.7151 85.9022 33.7509 85.9767L33.784 86.0458L34.6482 85.6329C34.726 85.5956 34.7912 85.6212 34.8311 85.7047C34.8711 85.7883 34.8499 85.8548 34.7721 85.8921L34.0692 86.2284C34.3017 86.2406 34.5692 86.2225 34.876 86.1539ZM37.5304 83.7778C37.6197 83.7353 37.6934 83.7635 37.7402 83.8614C37.7871 83.9593 37.7629 84.0349 37.6736 84.0774L36.769 84.5095L37.1201 85.2444C37.3349 85.6936 36.9561 86.0341 36.2505 86.0384C36.172 86.0373 36.1298 86.0006 36.1125 85.9277C36.098 85.8601 36.1303 85.809 36.2138 85.7766C36.6266 85.6111 36.6714 85.5792 36.5874 85.403L36.2735 84.7463L35.32 85.2024C35.2307 85.245 35.1569 85.2162 35.1101 85.1183C35.0633 85.0204 35.0875 84.9454 35.1768 84.9028L36.1303 84.4467L35.9968 84.1674C35.9196 84.0061 35.9675 83.8842 36.1288 83.8071C36.1865 83.7794 36.241 83.7677 36.2909 83.7682C36.343 83.648 36.3941 83.5102 36.4353 83.3596C36.4431 83.3239 36.4193 83.2968 36.3905 83.3106L35.0192 83.9657C34.9328 84.0072 34.8606 83.9742 34.8206 83.8906C34.7807 83.8071 34.809 83.7406 34.8925 83.7007L36.3502 83.0041C36.4806 82.8178 36.6741 82.7784 36.8103 82.8338C36.9591 82.8934 37.0292 83.0477 36.9632 83.2276C36.8716 83.4804 36.7215 83.7289 36.5129 83.9737L36.6258 84.2099L37.5304 83.7778Z" fill="#4D886C"/>
<path d="M110.305 100.388C110.266 100.407 110.248 100.445 110.272 100.491L110.954 101.815L112.453 101.042C112.718 100.906 112.939 100.983 113.084 101.263C113.228 101.543 113.162 101.769 112.897 101.905L111.399 102.678L112.375 104.57C112.597 105.001 112.472 105.353 112.063 105.564C111.647 105.779 111.296 105.672 111.073 105.241L108.814 100.859C108.607 100.458 108.709 100.118 109.103 99.9153L111.524 98.6663C111.789 98.5301 112.011 98.6073 112.156 98.8872C112.3 99.1671 112.234 99.3927 111.969 99.529L110.305 100.388ZM116.541 98.6179C116.893 98.7435 117.182 99.0256 117.408 99.464L118.447 101.477C118.657 101.886 118.612 102.187 118.218 102.39C117.817 102.597 117.522 102.471 117.312 102.063L117.3 102.04C117.276 102.607 116.916 103.061 116.319 103.369C115.517 103.784 114.783 103.567 114.396 102.819C113.932 101.918 114.483 100.925 115.754 100.269C115.906 100.191 116.068 100.117 116.175 100.081L116.14 100.013C115.944 99.6349 115.616 99.5167 115.207 99.7088C114.873 99.8616 114.6 100.185 114.472 100.643C114.392 100.934 114.143 101.1 113.867 101.032C113.589 100.974 113.438 100.736 113.498 100.427C113.599 99.9536 114.013 99.2895 114.808 98.8797C115.512 98.5168 116.04 98.4455 116.541 98.6179ZM116.787 101.231L116.588 100.846C116.482 100.881 116.307 100.951 116.167 101.033C115.461 101.446 115.355 101.854 115.522 102.142C115.67 102.391 115.907 102.461 116.217 102.301C116.573 102.117 116.8 101.684 116.787 101.231ZM119.006 100.652C119.053 100.427 119.249 100.287 119.508 100.307C119.806 100.326 120.201 100.294 120.534 100.123C120.867 99.951 120.983 99.786 120.882 99.5891C120.784 99.3997 120.635 99.314 119.836 99.3624C118.888 99.4199 118.323 99.3087 118.003 98.6882C117.652 98.007 118.068 97.1981 119.037 96.699C119.688 96.3632 120.239 96.3377 120.557 96.4132C120.809 96.475 120.956 96.6862 120.917 96.9267C120.879 97.1673 120.622 97.3573 120.332 97.3147C120.084 97.2801 119.819 97.3594 119.538 97.5036C119.251 97.6521 119.161 97.8319 119.243 97.991C119.337 98.1725 119.535 98.1853 120.228 98.1539C121.32 98.0985 121.84 98.2518 122.148 98.8499C122.57 99.6673 121.993 100.444 121.183 100.861C120.608 101.158 119.861 101.361 119.367 101.204C119.092 101.115 118.948 100.911 119.006 100.652ZM125.243 97.4743C125.463 97.361 125.736 97.5558 125.833 97.7447C126.036 98.1385 125.535 98.5408 125.119 98.7552C124.248 99.2038 123.64 98.9904 123.176 98.09L122.243 96.2813L121.819 96.5C121.577 96.625 121.355 96.5287 121.219 96.2637C121.078 95.9912 121.14 95.7581 121.375 95.6373L121.798 95.4186L121.552 94.9418C121.342 94.5331 121.455 94.1968 121.872 93.9824C122.288 93.7674 122.628 93.8701 122.839 94.2788L123.085 94.7556L123.577 94.5017C123.819 94.3767 124.041 94.473 124.177 94.738C124.318 95.0105 124.256 95.2436 124.021 95.3644L123.53 95.6182L124.455 97.4115C124.611 97.7143 124.764 97.8075 124.9 97.7372C125.044 97.6632 125.107 97.5446 125.243 97.4743ZM129.102 95.3793C129.228 95.1222 129.455 95.0243 129.685 95.1169C129.911 95.2015 130.032 95.417 129.962 95.673C129.861 96.0705 129.399 96.6245 128.65 97.0108C127.462 97.6233 126.238 97.4977 125.52 96.1051C124.829 94.7657 125.183 93.5199 126.447 92.8686C127.688 92.2284 128.785 92.8318 129.245 93.7248C129.467 94.1558 129.365 94.4959 128.903 94.7343L126.981 95.7252C127.381 96.3142 127.782 96.4047 128.327 96.1429C128.702 95.9593 128.95 95.6969 129.102 95.3793ZM126.872 93.6551C126.395 93.9009 126.351 94.3357 126.552 94.8929L127.93 94.1824C127.975 94.159 127.986 94.125 127.963 94.0792C127.693 93.5572 127.296 93.4364 126.872 93.6551ZM130.491 94.73C130.537 94.5049 130.733 94.3655 130.993 94.3847C131.29 94.4038 131.685 94.3724 132.019 94.2005C132.352 94.0292 132.468 93.8637 132.366 93.6673C132.269 93.4779 132.119 93.3922 131.32 93.4401C130.373 93.4976 129.808 93.3869 129.488 92.7664C129.136 92.0852 129.553 91.2764 130.521 90.7767C131.172 90.4414 131.724 90.4153 132.041 90.4914C132.293 90.5532 132.441 90.7644 132.402 91.005C132.362 91.245 132.106 91.435 131.816 91.3929C131.568 91.3578 131.302 91.4376 131.022 91.5818C130.735 91.7303 130.646 91.9102 130.728 92.0693C130.821 92.2507 131.02 92.2635 131.712 92.2321C132.805 92.1762 133.325 92.33 133.633 92.9276C134.054 93.745 133.477 94.5214 132.668 94.9392C132.093 95.2356 131.345 95.4389 130.852 95.2813C130.576 95.1935 130.433 94.9897 130.491 94.73ZM136.728 91.552C136.947 91.4387 137.22 91.6334 137.318 91.8229C137.521 92.2161 137.019 92.6185 136.603 92.8329C135.733 93.282 135.124 93.0687 134.66 92.1683L133.727 90.3595L133.304 90.5782C133.062 90.7027 132.839 90.6064 132.703 90.3419C132.562 90.0694 132.624 89.8364 132.859 89.715L133.282 89.4969L133.037 89.02C132.826 88.6114 132.94 88.275 133.356 88.06C133.772 87.8456 134.113 87.9478 134.323 88.3565L134.569 88.8333L135.061 88.58C135.303 88.4549 135.525 88.5512 135.662 88.8157C135.802 89.0882 135.74 89.3213 135.506 89.4426L135.014 89.6959L135.939 91.4898C136.095 91.792 136.248 91.8857 136.384 91.8154C136.528 91.7409 136.591 91.6223 136.728 91.552ZM116.837 115.067C116.368 115.309 115.761 115.507 115.334 115.479C115.037 115.459 114.793 115.211 114.786 114.918C114.783 114.651 114.99 114.439 115.248 114.421C115.526 114.402 115.907 114.379 116.194 114.23C116.785 113.926 117.118 113.457 116.844 112.927C116.497 112.254 116.036 112.233 115.109 112.682C114.84 112.811 114.61 112.738 114.474 112.473C114.345 112.223 114.407 111.971 114.679 111.831C115.489 111.413 115.719 110.949 115.462 110.45C115.212 109.966 114.827 109.925 114.312 110.191C114.04 110.331 113.861 110.596 113.757 110.822C113.642 111.082 113.286 111.266 112.983 111.068C112.722 110.896 112.672 110.596 112.832 110.293C113.055 109.871 113.606 109.434 114.03 109.215C115.044 108.692 116.145 108.709 116.652 109.693C116.96 110.291 116.786 110.955 116.194 111.481C117.108 111.192 117.828 111.453 118.214 112.202C118.76 113.261 118.229 114.349 116.837 115.067ZM123.04 106.61C123.887 106.172 124.729 106.486 125.201 107.402L126.262 109.46C126.469 109.861 126.359 110.167 125.943 110.382C125.526 110.596 125.213 110.509 125.006 110.108L123.972 108.102C123.754 107.678 123.463 107.541 123.122 107.717C122.766 107.9 122.652 108.237 122.708 108.697L123.765 110.748C123.972 111.148 123.846 111.462 123.43 111.677C123.014 111.892 122.686 111.812 122.479 111.411L120.001 106.606C119.79 106.197 119.904 105.88 120.328 105.661C120.752 105.442 121.077 105.534 121.287 105.942L122.208 107.728C122.26 107.252 122.54 106.867 123.04 106.61ZM129.358 108.63C128.019 109.321 126.902 108.881 126.203 107.527C125.571 106.301 126.013 105.077 127.262 104.433C128.495 103.796 129.684 104.17 130.327 105.4C131.049 106.781 130.645 107.966 129.358 108.63ZM128.941 107.782C129.455 107.497 129.487 107.002 129.023 106.102C128.601 105.284 128.179 105.004 127.653 105.285C127.142 105.558 127.107 106.064 127.532 106.87C127.98 107.721 128.404 108.078 128.941 107.782ZM133.203 101.369C133.611 101.158 133.944 101.264 134.147 101.658L135.692 104.655C135.868 104.995 135.78 105.309 135.409 105.5C135.046 105.687 134.736 105.588 134.553 105.252L134.514 105.176C134.494 105.675 134.18 106.124 133.642 106.402C132.727 106.874 131.886 106.599 131.402 105.66L130.352 103.624C130.145 103.224 130.259 102.887 130.675 102.672C131.091 102.458 131.432 102.56 131.638 102.961L132.602 104.83C132.879 105.368 133.179 105.539 133.557 105.344C133.973 105.129 133.942 104.513 133.855 104.175L132.891 102.306C132.688 101.912 132.801 101.576 133.203 101.369ZM137.9 99.5215C138.153 99.918 137.954 100.183 137.607 100.42C137.233 100.679 137.058 101.268 137.202 101.826L138.01 103.393C138.228 103.817 138.064 104.131 137.648 104.345C137.232 104.56 136.938 104.472 136.723 104.056L135.158 101.022C134.971 100.658 135.131 100.375 135.502 100.184C135.85 100.004 136.171 100.069 136.362 100.439L136.546 100.795C136.381 100.085 136.604 99.6439 137.042 99.3986C137.379 99.2155 137.695 99.1964 137.9 99.5215ZM139.695 101.958C139.742 101.733 139.939 101.593 140.198 101.613C140.495 101.632 140.891 101.601 141.223 101.429C141.556 101.257 141.672 101.092 141.571 100.895C141.473 100.706 141.324 100.62 140.525 100.668C139.577 100.726 139.012 100.615 138.692 99.9941C138.341 99.3134 138.757 98.5046 139.726 98.0049C140.377 97.6696 140.929 97.6436 141.246 97.7197C141.498 97.7814 141.645 97.9926 141.606 98.2332C141.568 98.4732 141.311 98.6632 141.021 98.6211C140.773 98.586 140.507 98.6653 140.228 98.81C139.94 98.958 139.851 99.1384 139.933 99.2975C140.026 99.4789 140.224 99.4917 140.917 99.4603C142.009 99.4044 142.529 99.5582 142.837 100.156C143.259 100.973 142.682 101.75 141.872 102.167C141.297 102.464 140.55 102.667 140.056 102.51C139.781 102.422 139.637 102.218 139.695 101.958Z" fill="#DB5331"/>
</svg>
