        <svg class="homepage_section3_red1" width="84" height="81" viewBox="0 0 317 280" fill="none"
          xmlns="http://www.w3.org/2000/svg">
          <path
            d="M106.333 269.384C55.4465 251.681 -1.10291 208.294 0.309879 148.129C0.711508 131.05 5.81929 113.959 13.7148 98.799C23.9871 79.0832 38.7718 62.0304 55.6568 47.709C71.4195 34.3399 89.1385 22.854 107.999 14.3312C120.206 8.81622 132.902 4.85605 146.087 2.45301C192.27 -5.96825 238.913 7.80255 273.312 39.5312C283.978 49.3678 292.559 60.6954 299.803 73.2706C315.05 99.7394 321.051 129.349 314.058 159.411C304.407 200.903 275.414 236.233 239.858 258.631C219.609 271.388 197.482 278.358 173.478 279.547C158.833 280.27 144.183 278.944 129.857 275.861C121.937 274.157 113.985 272.047 106.333 269.384ZM161.604 61.5337C159.752 57.3921 154.519 55.7026 149.915 57.7632C145.312 59.8235 143.082 64.8493 144.934 68.9919C146.786 73.1335 152.019 74.823 156.623 72.7624C161.226 70.7021 163.456 65.6763 161.604 61.5337ZM217.852 65.1424C215.992 61.0025 210.757 59.3225 206.157 61.3892C201.559 63.4552 199.338 68.4881 201.199 72.6277C203.059 76.7676 208.295 78.4476 212.894 76.3809C217.492 74.3149 219.713 69.282 217.852 65.1424Z"
            fill="#DBAC95" />
          <path
            d="M161.604 61.5337C163.456 65.6763 161.226 70.7021 156.623 72.7623C152.019 74.8229 146.786 73.1335 144.934 68.9918C143.082 64.8493 145.312 59.8234 149.915 57.7632C154.519 55.7026 159.752 57.392 161.604 61.5337ZM157.002 61.6019C156.511 60.5063 155.128 60.0597 153.91 60.6036C152.693 61.149 152.104 62.4793 152.594 63.574C153.085 64.6697 154.467 65.1163 155.685 64.5724C156.903 64.027 157.491 62.6967 157.002 61.6019Z"
            fill="#4B4948" />
          <path
            d="M155.685 64.5724C156.903 64.0278 157.492 62.6979 157.002 61.602C156.512 60.506 155.127 60.0591 153.91 60.6037C152.693 61.1482 152.104 62.4781 152.594 63.5741C153.084 64.67 154.468 65.117 155.685 64.5724Z"
            fill="white" />
          <path
            d="M217.852 65.1424C219.713 69.282 217.492 74.315 212.894 76.3809C208.295 78.4476 203.059 76.7676 201.199 72.6277C199.338 68.4881 201.559 63.4552 206.157 61.3892C210.757 59.3226 215.992 61.0026 217.852 65.1424ZM212.58 66.6309C212.58 65.4778 211.645 64.5421 210.492 64.5421C209.339 64.5421 208.403 65.4778 208.403 66.6309C208.403 67.784 209.339 68.7197 210.492 68.7197C211.645 68.7197 212.58 67.784 212.58 66.6309Z"
            fill="#4B4948" />
          <path
            d="M210.492 68.7197C211.645 68.7197 212.58 67.7845 212.58 66.6309C212.58 65.4773 211.645 64.5421 210.492 64.5421C209.338 64.5421 208.403 65.4773 208.403 66.6309C208.403 67.7845 209.338 68.7197 210.492 68.7197Z"
            fill="white" />
        </svg>