        <svg class="homepage_section4_yellow2" width="42" height="35" viewBox="0 0 297 224" fill="none"
          xmlns="http://www.w3.org/2000/svg">
          <path
            d="M45.5409 206.855C34.6253 201.801 24.3158 194.941 16.3505 185.956C10.0929 178.896 5.67452 169.849 3.2598 160.548C-1.59078 141.848 0.645423 122.082 6.09733 103.773C11.5023 85.6257 19.4534 68.6896 29.9509 52.9596C37.8034 41.1946 47.2462 30.5509 58.446 21.8885C74.5527 9.43083 94.3849 2.29972 114.581 0.695393C141.646 -1.45549 168.659 5.91593 192.841 17.6645C211.555 26.7533 228.977 38.3228 244.335 52.3C260.098 66.647 274.822 83.3311 285.042 102.173C292.204 115.375 297.252 130.7 296.077 145.914C292.645 190.371 244.269 208.824 207.848 216.436C190.999 219.955 174.226 222.014 157.231 223.009C141.683 223.92 126.15 223.737 110.63 222.457C88.4538 220.629 65.8616 216.257 45.5409 206.855ZM145.177 26.8403C141.888 22.7366 135.534 22.3832 130.984 26.0513C126.436 29.7193 125.414 36.0188 128.705 40.1229C131.994 44.2265 138.348 44.5799 142.897 40.9118C147.445 37.2439 148.467 30.9443 145.177 26.8403ZM81.1829 39.3272C77.8788 35.2343 71.5226 34.9021 66.9879 38.5846C62.4533 42.2665 61.455 48.5707 64.7609 52.6644C68.0649 56.7572 74.4212 57.0894 78.9558 53.407C83.4905 49.7251 84.4888 43.4209 81.1829 39.3272Z"
            fill="#F6DD6F" />
          <path
            d="M145.177 26.8402C148.467 30.9443 147.445 37.2438 142.897 40.9118C138.348 44.5799 131.994 44.2265 128.705 40.1229C125.415 36.0188 126.436 29.7193 130.984 26.0513C135.534 22.3832 141.888 22.7366 145.177 26.8402ZM139.771 30.6663C139.771 29.3282 138.688 28.2422 137.354 28.2422C136.02 28.2422 134.937 29.3282 134.937 30.6663C134.937 32.0044 136.02 33.0905 137.354 33.0905C138.688 33.0905 139.771 32.0044 139.771 30.6663Z"
            fill="#4B4948" />
          <path
            d="M137.354 33.0905C138.689 33.0905 139.771 32.0052 139.771 30.6663C139.771 29.3275 138.689 28.2422 137.354 28.2422C136.019 28.2422 134.937 29.3275 134.937 30.6663C134.937 32.0052 136.019 33.0905 137.354 33.0905Z"
            fill="white" />
          <path
            d="M81.1829 39.3272C84.4888 43.4209 83.4905 49.7251 78.9558 53.407C74.4212 57.0894 68.0649 56.7573 64.7609 52.6644C61.455 48.5707 62.4533 42.2665 66.988 38.5846C71.5226 34.9022 77.8789 35.2343 81.1829 39.3272ZM76.0929 40.8114C75.2363 39.7151 73.5568 39.5997 72.3427 40.5543C71.128 41.5079 70.8391 43.1712 71.6972 44.2682C72.5538 45.3644 74.2333 45.4799 75.4473 44.5253C76.6621 43.5716 76.951 41.9084 76.0929 40.8114Z"
            fill="#4B4948" />
          <path
            d="M75.4473 44.5253C76.6611 43.5707 76.9502 41.9079 76.0928 40.8114C75.2355 39.7148 73.5566 39.5997 72.3427 40.5542C71.1289 41.5088 70.8399 43.1715 71.6972 44.2681C72.5545 45.3647 74.2335 45.4798 75.4473 44.5253Z"
            fill="white" />
        </svg>