<svg class="homepage_section1_orange"
        width="84" height="81" viewBox="0 0 84 81" fill="none" xmlns="http://www.w3.org/2000/svg">
        <path
          d="M12.2723 69.6077C4.27392 61.3805 0.258519 49.8895 0.0100321 38.5715C-0.0310222 36.7307 0.0539673 34.8956 0.264281 33.0663C2.06275 17.4153 14.2487 5.35728 29.0304 1.36797C37.8506 -1.01178 47.2484 -0.294178 55.5118 3.57985C61.1168 6.20745 66.0506 10.2811 70.1149 15.0528C78.66 25.0855 83.7133 37.7415 83.9906 50.9551C84.0871 55.5396 83.4511 60.2032 81.7491 64.4959C80.0998 68.6559 77.0452 71.808 73.3215 74.1863C64.6446 79.7283 53.6197 80.9877 43.5521 80.5994C37.489 80.3652 31.5938 79.2405 25.867 77.2246C22.3083 75.9717 18.8439 74.3665 15.6589 72.3376C14.4215 71.5494 13.2951 70.6603 12.2723 69.6077ZM44.4243 14.0486C44.0008 12.5095 42.2715 11.6442 40.5615 12.1154C38.8517 12.5866 37.8095 14.2156 38.2331 15.7544C38.6565 17.2935 40.3859 18.1588 42.0958 17.6876C43.8056 17.2164 44.8478 15.5874 44.4243 14.0486ZM63.7873 18.2589C63.3583 16.7214 61.6253 15.8619 59.917 16.3387C58.2085 16.8158 57.1713 18.4492 57.6008 19.9867C58.0298 21.5242 59.7628 22.3837 61.4711 21.9069C63.1796 21.4298 64.2168 19.7965 63.7873 18.2589Z"
          fill="#EABC6A" />
        <path
          d="M44.4242 14.0485C44.8478 15.5873 43.8056 17.2163 42.0958 17.6875C40.3858 18.1587 38.6565 17.2934 38.233 15.7543C37.8095 14.2155 38.8517 12.5865 40.5614 12.1153C42.2714 11.6441 44.0008 12.5094 44.4242 14.0485ZM42.8192 13.8221C42.7057 13.4158 42.2477 13.1881 41.7958 13.3142C41.3445 13.4403 41.0701 13.8726 41.1834 14.2789C41.2969 14.6853 41.755 14.9129 42.2068 14.7868C42.6582 14.6608 42.9326 14.2285 42.8192 13.8221Z"
          fill="#4B4948" />
        <path
          d="M42.2069 14.7868C42.6586 14.6607 42.9328 14.2288 42.8193 13.8221C42.7058 13.4155 42.2476 13.1881 41.7959 13.3143C41.3442 13.4405 41.07 13.8724 41.1835 14.279C41.297 14.6856 41.7552 14.913 42.2069 14.7868Z"
          fill="white" />
        <path
          d="M63.7875 18.2588C64.2169 19.7964 63.1798 21.4297 61.4713 21.9068C59.7629 22.3836 58.03 21.5241 57.6009 19.9867C57.1714 18.4491 58.2086 16.8157 59.9171 16.3386C61.6255 15.8618 63.3584 16.7214 63.7875 18.2588ZM61.8819 18.3886C61.8819 17.9829 61.5527 17.6537 61.1472 17.6537C60.7417 17.6537 60.4126 17.9829 60.4126 18.3886C60.4126 18.7942 60.7417 19.1234 61.1472 19.1234C61.5527 19.1234 61.8819 18.7942 61.8819 18.3886Z"
          fill="#4B4948" />
        <path
          d="M61.1472 19.1235C61.553 19.1235 61.8819 18.7944 61.8819 18.3886C61.8819 17.9827 61.553 17.6537 61.1472 17.6537C60.7415 17.6537 60.4126 17.9827 60.4126 18.3886C60.4126 18.7944 60.7415 19.1235 61.1472 19.1235Z"
          fill="white" />
      </svg>