        <svg class="homepage_section4_yellow1" width="42" height="35" viewBox="0 0 296 224" fill="none"
          xmlns="http://www.w3.org/2000/svg">
          <path
            d="M250.706 206.531C261.622 201.478 271.931 194.618 279.897 185.633C286.154 178.572 290.573 169.526 292.987 160.225C297.838 141.524 295.602 121.759 290.15 103.449C284.745 85.3024 276.794 68.3663 266.296 52.6364C258.444 40.8713 249.001 30.2277 237.801 21.5653C221.694 9.10759 201.862 1.97648 181.666 0.372151C154.601 -1.77873 127.589 5.59269 103.406 17.3412C84.6921 26.4301 67.2699 37.9996 51.9125 51.9768C36.1487 66.3238 21.4255 83.0078 11.2052 101.85C4.04331 115.052 -1.0046 130.377 0.169869 145.591C3.60168 190.048 51.9783 208.501 88.3987 216.113C105.248 219.632 122.022 221.691 139.016 222.685C154.564 223.597 170.097 223.413 185.617 222.134C207.793 220.306 230.386 215.934 250.706 206.531ZM151.07 26.517C154.36 22.4134 160.713 22.06 165.263 25.7281C169.811 29.3961 170.833 35.6956 167.542 39.7996C164.253 43.9033 157.899 44.2567 153.35 40.5886C148.802 36.9206 147.78 30.6211 151.07 26.517ZM215.064 39.0039C218.368 34.9111 224.725 34.5789 229.259 38.2613C233.794 41.9433 234.792 48.2475 231.486 52.3412C228.182 56.434 221.826 56.7662 217.291 53.0837C212.757 49.4018 211.758 43.0976 215.064 39.0039Z"
            fill="#F6DD6F" />
          <path
            d="M151.07 26.517C147.78 30.6211 148.802 36.9206 153.35 40.5886C157.899 44.2567 164.253 43.9033 167.542 39.7996C170.833 35.6955 169.811 29.396 165.263 25.728C160.713 22.06 154.359 22.4133 151.07 26.517ZM156.476 30.3431C156.476 29.005 157.559 27.9189 158.893 27.9189C160.227 27.9189 161.31 29.005 161.31 30.3431C161.31 31.6812 160.227 32.7672 158.893 32.7672C157.559 32.7672 156.476 31.6812 156.476 30.3431Z"
            fill="#4B4948" />
          <path
            d="M158.893 32.7673C157.558 32.7673 156.476 31.6819 156.476 30.3431C156.476 29.0043 157.558 27.9189 158.893 27.9189C160.228 27.9189 161.31 29.0043 161.31 30.3431C161.31 31.6819 160.228 32.7673 158.893 32.7673Z"
            fill="white" />
          <path
            d="M215.064 39.0039C211.758 43.0976 212.757 49.4018 217.291 53.0838C221.826 56.7662 228.182 56.434 231.486 52.3412C234.792 48.2475 233.794 41.9433 229.259 38.2614C224.725 34.5789 218.368 34.9111 215.064 39.0039ZM220.154 40.4882C221.011 39.3919 222.69 39.2765 223.904 40.231C225.119 41.1847 225.408 42.8479 224.55 43.9449C223.693 45.0412 222.014 45.1566 220.8 44.2021C219.585 43.2484 219.296 41.5852 220.154 40.4882Z"
            fill="#4B4948" />
          <path
            d="M220.8 44.202C219.586 43.2475 219.297 41.5847 220.154 40.4881C221.012 39.3916 222.691 39.2764 223.904 40.231C225.118 41.1855 225.407 42.8483 224.55 43.9449C223.693 45.0414 222.014 45.1566 220.8 44.202Z"
            fill="white" />
        </svg>