<svg width="46" height="38"
            viewBox="0 0 46 38" fill="none" xmlns="http://www.w3.org/2000/svg">
            <path
              d="M45.7281 19L29.1124 35.6157C27.7991 36.9268 26.0192 37.6633 24.1634 37.6633C22.3076 37.6633 20.5277 36.9268 19.2144 35.6157C16.6617 33.063 16.5591 28.667 18.9461 26H7.66675C3.80741 26 0.666748 22.8594 0.666748 19C0.666748 15.1407 3.80741 12 7.66675 12H18.9461C16.5591 9.33303 16.6617 4.93703 19.2144 2.38436C20.5277 1.07321 22.3076 0.336784 24.1634 0.336784C26.0192 0.336784 27.7991 1.07321 29.1124 2.38436L45.7281 19ZM21.8301 30.6667C21.8291 31.1286 21.9653 31.5804 22.2215 31.9648C22.4777 32.3491 22.8423 32.6487 23.2691 32.8254C23.6959 33.0022 24.1655 33.0482 24.6185 32.9575C25.0714 32.8669 25.4872 32.6437 25.8131 32.3164L39.1294 19L25.8131 5.68369C25.5966 5.46682 25.3394 5.29477 25.0564 5.17738C24.7733 5.05998 24.4699 4.99956 24.1634 4.99956C23.857 4.99956 23.5535 5.05998 23.2705 5.17738C22.9874 5.29477 22.7303 5.46682 22.5137 5.68369C22.0879 6.12733 21.8502 6.71844 21.8502 7.33336C21.8502 7.94828 22.0879 8.53939 22.5137 8.98303L30.1974 16.6667L7.66675 16.6667C7.06596 16.6936 6.49869 16.9511 6.08306 17.3858C5.66742 17.8204 5.43546 18.3986 5.43546 19C5.43546 19.6014 5.66742 20.1796 6.08306 20.6143C6.49869 21.0489 7.06596 21.3065 7.66675 21.3334L30.1974 21.3334L22.5137 29.017C22.2961 29.233 22.1236 29.49 22.0062 29.7732C21.8889 30.0564 21.829 30.3601 21.8301 30.6667Z"
              fill="white" />
          </svg>