<svg width="10" height="10" viewBox="0 0 26 26" fill="none"
                  xmlns="http://www.w3.org/2000/svg">
                  <path
                    d="M1.26095 1.26101C1.42351 1.09804 1.61663 0.968743 1.82924 0.88052C2.04184 0.792298 2.26977 0.746887 2.49995 0.746887C2.73014 0.746887 2.95806 0.792298 3.17067 0.88052C3.38328 0.968743 3.57639 1.09804 3.73895 1.26101L13 10.5255L22.261 1.26101C22.4237 1.09831 22.6168 0.969239 22.8294 0.881183C23.042 0.793126 23.2699 0.747803 23.5 0.747803C23.7301 0.747803 23.9579 0.793126 24.1705 0.881183C24.3831 0.969239 24.5762 1.09831 24.739 1.26101C24.9017 1.42372 25.0307 1.61688 25.1188 1.82947C25.2068 2.04206 25.2522 2.26991 25.2522 2.50001C25.2522 2.73012 25.2068 2.95797 25.1188 3.17056C25.0307 3.38315 24.9017 3.57631 24.739 3.73902L15.4745 13L24.739 22.261C24.9017 22.4237 25.0307 22.6169 25.1188 22.8295C25.2068 23.0421 25.2522 23.2699 25.2522 23.5C25.2522 23.7301 25.2068 23.958 25.1188 24.1706C25.0307 24.3831 24.9017 24.5763 24.739 24.739C24.5762 24.9017 24.3831 25.0308 24.1705 25.1188C23.9579 25.2069 23.7301 25.2522 23.5 25.2522C23.2699 25.2522 23.042 25.2069 22.8294 25.1188C22.6168 25.0308 22.4237 24.9017 22.261 24.739L13 15.4745L3.73895 24.739C3.57625 24.9017 3.38308 25.0308 3.1705 25.1188C2.95791 25.2069 2.73006 25.2522 2.49995 25.2522C2.26985 25.2522 2.042 25.2069 1.82941 25.1188C1.61682 25.0308 1.42366 24.9017 1.26095 24.739C1.09825 24.5763 0.969178 24.3831 0.881122 24.1706C0.793065 23.958 0.747742 23.7301 0.747742 23.5C0.747742 23.2699 0.793065 23.0421 0.881122 22.8295C0.969178 22.6169 1.09825 22.4237 1.26095 22.261L10.5255 13L1.26095 3.73902C1.09798 3.57646 0.968682 3.38334 0.880459 3.17073C0.792236 2.95812 0.746826 2.7302 0.746826 2.50001C0.746826 2.26983 0.792236 2.0419 0.880459 1.8293C0.968682 1.61669 1.09798 1.42357 1.26095 1.26101Z"
                    fill="#464646" />
                </svg>