<svg width="15" height="15" viewBox="0 0 44 49" fill="none"
                    xmlns="http://www.w3.org/2000/svg">
                    <path
                      d="M41.25 9.5H33.375V6.875C33.375 5.25055 32.7297 3.69263 31.581 2.54397C30.4324 1.39531 28.8745 0.75 27.25 0.75H16.75C15.1255 0.75 13.5676 1.39531 12.419 2.54397C11.2703 3.69263 10.625 5.25055 10.625 6.875V9.5H2.75C2.05381 9.5 1.38613 9.77656 0.893845 10.2688C0.401562 10.7611 0.125 11.4288 0.125 12.125C0.125 12.8212 0.401562 13.4889 0.893845 13.9812C1.38613 14.4734 2.05381 14.75 2.75 14.75H3.625V44.5C3.625 45.6603 4.08594 46.7731 4.90641 47.5936C5.72688 48.4141 6.83968 48.875 8 48.875H36C37.1603 48.875 38.2731 48.4141 39.0936 47.5936C39.9141 46.7731 40.375 45.6603 40.375 44.5V14.75H41.25C41.9462 14.75 42.6139 14.4734 43.1062 13.9812C43.5984 13.4889 43.875 12.8212 43.875 12.125C43.875 11.4288 43.5984 10.7611 43.1062 10.2688C42.6139 9.77656 41.9462 9.5 41.25 9.5ZM15.875 6.875C15.875 6.64294 15.9672 6.42038 16.1313 6.25628C16.2954 6.09219 16.5179 6 16.75 6H27.25C27.4821 6 27.7046 6.09219 27.8687 6.25628C28.0328 6.42038 28.125 6.64294 28.125 6.875V9.5H15.875V6.875ZM35.125 43.625H8.875V14.75H35.125V43.625ZM19.375 21.75V35.75C19.375 36.4462 19.0984 37.1139 18.6062 37.6062C18.1139 38.0984 17.4462 38.375 16.75 38.375C16.0538 38.375 15.3861 38.0984 14.8938 37.6062C14.4016 37.1139 14.125 36.4462 14.125 35.75V21.75C14.125 21.0538 14.4016 20.3861 14.8938 19.8938C15.3861 19.4016 16.0538 19.125 16.75 19.125C17.4462 19.125 18.1139 19.4016 18.6062 19.8938C19.0984 20.3861 19.375 21.0538 19.375 21.75ZM29.875 21.75V35.75C29.875 36.4462 29.5984 37.1139 29.1062 37.6062C28.6139 38.0984 27.9462 38.375 27.25 38.375C26.5538 38.375 25.8861 38.0984 25.3938 37.6062C24.9016 37.1139 24.625 36.4462 24.625 35.75V21.75C24.625 21.0538 24.9016 20.3861 25.3938 19.8938C25.8861 19.4016 26.5538 19.125 27.25 19.125C27.9462 19.125 28.6139 19.4016 29.1062 19.8938C29.5984 20.3861 29.875 21.0538 29.875 21.75Z"
                      fill="#464646" />
                  </svg>