        <svg width="46" height="38" viewBox="0 0 46 38" fill="none"
            xmlns="http://www.w3.org/2000/svg">
            <path
              d="M22.4987 38C21.5791 38.0026 20.6681 37.8227 19.8186 37.4706C18.9691 37.1185 18.1979 36.6013 17.5497 35.949L0.934021 19.3333L17.5497 2.71765C20.1934 0.0716544 24.804 0.0716544 27.4477 2.71765C28.7684 4.03365 29.4987 5.79065 29.4987 7.66199C29.4987 9.40265 28.8687 11.0477 27.716 12.3333H39C42.8594 12.3333 46 15.474 46 19.3333C46 23.1927 42.8594 26.3333 39 26.3333H27.716C28.8664 27.6143 29.4987 29.2547 29.4987 30.9953C29.5024 31.9161 29.3229 32.8284 28.9708 33.6793C28.6187 34.5301 28.101 35.3024 27.4477 35.9513C26.7989 36.6027 26.0276 37.1191 25.1781 37.4708C24.3287 37.8224 23.418 38.0023 22.4987 38ZM7.53269 19.3333L20.849 32.6497C21.2932 33.0744 21.8841 33.3114 22.4987 33.3114C23.1133 33.3114 23.7042 33.0744 24.1484 32.6497C24.5894 32.2087 24.832 31.6207 24.832 30.9977C24.832 30.3747 24.5894 29.7913 24.153 29.3527L16.4647 21.6667H39C39.6008 21.6398 40.1681 21.3822 40.5837 20.9476C40.9993 20.5129 41.2313 19.9347 41.2313 19.3333C41.2313 18.7319 40.9993 18.1537 40.5837 17.7191C40.1681 17.2844 39.6008 17.0269 39 17H16.4647L24.1484 9.31632C24.3659 9.10048 24.5385 8.84376 24.6565 8.56093C24.7744 8.27809 24.8352 7.97473 24.8354 7.6683C24.8356 7.36188 24.7752 7.05843 24.6577 6.77543C24.5402 6.49243 24.3679 6.23547 24.1507 6.01932C23.7067 5.59358 23.1155 5.35569 22.5003 5.35525C21.8852 5.35482 21.2936 5.59188 20.849 6.01699L7.53269 19.3333Z"
              fill="white" />
          </svg>