<svg width="22" height="22" viewBox="0 0 56 56" fill="none" xmlns="http://www.w3.org/2000/svg">
              <g clip-path="url(#clip0_986_504)">
                <path fill-rule="evenodd" clip-rule="evenodd"
                  d="M15.1667 15.3C15.1667 11.2422 16.8875 7.35057 19.9506 4.48127C23.0137 1.61196 27.1681 0 31.5 0C35.8319 0 39.9863 1.61196 43.0494 4.48127C46.1125 7.35057 47.8333 11.2422 47.8333 15.3H50.5556C51.9995 15.3 53.3843 15.8373 54.4054 16.7938C55.4264 17.7502 56 19.0474 56 20.4V45.9C56 47.2526 55.4264 48.5498 54.4054 49.5062C53.3843 50.4627 51.9995 51 50.5556 51H12.4444C11.0005 51 9.61567 50.4627 8.59464 49.5062C7.57361 48.5498 7 47.2526 7 45.9V20.4C7 19.0474 7.57361 17.7502 8.59464 16.7938C9.61567 15.8373 11.0005 15.3 12.4444 15.3H15.1667ZM31.5 5.1C34.3879 5.1 37.1575 6.17464 39.1996 8.08751C41.2417 10.0004 42.3889 12.5948 42.3889 15.3H20.6111C20.6111 12.5948 21.7583 10.0004 23.8004 8.08751C25.8425 6.17464 28.6121 5.1 31.5 5.1ZM36.9444 30.6C36.9444 31.4952 36.6928 32.3747 36.215 33.1499C35.7371 33.9252 35.0499 34.569 34.2222 35.0166V38.25C34.2222 38.9263 33.9354 39.5749 33.4249 40.0531C32.9144 40.5313 32.222 40.8 31.5 40.8C30.778 40.8 30.0856 40.5313 29.5751 40.0531C29.0646 39.5749 28.7778 38.9263 28.7778 38.25V35.0166C27.7399 34.4552 26.9288 33.5888 26.4702 32.5516C26.0116 31.5144 25.9311 30.3644 26.2413 29.28C26.5515 28.1956 27.235 27.2374 28.1858 26.554C29.1366 25.8705 30.3015 25.5 31.5 25.5C32.944 25.5 34.3288 26.0373 35.3498 26.9938C36.3708 27.9502 36.9444 29.2474 36.9444 30.6Z"
                  fill="#464646" />
              </g>
              <defs>
                <clipPath id="clip0_986_504">
                  <rect width="56" height="56" fill="white" />
                </clipPath>
              </defs>
            </svg>