            <svg width="22" height="22" viewBox="0 0 56 56" fill="none" xmlns="http://www.w3.org/2000/svg">
              <g clip-path="url(#clip0_986_502)">
                <path
                  d="M15.0769 0C10.3169 0 6.19877 1.97508 3.63354 5.18215C1.07262 8.39138 0 12.5483 0 17.0283V23.6923H6.46154V17.0283C6.46154 13.6252 7.29939 10.9545 8.68215 9.22062C10.0671 7.48892 11.9345 6.46154 15.0769 6.46154C18.228 6.46154 20.0911 7.43077 21.4717 9.15385C22.8502 10.8769 23.6923 13.5908 23.6923 17.0283V19.3846H30.1538V17.0283C30.1538 12.5225 29.0188 8.31815 26.4514 5.11539C23.8862 1.91262 19.8283 0 15.0769 0ZM19.3846 21.5385C15.8178 21.5385 12.9231 24.4332 12.9231 28V49.5385C12.9231 53.1052 15.8178 56 19.3846 56H49.5385C53.1052 56 56 53.1052 56 49.5385V28C56 24.4332 53.1052 21.5385 49.5385 21.5385H19.3846ZM34.4615 32.3077C35.604 32.3077 36.6997 32.7615 37.5075 33.5694C38.3154 34.3772 38.7692 35.4729 38.7692 36.6154C38.7692 38.2049 37.8991 39.5705 36.6154 40.3178V45.2308C36.6154 46.4175 35.6483 47.3846 34.4615 47.3846C33.2748 47.3846 32.3077 46.4175 32.3077 45.2308V40.3178C31.024 39.5705 30.1538 38.2071 30.1538 36.6154C30.1538 35.4729 30.6077 34.3772 31.4155 33.5694C32.2234 32.7615 33.3191 32.3077 34.4615 32.3077Z"
                  fill="#464646" />
              </g>
              <defs>
                <clipPath id="clip0_986_502">
                  <rect width="56" height="56" fill="white" />
                </clipPath>
              </defs>
            </svg>