      <svg width="206" height="96" viewBox="0 0 614 289" fill="none" xmlns="http://www.w3.org/2000/svg">
        <path
          d="M313.252 202.7C451.168 180.504 557.115 126.131 549.893 81.255C542.67 36.3792 425.013 17.9941 287.097 40.1908C149.182 62.3874 43.2346 116.76 50.4571 161.636C57.6796 206.512 175.337 224.897 313.252 202.7Z"
          fill="#F5F4EA" stroke="#4D886C" stroke-width="17" stroke-miterlimit="10" />
        <path
          d="M544.96 103.486C510.98 73.3262 409.57 63.4062 293.91 82.0162C181.85 100.056 90.8999 139.326 64.6099 177.496"
          stroke="#4D886C" stroke-width="17" stroke-miterlimit="10" />
        <path d="M52.1 147.046C52.1 147.046 37.05 198.326 6 221.376" stroke="#4D886C" stroke-width="17"
          stroke-miterlimit="10" />
        <path d="M543.89 67.876C543.89 67.876 574.28 111.846 610.99 123.986" stroke="#4D886C" stroke-width="17"
          stroke-miterlimit="10" />
        <path d="M317.9 231.136L325.61 279.026" stroke="#4D886C" stroke-width="17" stroke-miterlimit="10" />
        <path d="M154.99 240.485L143.03 282.845" stroke="#4D886C" stroke-width="17" stroke-miterlimit="10" />
        <path d="M64.4599 211.956L38.6299 243.756" stroke="#4D886C" stroke-width="17" stroke-miterlimit="10" />
        <path d="M104.28 230.476L83.6199 272.156" stroke="#4D886C" stroke-width="17" stroke-miterlimit="10" />
        <path d="M209.03 240.896L205.6 287.865" stroke="#4D886C" stroke-width="17" stroke-miterlimit="10" />
        <path d="M264.61 236.766L267.06 285.936" stroke="#4D886C" stroke-width="17" stroke-miterlimit="10" />
        <path d="M475.53 188.896L500.17 225.365" stroke="#4D886C" stroke-width="17" stroke-miterlimit="10" />
        <path d="M552.53 133.396L587.03 155.486" stroke="#4D886C" stroke-width="17" stroke-miterlimit="10" />
        <path d="M520.53 163.476L553.23 196.566" stroke="#4D886C" stroke-width="17" stroke-miterlimit="10" />
        <path d="M424.34 206.235L442.33 249.755" stroke="#4D886C" stroke-width="17" stroke-miterlimit="10" />
        <path d="M370.27 219.756L383.38 267.206" stroke="#4D886C" stroke-width="17" stroke-miterlimit="10" />
        <path d="M50.52 161.596C57.74 206.476 175.4 224.856 313.32 202.656C451.24 180.456 557.18 126.086 549.96 81.2061"
          stroke="#4D886C" stroke-width="17" stroke-miterlimit="10" />
      </svg>