      <svg width="272" height="210" viewBox="0 0 645 505" fill="none" xmlns="http://www.w3.org/2000/svg">
        <path
          d="M563.458 377.077C570.68 332.201 464.733 277.828 326.817 255.631C188.902 233.434 71.2448 251.82 64.0223 296.695C56.7998 341.571 162.747 395.944 300.663 418.141C438.578 440.337 556.235 421.952 563.458 377.077Z"
          fill="#F5F4EA" stroke="#4D886C" stroke-width="17" stroke-miterlimit="10" />
        <path d="M69.04 319.06C103.02 288.9 204.43 278.98 320.09 297.59C432.15 315.63 523.1 354.9 549.39 393.07"
          fill="#F5F4EA" />
        <path d="M69.04 319.06C103.02 288.9 204.43 278.98 320.09 297.59C432.15 315.63 523.1 354.9 549.39 393.07"
          stroke="#4D886C" stroke-width="17" stroke-miterlimit="10" />
        <mask id="mask0_895_2966" style="mask-type:luminance" maskUnits="userSpaceOnUse" x="63" y="0" width="582"
          height="419">
          <path
            d="M161.73 0L121.97 247.02C88.3398 255.55 66.9798 269.45 64.0298 287.77C56.8098 332.65 162.75 387.02 300.67 409.22C438.59 431.42 556.24 413.04 563.47 368.16L596.9 373.54L644.52 77.7L161.73 0Z"
            fill="white" />
        </mask>
        <g mask="url(#mask0_895_2966)">
          <path
            d="M424.16 441.66C446.06 422.82 456.24 401.03 460.8 370.1C466.9 328.78 451.66 290.24 419.79 261.96C419.08 261.33 426.77 244.39 439.43 238.98C444.98 236.61 450.75 236.69 457.08 239.24C482.16 249.32 501.03 230.49 507.5 219.12C525.5 204.5 561.25 214.72 580.04 216.96C598.83 219.2 597.04 190.45 567.36 185.4C537.68 180.35 510.79 202.4 510.79 202.4C511.42 199.72 511.84 197.54 511.95 196.44C513.49 181.24 511.67 161.68 485.55 140.54C459.43 119.4 434.03 139.11 449.76 153.2C465.49 167.29 499.31 189.18 500.34 215.04C499.72 216.13 484.8 241.51 460.16 231.6C451.8 228.24 443.72 228.18 436.16 231.43C422.86 237.14 415.32 251.44 413.06 256.34C388.56 237.06 355.65 223.33 316.06 217.93C241.13 207.72 189.1 240.69 166.19 282.18H166.18C163.77 286.36 144.38 329.95 159.34 373.48C159.33 373.47 329.48 427.06 424.16 441.66Z"
            fill="#B8D27E" />
        </g>
        <path
          d="M285.106 288.16C291.702 287.155 296.316 281.534 295.413 275.604C294.51 269.675 288.431 265.683 281.835 266.688C275.24 267.692 270.625 273.313 271.529 279.243C272.432 285.172 278.511 289.165 285.106 288.16Z"
          fill="#4C4948" />
        <path
          d="M355.388 312.618C361.984 311.613 366.598 305.992 365.695 300.062C364.792 294.133 358.712 290.141 352.117 291.146C345.521 292.15 340.907 297.771 341.81 303.701C342.714 309.63 348.792 313.623 355.388 312.618Z"
          fill="#4C4948" />
        <path
          d="M286.794 277.4C288.536 277.135 289.754 275.65 289.515 274.083C289.277 272.516 287.671 271.46 285.929 271.726C284.188 271.991 282.969 273.476 283.208 275.043C283.447 276.61 285.052 277.666 286.794 277.4Z"
          fill="white" />
        <path
          d="M356.751 301.765C358.136 301.142 358.749 299.502 358.119 298.102C357.489 296.702 355.856 296.072 354.471 296.694C353.086 297.317 352.473 298.957 353.103 300.358C353.733 301.758 355.366 302.388 356.751 301.765Z"
          fill="white" />
        <path d="M561.9 362.62C561.9 362.62 576.95 413.9 608 436.95" stroke="#4D886C" stroke-width="17"
          stroke-miterlimit="10" />
        <path d="M70.1 283.45C70.1 283.45 39.71 327.42 3 339.56" stroke="#4D886C" stroke-width="17"
          stroke-miterlimit="10" />
        <path d="M296.09 446.71L288.38 494.6" stroke="#4D886C" stroke-width="17" stroke-miterlimit="10" />
        <path d="M459.01 456.06L470.96 498.419" stroke="#4D886C" stroke-width="17" stroke-miterlimit="10" />
        <path d="M549.53 427.53L575.36 459.33" stroke="#4D886C" stroke-width="17" stroke-miterlimit="10" />
        <path d="M509.71 446.05L530.37 487.73" stroke="#4D886C" stroke-width="17" stroke-miterlimit="10" />
        <path d="M404.96 456.47L408.39 503.44" stroke="#4D886C" stroke-width="17" stroke-miterlimit="10" />
        <path d="M349.38 452.34L346.93 501.51" stroke="#4D886C" stroke-width="17" stroke-miterlimit="10" />
        <path d="M138.47 404.47L113.82 440.94" stroke="#4D886C" stroke-width="17" stroke-miterlimit="10" />
        <path d="M61.46 348.97L26.96 371.06" stroke="#4D886C" stroke-width="17" stroke-miterlimit="10" />
        <path d="M93.46 379.05L60.77 412.14" stroke="#4D886C" stroke-width="17" stroke-miterlimit="10" />
        <path d="M189.65 421.81L171.66 465.33" stroke="#4D886C" stroke-width="17" stroke-miterlimit="10" />
        <path d="M243.72 435.33L230.62 482.78" stroke="#4D886C" stroke-width="17" stroke-miterlimit="10" />
      </svg>