            <svg width="217" height="317" viewBox="0 0 153 245" fill="none"
              xmlns="http://www.w3.org/2000/svg">
              <g filter="url(#filter0_d_808_391)">
                <path
                  d="M6.42209 116.871L6.42149 116.863L6.42076 116.855L1 56.871V23.9226V12C1 5.92487 5.92487 1 12 1H136.871C142.946 1 147.871 5.92487 147.871 12V23.9226V56.0583C147.871 56.5819 147.834 57.1048 147.759 57.623L139.255 116.803L139.252 116.824L139.25 116.846L129.224 217.924C128.77 222.502 125.516 226.313 121.066 227.479L78.3461 238.673C76.6416 239.119 74.8548 239.15 73.1361 238.762L22.4072 227.312C17.6861 226.246 14.2162 222.22 13.8591 217.393L6.42209 116.871Z"
                  fill="#EAE7DC" stroke="white" stroke-width="2" />
                <path
                  d="M6.68904 117.317L6.68821 117.307L4.64921 92.7074C4.31103 88.6273 7.53124 85.1291 11.6253 85.1291H58.8726H105.565C109.431 85.1291 112.565 88.2631 112.565 92.1291V117.353L108.935 166.554C108.665 170.21 105.62 173.039 101.954 173.039H58.9388L15.922 167.324C12.6336 166.887 10.1033 164.202 9.8624 160.893L6.68904 117.317Z"
                  fill="#F8F7EE" stroke="white" stroke-width="2" />
                <path
                  d="M40.8528 135.079C38.946 134.196 37.145 132.998 35.7536 131.428C34.6605 130.195 33.8886 128.614 33.4668 126.989C32.6195 123.723 33.0101 120.27 33.9625 117.071C34.9067 113.901 36.2956 110.943 38.1294 108.195C39.5012 106.14 41.1507 104.28 43.1072 102.767C45.9208 100.591 49.3853 99.3453 52.9134 99.065C57.6412 98.6893 62.3601 99.977 66.5845 102.029C69.8536 103.617 72.897 105.638 75.5798 108.08C78.3336 110.586 80.9055 113.501 82.6909 116.792C83.942 119.098 84.8238 121.775 84.6187 124.433C84.0192 132.199 75.5683 135.423 69.2061 136.752C66.2628 137.367 63.3326 137.727 60.3638 137.901C57.6478 138.06 54.9343 138.028 52.2232 137.804C48.3492 137.485 44.4026 136.721 40.8528 135.079ZM58.2581 103.632C57.6835 102.915 56.5735 102.854 55.7788 103.494C54.9843 104.135 54.8058 105.236 55.3806 105.953C55.9552 106.669 57.0651 106.731 57.8599 106.09C58.6543 105.45 58.8328 104.349 58.2581 103.632ZM47.0791 105.814C46.5019 105.099 45.3915 105.041 44.5994 105.684C43.8072 106.327 43.6328 107.428 44.2103 108.143C44.7875 108.858 45.8979 108.916 46.69 108.273C47.4822 107.63 47.6566 106.529 47.0791 105.814Z"
                  fill="#F6DD6F" />
                <path
                  d="M58.2581 103.632C58.8329 104.349 58.6544 105.45 57.8599 106.09C57.0651 106.731 55.9552 106.669 55.3806 105.953C54.8058 105.236 54.9843 104.135 55.7788 103.494C56.5736 102.854 57.6835 102.915 58.2581 103.632ZM57.3138 104.301C57.3138 104.067 57.1246 103.877 56.8916 103.877C56.6585 103.877 56.4693 104.067 56.4693 104.301C56.4693 104.534 56.6585 104.724 56.8916 104.724C57.1246 104.724 57.3138 104.534 57.3138 104.301Z"
                  fill="#4B4948" />
                <path
                  d="M56.8915 104.724C57.1247 104.724 57.3138 104.534 57.3138 104.301C57.3138 104.067 57.1247 103.877 56.8915 103.877C56.6583 103.877 56.4693 104.067 56.4693 104.301C56.4693 104.534 56.6583 104.724 56.8915 104.724Z"
                  fill="white" />
                <path
                  d="M47.079 105.814C47.6565 106.529 47.4822 107.63 46.69 108.273C45.8979 108.916 44.7875 108.858 44.2103 108.143C43.6328 107.428 43.8072 106.327 44.5994 105.684C45.3915 105.041 46.5019 105.099 47.079 105.814ZM46.1899 106.073C46.0402 105.881 45.7469 105.861 45.5348 106.028C45.3226 106.194 45.2721 106.485 45.422 106.677C45.5716 106.868 45.865 106.888 46.0771 106.722C46.2893 106.555 46.3398 106.264 46.1899 106.073Z"
                  fill="#4B4948" />
                <path
                  d="M46.0771 106.722C46.2892 106.555 46.3397 106.264 46.1899 106.073C46.0402 105.881 45.7469 105.861 45.5348 106.028C45.3228 106.195 45.2723 106.485 45.422 106.677C45.5718 106.868 45.8651 106.888 46.0771 106.722Z"
                  fill="white" />
                <rect x="0.755965" y="22.6331" width="146.826" height="0.800383" fill="#F8F7EE" stroke="white"
                  stroke-width="0.800383" />
                <path
                  d="M131.938 12.6625L129.415 44.9492C129.162 48.1804 129.042 49.541 128.572 50.5989C127.792 52.3585 126.321 53.719 124.506 54.3603C123.414 54.7458 122.049 54.76 118.808 54.76C116.995 54.76 115.682 54.7595 114.646 54.6935C113.617 54.6278 112.933 54.5005 112.368 54.2798C110.395 53.5089 108.878 51.8863 108.24 49.8665C108.058 49.2883 107.977 48.5967 107.98 47.5657C107.983 46.5274 108.07 45.2177 108.192 43.4092L110.356 11.0964C110.586 7.66712 110.698 6.22347 111.205 5.10799C111.972 3.41627 113.38 2.09901 115.12 1.4463C116.266 1.01593 117.714 1 121.151 1C123.073 1 124.465 1.00053 125.562 1.07422C126.651 1.1474 127.374 1.28931 127.966 1.53527C129.852 2.31843 131.302 3.88604 131.935 5.82721C132.134 6.43684 132.22 7.16776 132.208 8.25948C132.196 9.35884 132.088 10.7466 131.938 12.6625Z"
                  fill="#F6DD6F" stroke="white" stroke-width="2" />
                <path
                  d="M35.0637 157.18C34.4517 157.18 34.1037 156.82 34.1037 156.196V152.584C34.1037 152.164 34.2477 151.192 34.3077 150.796L34.2237 150.784C33.7677 152.512 33.0597 154.156 32.3877 155.62C32.1357 156.184 31.8717 156.436 31.3317 156.436C30.8157 156.436 30.4557 156.172 30.2157 155.62C29.5677 154.168 28.8357 152.476 28.3077 150.76H28.2237C28.2837 151.144 28.3797 152.08 28.3797 152.548V156.196C28.3797 156.832 28.0437 157.18 27.4317 157.18C26.8557 157.18 26.5077 156.82 26.5077 156.196V149.464C26.5077 148.528 26.9997 148.024 27.8397 148.024C28.5597 148.024 28.8837 148.348 29.2557 149.248C29.9037 150.808 30.8757 153.22 31.3197 154.36H31.3437L33.2157 149.212C33.5397 148.336 33.9357 148 34.7877 148.012C35.6157 148.024 36.0237 148.48 36.0237 149.416V156.196C36.0237 156.832 35.6637 157.18 35.0637 157.18ZM45.0957 155.8C45.2997 156.472 45.1077 156.928 44.4957 157.108C43.8357 157.3 43.3557 157.06 43.1757 156.424L42.5997 154.348H39.8997L39.2637 156.46C39.0837 157.048 38.6757 157.288 38.0877 157.108C37.5117 156.928 37.2957 156.496 37.4997 155.896L39.7437 149.224C40.0197 148.384 40.4877 148.012 41.2677 148.012C42.0357 148.012 42.6357 148.384 42.9237 149.212C43.4997 150.88 44.4237 153.592 45.0957 155.8ZM40.3077 153.004H42.2157C41.9277 151.96 41.6277 150.928 41.3397 149.908H41.2437L40.3077 153.004ZM47.4221 157.168C46.7621 157.168 46.3901 156.868 46.3901 156.232V148.972C46.3901 148.36 46.7741 148.012 47.4221 148.012C48.0701 148.012 48.4541 148.372 48.4541 148.972V156.232C48.4541 156.856 48.0821 157.168 47.4221 157.168ZM56.5003 157.168C55.7443 157.168 55.3123 156.748 55.0123 156.16C54.4363 155.032 52.8763 152.212 52.1203 150.628L52.0483 150.652C52.1083 151.12 52.1563 151.672 52.1563 152.092V156.184C52.1563 156.82 51.8683 157.192 51.2923 157.18C50.7043 157.168 50.3803 156.832 50.3803 156.184V149.392C50.3803 148.54 50.7883 148.024 51.5563 148.024C52.3363 148.024 52.6603 148.42 53.1163 149.284C53.8963 150.76 55.3123 153.316 55.9723 154.588L56.0443 154.564C55.9723 154.144 55.9483 153.64 55.9483 153.22V149.02C55.9483 148.384 56.2483 148.024 56.8483 148.024C57.4243 148.024 57.7123 148.372 57.7123 149.02V155.836C57.7123 156.712 57.3043 157.168 56.5003 157.168ZM66.3009 157.072C65.4129 157.072 64.8969 157.036 64.4529 156.976C63.8289 156.892 63.5169 156.544 63.5169 155.944V149.236C63.5169 148.624 63.8409 148.276 64.4769 148.216C64.8609 148.18 65.2569 148.144 66.1209 148.144C69.1209 148.144 70.8129 149.728 70.8129 152.452C70.8129 155.404 69.2169 157.072 66.3009 157.072ZM66.2049 155.68C68.1489 155.68 68.7489 154.456 68.7489 152.512C68.7489 150.532 67.8129 149.524 66.0489 149.524C65.9169 149.524 65.7849 149.536 65.6769 149.548C65.6049 149.56 65.5809 149.596 65.5809 149.656V155.536C65.5809 155.596 65.6049 155.632 65.6889 155.644C65.8329 155.668 66.0129 155.68 66.2049 155.68ZM73.2735 157.168C72.6135 157.168 72.2415 156.868 72.2415 156.232V148.972C72.2415 148.36 72.6255 148.012 73.2735 148.012C73.9215 148.012 74.3055 148.372 74.3055 148.972V156.232C74.3055 156.856 73.9335 157.168 73.2735 157.168ZM75.9196 155.116C76.1596 154.792 76.5916 154.732 76.9156 154.984C77.4076 155.368 77.9476 155.74 78.7756 155.74C79.5076 155.74 79.9516 155.428 79.9636 154.852C79.9756 154.384 79.8076 153.904 78.4156 153.184C76.6156 152.236 75.8476 151.504 75.8476 150.268C75.8476 148.9 77.0836 148.012 79.0156 148.012C80.1916 148.012 81.1036 148.348 81.5116 148.744C81.8476 149.068 81.9196 149.488 81.6916 149.836C81.4396 150.208 80.9716 150.28 80.5996 149.968C80.1916 149.632 79.7236 149.428 79.0036 149.44C78.3436 149.452 77.9596 149.716 77.9596 150.124C77.9596 150.58 78.1276 150.988 79.5316 151.708C81.3436 152.656 82.0996 153.412 82.0996 154.612C82.0996 156.22 80.8876 157.18 78.8836 157.18C77.5036 157.18 76.5196 156.724 76.0276 156.232C75.7036 155.908 75.6676 155.464 75.9196 155.116ZM89.6359 157.18C88.9759 157.18 88.6039 156.868 88.6039 156.196V153.136H85.5319V156.184C85.5319 156.868 85.1599 157.18 84.4999 157.18C83.8399 157.18 83.4679 156.868 83.4679 156.184V149.008C83.4679 148.324 83.8519 148.012 84.4999 148.012C85.1599 148.012 85.5319 148.324 85.5319 149.008V151.768H88.6039V148.996C88.6039 148.324 88.9759 148.012 89.6359 148.012C90.2959 148.012 90.6679 148.324 90.6679 148.996V156.196C90.6679 156.868 90.2959 157.18 89.6359 157.18Z"
                  fill="#4B4948" />
                <path
                  d="M21.6204 38.5407C23.5997 39.7397 24.8507 41.7142 24.9394 44.053C25.0216 46.2144 24.2354 48.3277 22.3498 49.519C21.1254 50.2925 19.738 50.5556 18.3029 50.6211C17.8253 50.6429 17.1859 50.6545 16.3854 50.6559C16.2381 50.6561 16.1025 50.6523 15.9787 50.6439C15.1862 50.5912 14.4029 50.4748 13.6288 50.2947C11.0095 49.6859 8.58941 48.1289 8.08633 45.2846C7.95659 44.5502 7.97693 43.7793 8.12151 43.048C8.57782 40.7379 10.1694 38.7287 12.2914 37.7316C13.3242 37.246 14.4529 37.0428 15.6072 37.1026C16.5175 37.15 17.433 37.2351 18.3324 37.3865C19.3628 37.5598 20.361 37.8482 21.2865 38.3413C21.2936 38.3451 21.2982 38.3431 21.3005 38.3352C21.5931 37.2851 22.3687 36.3175 23.5971 36.5485C23.7762 36.582 23.8661 36.5989 23.8665 36.5989C24.7493 36.7043 25.4095 36.0597 25.7247 35.3051C25.7274 35.2988 25.728 35.2923 25.7266 35.2855C25.5846 34.6409 25.1063 34.1317 24.6022 33.7382C23.9454 33.2255 23.213 32.8269 22.4962 32.4071C22.1415 32.1993 21.8731 31.8613 22.1446 31.4492C22.4492 30.9867 23.132 30.9321 23.6144 31.0593C23.8033 31.109 23.9698 31.1727 24.1486 31.2665C25.4014 31.9248 26.2943 32.9872 26.1967 34.4832C26.1963 34.488 26.2024 34.4907 26.2056 34.4872C27.0613 33.5882 28.4341 32.8196 29.701 33.126C30.1268 33.229 30.601 33.5279 30.7104 33.9834C30.7747 34.2512 30.6852 34.5123 30.42 34.6287C30.3047 34.6793 30.1632 34.6915 30.0196 34.6926C28.9767 34.6993 27.8578 34.6097 26.8631 34.9866C26.6569 35.0648 26.229 35.2963 26.1406 35.5104C25.7487 36.4593 24.8534 37.2055 23.7752 37.0537C23.642 37.035 23.4444 36.9874 23.3014 36.9797C22.4163 36.9314 21.9132 37.8042 21.7253 38.5399C21.7237 38.5462 21.7171 38.5501 21.7108 38.5484L21.6258 38.5273C21.6224 38.5265 21.6187 38.5283 21.6173 38.5315C21.6159 38.535 21.6173 38.5389 21.6204 38.5407ZM16.713 40.2288C16.6099 39.9108 16.2398 39.7462 15.8868 39.8611C15.5335 39.976 15.331 40.3268 15.4343 40.6446C15.5374 40.9625 15.9075 41.1272 16.2605 41.0123C16.6137 40.8974 16.8163 40.5466 16.713 40.2288ZM20.8001 40.9467C20.697 40.6288 20.3269 40.4642 19.9736 40.579C19.6204 40.6939 19.4177 41.0447 19.521 41.3626C19.6241 41.6805 19.9942 41.8451 20.3474 41.7302C20.7006 41.6153 20.9033 41.2645 20.8001 40.9467Z"
                  fill="#B9D27E" />
                <path
                  d="M16.713 40.2288C16.8162 40.5466 16.6137 40.8974 16.2605 41.0123C15.9075 41.1272 15.5374 40.9625 15.4342 40.6446C15.331 40.3268 15.5335 39.976 15.8867 39.8611C16.2397 39.7462 16.6098 39.9108 16.713 40.2288ZM16.3789 40.1996C16.3526 40.1147 16.2546 40.0696 16.16 40.099C16.0655 40.1282 16.01 40.2208 16.0363 40.3058C16.0626 40.3907 16.1606 40.4359 16.2552 40.4065C16.3497 40.3773 16.4053 40.2847 16.3789 40.1996Z"
                  fill="#4B4948" />
                <path
                  d="M16.2552 40.4065C16.3499 40.3772 16.4053 40.2846 16.379 40.1996C16.3527 40.1147 16.2547 40.0696 16.1601 40.0989C16.0655 40.1283 16.0101 40.2209 16.0363 40.3058C16.0626 40.3907 16.1606 40.4358 16.2552 40.4065Z"
                  fill="white" />
                <path
                  d="M20.8001 40.9466C20.9033 41.2645 20.7006 41.6153 20.3474 41.7302C19.9942 41.8451 19.6241 41.6804 19.521 41.3626C19.4177 41.0447 19.6204 40.6939 19.9736 40.579C20.3269 40.4641 20.6969 40.6288 20.8001 40.9466ZM20.4041 40.9973C20.4041 40.9118 20.3348 40.8424 20.2494 40.8424C20.164 40.8424 20.0946 40.9118 20.0946 40.9973C20.0946 41.0828 20.164 41.1522 20.2494 41.1522C20.3348 41.1522 20.4041 41.0828 20.4041 40.9973Z"
                  fill="#4B4948" />
                <path
                  d="M20.2494 41.1522C20.3348 41.1522 20.4041 41.0829 20.4041 40.9974C20.4041 40.9118 20.3348 40.8425 20.2494 40.8425C20.1639 40.8425 20.0946 40.9118 20.0946 40.9974C20.0946 41.0829 20.1639 41.1522 20.2494 41.1522Z"
                  fill="white" />
                <path
                  d="M12.522 52.346C12.882 52.43 13.014 52.652 12.918 52.934C12.816 53.234 12.564 53.336 12.252 53.222C11.658 53.006 11.13 52.646 10.758 52.232V53.15C10.758 53.432 10.584 53.564 10.266 53.564C9.948 53.564 9.774 53.432 9.774 53.15V52.34C9.3 52.748 8.61 53.15 7.902 53.294C7.758 53.336 7.662 53.282 7.614 53.162C7.566 53.036 7.614 52.94 7.752 52.868C8.358 52.616 8.868 52.268 9.276 51.818H7.992C7.83 51.818 7.74 51.722 7.74 51.548C7.74 51.374 7.83 51.278 7.992 51.278H9.774V51.134C9.774 50.9 9.906 50.774 10.116 50.732C10.098 50.702 10.074 50.666 10.062 50.624C9.99 50.42 9.894 50.204 9.822 50.048C9.81 50.018 9.798 49.994 9.792 49.97C9.444 49.982 9.084 49.982 8.748 49.976C8.958 50.09 9.186 50.282 9.348 50.468C9.546 50.69 9.54 50.888 9.312 51.05C9.09 51.206 8.88 51.17 8.748 50.882C8.652 50.678 8.526 50.45 8.418 50.282C8.34 50.162 8.346 50.054 8.43 49.976L8.442 49.964C8.346 49.964 8.25 49.958 8.16 49.952C7.986 49.94 7.92 49.862 7.92 49.724C7.92 49.592 7.992 49.52 8.16 49.514C9.18 49.484 10.092 49.412 10.962 49.238C10.824 49.184 10.752 49.058 10.746 48.866H9.738V48.932C9.738 49.226 9.576 49.358 9.282 49.358C8.988 49.358 8.826 49.226 8.826 48.932V48.866H7.872C7.698 48.866 7.602 48.764 7.602 48.596C7.602 48.422 7.698 48.338 7.872 48.338H8.826V48.308C8.826 48.014 9.024 47.882 9.282 47.882C9.576 47.882 9.738 48.014 9.738 48.308V48.338H10.746V48.314C10.746 48.014 10.938 47.882 11.208 47.882C11.508 47.882 11.67 48.014 11.67 48.314V48.338H12.672C12.834 48.338 12.936 48.434 12.936 48.608C12.936 48.77 12.834 48.866 12.672 48.866H11.67C11.664 48.962 11.646 49.034 11.61 49.094L11.91 49.01C12.15 48.938 12.36 49.022 12.432 49.256C12.504 49.496 12.426 49.7 12.138 49.76C12.102 49.766 12.066 49.772 12.024 49.784C12.06 49.79 12.096 49.808 12.132 49.826C12.384 49.964 12.39 50.204 12.216 50.432C11.988 50.72 11.736 50.942 11.454 51.086C11.334 51.146 11.238 51.152 11.148 51.068C11.058 50.984 11.04 50.864 11.124 50.756C11.262 50.582 11.4 50.33 11.526 50.048C11.568 49.952 11.622 49.886 11.688 49.838C11.322 49.886 10.884 49.922 10.416 49.946C10.524 50.042 10.62 50.15 10.704 50.27C10.848 50.48 10.806 50.666 10.602 50.804C10.704 50.87 10.758 50.978 10.758 51.134V51.278H12.558C12.72 51.278 12.81 51.374 12.81 51.548C12.81 51.722 12.72 51.818 12.558 51.818H11.094C11.478 52.028 11.946 52.214 12.522 52.346ZM18.762 52.346C19.122 52.43 19.254 52.652 19.158 52.934C19.056 53.234 18.804 53.336 18.492 53.222C17.898 53.006 17.37 52.646 16.998 52.232V53.15C16.998 53.432 16.824 53.564 16.506 53.564C16.188 53.564 16.014 53.432 16.014 53.15V52.34C15.54 52.748 14.85 53.15 14.142 53.294C13.998 53.336 13.902 53.282 13.854 53.162C13.806 53.036 13.854 52.94 13.992 52.868C14.598 52.616 15.108 52.268 15.516 51.818H14.232C14.07 51.818 13.98 51.722 13.98 51.548C13.98 51.374 14.07 51.278 14.232 51.278H16.014V51.134C16.014 50.9 16.146 50.774 16.356 50.732C16.338 50.702 16.314 50.666 16.302 50.624C16.23 50.42 16.134 50.204 16.062 50.048C16.05 50.018 16.038 49.994 16.032 49.97C15.684 49.982 15.324 49.982 14.988 49.976C15.198 50.09 15.426 50.282 15.588 50.468C15.786 50.69 15.78 50.888 15.552 51.05C15.33 51.206 15.12 51.17 14.988 50.882C14.892 50.678 14.766 50.45 14.658 50.282C14.58 50.162 14.586 50.054 14.67 49.976L14.682 49.964C14.586 49.964 14.49 49.958 14.4 49.952C14.226 49.94 14.16 49.862 14.16 49.724C14.16 49.592 14.232 49.52 14.4 49.514C15.42 49.484 16.332 49.412 17.202 49.238C17.064 49.184 16.992 49.058 16.986 48.866H15.978V48.932C15.978 49.226 15.816 49.358 15.522 49.358C15.228 49.358 15.066 49.226 15.066 48.932V48.866H14.112C13.938 48.866 13.842 48.764 13.842 48.596C13.842 48.422 13.938 48.338 14.112 48.338H15.066V48.308C15.066 48.014 15.264 47.882 15.522 47.882C15.816 47.882 15.978 48.014 15.978 48.308V48.338H16.986V48.314C16.986 48.014 17.178 47.882 17.448 47.882C17.748 47.882 17.91 48.014 17.91 48.314V48.338H18.912C19.074 48.338 19.176 48.434 19.176 48.608C19.176 48.77 19.074 48.866 18.912 48.866H17.91C17.904 48.962 17.886 49.034 17.85 49.094L18.15 49.01C18.39 48.938 18.6 49.022 18.672 49.256C18.744 49.496 18.666 49.7 18.378 49.76C18.342 49.766 18.306 49.772 18.264 49.784C18.3 49.79 18.336 49.808 18.372 49.826C18.624 49.964 18.63 50.204 18.456 50.432C18.228 50.72 17.976 50.942 17.694 51.086C17.574 51.146 17.478 51.152 17.388 51.068C17.298 50.984 17.28 50.864 17.364 50.756C17.502 50.582 17.64 50.33 17.766 50.048C17.808 49.952 17.862 49.886 17.928 49.838C17.562 49.886 17.124 49.922 16.656 49.946C16.764 50.042 16.86 50.15 16.944 50.27C17.088 50.48 17.046 50.666 16.842 50.804C16.944 50.87 16.998 50.978 16.998 51.134V51.278H18.798C18.96 51.278 19.05 51.374 19.05 51.548C19.05 51.722 18.96 51.818 18.798 51.818H17.334C17.718 52.028 18.186 52.214 18.762 52.346ZM25.188 50.468C25.374 50.468 25.476 50.576 25.476 50.78C25.476 50.984 25.374 51.092 25.188 51.092H23.304V52.622C23.304 53.558 22.386 53.828 21.186 53.264C21.054 53.198 21.012 53.102 21.042 52.964C21.072 52.838 21.168 52.778 21.336 52.79C22.17 52.844 22.272 52.826 22.272 52.46V51.092H20.286C20.1 51.092 19.998 50.984 19.998 50.78C19.998 50.576 20.1 50.468 20.286 50.468H22.272V49.886C22.272 49.55 22.452 49.382 22.788 49.382C22.908 49.382 23.01 49.406 23.094 49.448C23.28 49.286 23.478 49.094 23.67 48.872C23.712 48.818 23.694 48.752 23.634 48.752H20.778C20.598 48.752 20.502 48.638 20.502 48.464C20.502 48.29 20.604 48.2 20.778 48.2H23.814C24.186 47.99 24.546 48.08 24.732 48.284C24.936 48.506 24.93 48.824 24.672 49.076C24.312 49.43 23.856 49.73 23.304 49.976V50.468H25.188Z"
                  fill="#4D886C" />
              </g>
              <defs>
                <filter id="filter0_d_808_391" x="0" y="0" width="152.871" height="244.032" filterUnits="userSpaceOnUse"
                  color-interpolation-filters="sRGB">
                  <feFlood flood-opacity="0" result="BackgroundImageFix" />
                  <feColorMatrix in="SourceAlpha" type="matrix" values="0 0 0 0 0 0 0 0 0 0 0 0 0 0 0 0 0 0 127 0"
                    result="hardAlpha" />
                  <feOffset dx="4" dy="4" />
                  <feComposite in2="hardAlpha" operator="out" />
                  <feColorMatrix type="matrix" values="0 0 0 0 0 0 0 0 0 0 0 0 0 0 0 0 0 0 0.25 0" />
                  <feBlend mode="normal" in2="BackgroundImageFix" result="effect1_dropShadow_808_391" />
                  <feBlend mode="normal" in="SourceGraphic" in2="effect1_dropShadow_808_391" result="shape" />
                </filter>
              </defs>
            </svg>