            <svg width="103.5" height="165.4" viewBox="0 0 153 245" fill="none" xmlns="http://www.w3.org/2000/svg">
              <g filter="url(#filter0_d_808_307)">
                <path
                  d="M6.42209 116.871L6.42149 116.863L6.42076 116.855L1 56.871V23.9226V12C1 5.92487 5.92487 1 12 1H136.871C142.946 1 147.871 5.92487 147.871 12V23.9226V56.0583C147.871 56.5819 147.834 57.1048 147.759 57.623L139.255 116.803L139.252 116.824L139.25 116.846L129.224 217.924C128.77 222.502 125.516 226.313 121.066 227.479L78.3461 238.673C76.6416 239.119 74.8548 239.15 73.1361 238.762L22.4072 227.312C17.6861 226.246 14.2162 222.22 13.8591 217.393L6.42209 116.871Z"
                  fill="#EAE7DC" stroke="white" stroke-width="2" />
                <path
                  d="M6.68904 117.317L6.68821 117.307L4.64921 92.7074C4.31103 88.6273 7.53124 85.1291 11.6253 85.1291H58.8726H105.565C109.431 85.1291 112.565 88.2631 112.565 92.1291V117.353L108.935 166.554C108.665 170.21 105.62 173.039 101.954 173.039H58.9388L15.922 167.324C12.6336 166.887 10.1033 164.202 9.8624 160.893L6.68904 117.317Z"
                  fill="#F8F7EE" stroke="white" stroke-width="2" />
                <path
                  d="M70.0624 114.983C73.9952 117.365 76.4809 121.288 76.657 125.935C76.8202 130.23 75.2582 134.429 71.5116 136.796C69.079 138.332 66.3222 138.855 63.471 138.985C62.5219 139.029 61.2516 139.052 59.6609 139.055C59.3684 139.055 59.0989 139.047 58.8529 139.031C57.2784 138.926 55.722 138.695 54.1839 138.337C48.9795 137.127 44.1711 134.034 43.1715 128.382C42.9138 126.923 42.9542 125.391 43.2414 123.938C44.1481 119.348 47.3104 115.356 51.5265 113.375C53.5786 112.41 55.8214 112.006 58.1147 112.125C59.9236 112.219 61.7425 112.388 63.5296 112.689C65.5768 113.034 67.5602 113.607 69.399 114.586C69.4131 114.594 69.4224 114.59 69.4268 114.574C70.0082 112.488 71.5492 110.565 73.99 111.024C74.3459 111.091 74.5245 111.125 74.5253 111.125C76.2792 111.334 77.5911 110.053 78.2174 108.554C78.2226 108.541 78.2239 108.528 78.221 108.515C77.939 107.234 76.9887 106.222 75.9871 105.44C74.6821 104.422 73.2268 103.63 71.8025 102.796C71.0979 102.383 70.5646 101.711 71.104 100.893C71.7092 99.9735 73.066 99.8651 74.0243 100.118C74.3997 100.216 74.7306 100.343 75.0857 100.529C77.575 101.837 79.3491 103.948 79.1551 106.921C79.1543 106.93 79.1665 106.936 79.1729 106.929C80.8731 105.142 83.6007 103.615 86.1179 104.224C86.9639 104.429 87.9061 105.023 88.1235 105.928C88.2512 106.46 88.0734 106.979 87.5465 107.21C87.3174 107.31 87.0362 107.335 86.751 107.337C84.6787 107.35 82.4557 107.172 80.4792 107.921C80.0695 108.076 79.2194 108.536 79.0436 108.962C78.2651 110.847 76.4861 112.33 74.3439 112.028C74.0793 111.991 73.6866 111.896 73.4025 111.881C71.6438 111.785 70.6442 113.519 70.2709 114.981C70.2676 114.994 70.2547 115.001 70.2422 114.998L70.0733 114.956C70.0664 114.954 70.0591 114.958 70.0563 114.964C70.0535 114.971 70.0563 114.979 70.0624 114.983ZM60.3119 118.337C60.107 117.705 59.3717 117.378 58.6702 117.606C57.9684 117.834 57.566 118.531 57.7712 119.163C57.9761 119.795 58.7115 120.122 59.4129 119.893C60.1147 119.665 60.5171 118.968 60.3119 118.337ZM68.4326 119.763C68.2277 119.132 67.4923 118.804 66.7905 119.033C66.0887 119.261 65.6859 119.958 65.8911 120.589C66.096 121.221 66.8313 121.548 67.5331 121.32C68.2349 121.092 68.6378 120.395 68.4326 119.763Z"
                  fill="#B9D27E" />
                <path
                  d="M60.3119 118.337C60.5171 118.968 60.1146 119.665 59.4128 119.893C58.7114 120.122 57.9761 119.795 57.7712 119.163C57.566 118.531 57.9684 117.834 58.6702 117.606C59.3716 117.378 60.107 117.705 60.3119 118.337ZM59.6482 118.279C59.5959 118.11 59.4011 118.02 59.2133 118.079C59.0254 118.137 58.9151 118.321 58.9674 118.49C59.0197 118.658 59.2145 118.748 59.4023 118.69C59.5902 118.632 59.7005 118.448 59.6482 118.279Z"
                  fill="#4B4948" />
                <path
                  d="M59.4023 118.69C59.5903 118.632 59.7004 118.448 59.6482 118.279C59.596 118.11 59.4013 118.021 59.2133 118.079C59.0253 118.137 58.9152 118.321 58.9674 118.49C59.0196 118.658 59.2143 118.748 59.4023 118.69Z"
                  fill="white" />
                <path
                  d="M68.4326 119.763C68.6378 120.395 68.235 121.092 67.5332 121.32C66.8314 121.548 66.096 121.221 65.8911 120.589C65.6859 119.958 66.0888 119.261 66.7906 119.033C67.4924 118.804 68.2277 119.131 68.4326 119.763ZM67.6459 119.864C67.6459 119.694 67.5081 119.556 67.3384 119.556C67.1688 119.556 67.031 119.694 67.031 119.864C67.031 120.033 67.1688 120.171 67.3384 120.171C67.5081 120.171 67.6459 120.033 67.6459 119.864Z"
                  fill="#4B4948" />
                <path
                  d="M67.3383 120.171C67.5081 120.171 67.6458 120.034 67.6458 119.864C67.6458 119.694 67.5081 119.556 67.3383 119.556C67.1685 119.556 67.0309 119.694 67.0309 119.864C67.0309 120.034 67.1685 120.171 67.3383 120.171Z"
                  fill="white" />
                <rect x="0.75595" y="22.6331" width="146.826" height="0.800383" fill="#F8F7EE" stroke="white"
                  stroke-width="0.800383" />
                <path
                  d="M131.938 12.6625L129.415 44.9492C129.162 48.1804 129.042 49.541 128.572 50.5989C127.792 52.3585 126.321 53.719 124.506 54.3603C123.414 54.7458 122.049 54.76 118.808 54.76C116.995 54.76 115.682 54.7595 114.646 54.6935C113.617 54.6278 112.933 54.5005 112.368 54.2798C110.395 53.5089 108.878 51.8863 108.24 49.8665C108.058 49.2883 107.977 48.5967 107.98 47.5657C107.983 46.5274 108.07 45.2177 108.192 43.4092L110.356 11.0964C110.586 7.66712 110.698 6.22347 111.205 5.10799C111.972 3.41627 113.38 2.09901 115.12 1.4463C116.266 1.01593 117.714 1 121.151 1C123.073 1 124.465 1.00053 125.562 1.07422C126.651 1.1474 127.374 1.28931 127.966 1.53527C129.852 2.31843 131.302 3.88604 131.935 5.82721C132.134 6.43684 132.22 7.16776 132.208 8.25948C132.196 9.35884 132.088 10.7466 131.938 12.6625Z"
                  fill="#B9D27E" stroke="white" stroke-width="2" />
                <path
                  d="M35.0637 157.18C34.4517 157.18 34.1037 156.82 34.1037 156.196V152.584C34.1037 152.164 34.2477 151.192 34.3077 150.796L34.2237 150.784C33.7677 152.512 33.0597 154.156 32.3877 155.62C32.1357 156.184 31.8717 156.436 31.3317 156.436C30.8157 156.436 30.4557 156.172 30.2157 155.62C29.5677 154.168 28.8357 152.476 28.3077 150.76H28.2237C28.2837 151.144 28.3797 152.08 28.3797 152.548V156.196C28.3797 156.832 28.0437 157.18 27.4317 157.18C26.8557 157.18 26.5077 156.82 26.5077 156.196V149.464C26.5077 148.528 26.9997 148.024 27.8397 148.024C28.5597 148.024 28.8837 148.348 29.2557 149.248C29.9037 150.808 30.8757 153.22 31.3197 154.36H31.3437L33.2157 149.212C33.5397 148.336 33.9357 148 34.7877 148.012C35.6157 148.024 36.0237 148.48 36.0237 149.416V156.196C36.0237 156.832 35.6637 157.18 35.0637 157.18ZM45.0957 155.8C45.2997 156.472 45.1077 156.928 44.4957 157.108C43.8357 157.3 43.3557 157.06 43.1757 156.424L42.5997 154.348H39.8997L39.2637 156.46C39.0837 157.048 38.6757 157.288 38.0877 157.108C37.5117 156.928 37.2957 156.496 37.4997 155.896L39.7437 149.224C40.0197 148.384 40.4877 148.012 41.2677 148.012C42.0357 148.012 42.6357 148.384 42.9237 149.212C43.4997 150.88 44.4237 153.592 45.0957 155.8ZM40.3077 153.004H42.2157C41.9277 151.96 41.6277 150.928 41.3397 149.908H41.2437L40.3077 153.004ZM47.4221 157.168C46.7621 157.168 46.3901 156.868 46.3901 156.232V148.972C46.3901 148.36 46.7741 148.012 47.4221 148.012C48.0701 148.012 48.4541 148.372 48.4541 148.972V156.232C48.4541 156.856 48.0821 157.168 47.4221 157.168ZM56.5003 157.168C55.7443 157.168 55.3123 156.748 55.0123 156.16C54.4363 155.032 52.8763 152.212 52.1203 150.628L52.0483 150.652C52.1083 151.12 52.1563 151.672 52.1563 152.092V156.184C52.1563 156.82 51.8683 157.192 51.2923 157.18C50.7043 157.168 50.3803 156.832 50.3803 156.184V149.392C50.3803 148.54 50.7883 148.024 51.5563 148.024C52.3363 148.024 52.6603 148.42 53.1163 149.284C53.8963 150.76 55.3123 153.316 55.9723 154.588L56.0443 154.564C55.9723 154.144 55.9483 153.64 55.9483 153.22V149.02C55.9483 148.384 56.2483 148.024 56.8483 148.024C57.4243 148.024 57.7123 148.372 57.7123 149.02V155.836C57.7123 156.712 57.3043 157.168 56.5003 157.168ZM66.3009 157.072C65.4129 157.072 64.8969 157.036 64.4529 156.976C63.8289 156.892 63.5169 156.544 63.5169 155.944V149.236C63.5169 148.624 63.8409 148.276 64.4769 148.216C64.8609 148.18 65.2569 148.144 66.1209 148.144C69.1209 148.144 70.8129 149.728 70.8129 152.452C70.8129 155.404 69.2169 157.072 66.3009 157.072ZM66.2049 155.68C68.1489 155.68 68.7489 154.456 68.7489 152.512C68.7489 150.532 67.8129 149.524 66.0489 149.524C65.9169 149.524 65.7849 149.536 65.6769 149.548C65.6049 149.56 65.5809 149.596 65.5809 149.656V155.536C65.5809 155.596 65.6049 155.632 65.6889 155.644C65.8329 155.668 66.0129 155.68 66.2049 155.68ZM73.2735 157.168C72.6135 157.168 72.2415 156.868 72.2415 156.232V148.972C72.2415 148.36 72.6255 148.012 73.2735 148.012C73.9215 148.012 74.3055 148.372 74.3055 148.972V156.232C74.3055 156.856 73.9335 157.168 73.2735 157.168ZM75.9196 155.116C76.1596 154.792 76.5916 154.732 76.9156 154.984C77.4076 155.368 77.9476 155.74 78.7756 155.74C79.5076 155.74 79.9516 155.428 79.9636 154.852C79.9756 154.384 79.8076 153.904 78.4156 153.184C76.6156 152.236 75.8476 151.504 75.8476 150.268C75.8476 148.9 77.0836 148.012 79.0156 148.012C80.1916 148.012 81.1036 148.348 81.5116 148.744C81.8476 149.068 81.9196 149.488 81.6916 149.836C81.4396 150.208 80.9716 150.28 80.5996 149.968C80.1916 149.632 79.7236 149.428 79.0036 149.44C78.3436 149.452 77.9596 149.716 77.9596 150.124C77.9596 150.58 78.1276 150.988 79.5316 151.708C81.3436 152.656 82.0996 153.412 82.0996 154.612C82.0996 156.22 80.8876 157.18 78.8836 157.18C77.5036 157.18 76.5196 156.724 76.0276 156.232C75.7036 155.908 75.6676 155.464 75.9196 155.116ZM89.6359 157.18C88.9759 157.18 88.6039 156.868 88.6039 156.196V153.136H85.5319V156.184C85.5319 156.868 85.1599 157.18 84.4999 157.18C83.8399 157.18 83.4679 156.868 83.4679 156.184V149.008C83.4679 148.324 83.8519 148.012 84.4999 148.012C85.1599 148.012 85.5319 148.324 85.5319 149.008V151.768H88.6039V148.996C88.6039 148.324 88.9759 148.012 89.6359 148.012C90.2959 148.012 90.6679 148.324 90.6679 148.996V156.196C90.6679 156.868 90.2959 157.18 89.6359 157.18Z"
                  fill="#4B4948" />
                <path
                  d="M21.6204 38.5407C23.5997 39.7397 24.8507 41.7142 24.9394 44.053C25.0216 46.2144 24.2354 48.3277 22.3498 49.519C21.1254 50.2925 19.738 50.5556 18.3029 50.6211C17.8253 50.6429 17.1859 50.6545 16.3854 50.6559C16.2381 50.6561 16.1025 50.6523 15.9787 50.6439C15.1862 50.5912 14.4029 50.4748 13.6288 50.2947C11.0095 49.6859 8.58941 48.1289 8.08633 45.2846C7.95659 44.5502 7.97693 43.7793 8.12151 43.048C8.57782 40.7379 10.1694 38.7287 12.2914 37.7316C13.3242 37.246 14.4529 37.0428 15.6072 37.1026C16.5175 37.15 17.433 37.2351 18.3324 37.3865C19.3628 37.5598 20.361 37.8482 21.2865 38.3413C21.2936 38.3451 21.2982 38.3431 21.3005 38.3352C21.5931 37.2851 22.3687 36.3175 23.5971 36.5485C23.7762 36.582 23.8661 36.5989 23.8665 36.5989C24.7493 36.7043 25.4095 36.0597 25.7247 35.3051C25.7274 35.2988 25.728 35.2923 25.7266 35.2855C25.5846 34.6409 25.1063 34.1317 24.6022 33.7382C23.9454 33.2255 23.213 32.8269 22.4962 32.4071C22.1415 32.1993 21.8731 31.8613 22.1446 31.4492C22.4492 30.9867 23.132 30.9321 23.6144 31.0593C23.8033 31.109 23.9698 31.1727 24.1486 31.2665C25.4014 31.9248 26.2943 32.9872 26.1967 34.4832C26.1963 34.488 26.2024 34.4907 26.2056 34.4872C27.0613 33.5882 28.4341 32.8196 29.701 33.126C30.1268 33.229 30.601 33.5279 30.7104 33.9834C30.7747 34.2512 30.6852 34.5123 30.42 34.6287C30.3047 34.6793 30.1632 34.6915 30.0196 34.6926C28.9767 34.6993 27.8578 34.6097 26.8631 34.9866C26.6569 35.0648 26.229 35.2963 26.1406 35.5104C25.7487 36.4593 24.8534 37.2055 23.7752 37.0537C23.642 37.035 23.4444 36.9874 23.3014 36.9797C22.4163 36.9314 21.9132 37.8042 21.7253 38.5399C21.7237 38.5462 21.7171 38.5501 21.7108 38.5484L21.6258 38.5273C21.6224 38.5265 21.6187 38.5283 21.6173 38.5315C21.6159 38.535 21.6173 38.5389 21.6204 38.5407ZM16.713 40.2288C16.6099 39.9108 16.2398 39.7462 15.8868 39.8611C15.5335 39.976 15.331 40.3268 15.4343 40.6446C15.5374 40.9625 15.9075 41.1272 16.2605 41.0123C16.6137 40.8974 16.8163 40.5466 16.713 40.2288ZM20.8001 40.9467C20.697 40.6288 20.3269 40.4642 19.9736 40.579C19.6204 40.6939 19.4177 41.0447 19.521 41.3626C19.6241 41.6805 19.9942 41.8451 20.3474 41.7302C20.7006 41.6153 20.9033 41.2645 20.8001 40.9467Z"
                  fill="#B9D27E" />
                <path
                  d="M16.713 40.2288C16.8162 40.5466 16.6137 40.8974 16.2605 41.0123C15.9075 41.1272 15.5374 40.9625 15.4343 40.6446C15.331 40.3268 15.5335 39.976 15.8867 39.8611C16.2398 39.7462 16.6098 39.9108 16.713 40.2288ZM16.379 40.1996C16.3526 40.1147 16.2546 40.0696 16.1601 40.099C16.0655 40.1282 16.01 40.2208 16.0363 40.3058C16.0626 40.3907 16.1607 40.4359 16.2552 40.4065C16.3498 40.3773 16.4053 40.2847 16.379 40.1996Z"
                  fill="#4B4948" />
                <path
                  d="M16.2552 40.4065C16.3498 40.3772 16.4053 40.2846 16.379 40.1996C16.3527 40.1147 16.2547 40.0696 16.1601 40.0989C16.0655 40.1283 16.01 40.2209 16.0363 40.3058C16.0626 40.3907 16.1606 40.4358 16.2552 40.4065Z"
                  fill="white" />
                <path
                  d="M20.8001 40.9466C20.9034 41.2645 20.7006 41.6153 20.3474 41.7302C19.9942 41.8451 19.6241 41.6804 19.521 41.3626C19.4177 41.0447 19.6205 40.6939 19.9737 40.579C20.3269 40.4641 20.697 40.6288 20.8001 40.9466ZM20.4042 40.9973C20.4042 40.9118 20.3348 40.8424 20.2494 40.8424C20.164 40.8424 20.0947 40.9118 20.0947 40.9973C20.0947 41.0828 20.164 41.1522 20.2494 41.1522C20.3348 41.1522 20.4042 41.0828 20.4042 40.9973Z"
                  fill="#4B4948" />
                <path
                  d="M20.2494 41.1522C20.3348 41.1522 20.4041 41.0829 20.4041 40.9974C20.4041 40.9118 20.3348 40.8425 20.2494 40.8425C20.1639 40.8425 20.0946 40.9118 20.0946 40.9974C20.0946 41.0829 20.1639 41.1522 20.2494 41.1522Z"
                  fill="white" />
                <path
                  d="M12.888 52.346C13.248 52.43 13.38 52.652 13.284 52.934C13.182 53.234 12.93 53.336 12.618 53.222C12.024 53.006 11.496 52.646 11.124 52.232V53.15C11.124 53.432 10.95 53.564 10.632 53.564C10.314 53.564 10.14 53.432 10.14 53.15V52.34C9.666 52.748 8.976 53.15 8.268 53.294C8.124 53.336 8.028 53.282 7.98 53.162C7.932 53.036 7.98 52.94 8.118 52.868C8.724 52.616 9.234 52.268 9.642 51.818H8.358C8.196 51.818 8.106 51.722 8.106 51.548C8.106 51.374 8.196 51.278 8.358 51.278H10.14V51.134C10.14 50.9 10.272 50.774 10.482 50.732C10.464 50.702 10.44 50.666 10.428 50.624C10.356 50.42 10.26 50.204 10.188 50.048C10.176 50.018 10.164 49.994 10.158 49.97C9.81 49.982 9.45 49.982 9.114 49.976C9.324 50.09 9.552 50.282 9.714 50.468C9.912 50.69 9.906 50.888 9.678 51.05C9.456 51.206 9.246 51.17 9.114 50.882C9.018 50.678 8.892 50.45 8.784 50.282C8.706 50.162 8.712 50.054 8.796 49.976L8.808 49.964C8.712 49.964 8.616 49.958 8.526 49.952C8.352 49.94 8.286 49.862 8.286 49.724C8.286 49.592 8.358 49.52 8.526 49.514C9.546 49.484 10.458 49.412 11.328 49.238C11.19 49.184 11.118 49.058 11.112 48.866H10.104V48.932C10.104 49.226 9.942 49.358 9.648 49.358C9.354 49.358 9.192 49.226 9.192 48.932V48.866H8.238C8.064 48.866 7.968 48.764 7.968 48.596C7.968 48.422 8.064 48.338 8.238 48.338H9.192V48.308C9.192 48.014 9.39 47.882 9.648 47.882C9.942 47.882 10.104 48.014 10.104 48.308V48.338H11.112V48.314C11.112 48.014 11.304 47.882 11.574 47.882C11.874 47.882 12.036 48.014 12.036 48.314V48.338H13.038C13.2 48.338 13.302 48.434 13.302 48.608C13.302 48.77 13.2 48.866 13.038 48.866H12.036C12.03 48.962 12.012 49.034 11.976 49.094L12.276 49.01C12.516 48.938 12.726 49.022 12.798 49.256C12.87 49.496 12.792 49.7 12.504 49.76C12.468 49.766 12.432 49.772 12.39 49.784C12.426 49.79 12.462 49.808 12.498 49.826C12.75 49.964 12.756 50.204 12.582 50.432C12.354 50.72 12.102 50.942 11.82 51.086C11.7 51.146 11.604 51.152 11.514 51.068C11.424 50.984 11.406 50.864 11.49 50.756C11.628 50.582 11.766 50.33 11.892 50.048C11.934 49.952 11.988 49.886 12.054 49.838C11.688 49.886 11.25 49.922 10.782 49.946C10.89 50.042 10.986 50.15 11.07 50.27C11.214 50.48 11.172 50.666 10.968 50.804C11.07 50.87 11.124 50.978 11.124 51.134V51.278H12.924C13.086 51.278 13.176 51.374 13.176 51.548C13.176 51.722 13.086 51.818 12.924 51.818H11.46C11.844 52.028 12.312 52.214 12.888 52.346ZM18.762 52.346C19.122 52.43 19.254 52.652 19.158 52.934C19.056 53.234 18.804 53.336 18.492 53.222C17.898 53.006 17.37 52.646 16.998 52.232V53.15C16.998 53.432 16.824 53.564 16.506 53.564C16.188 53.564 16.014 53.432 16.014 53.15V52.34C15.54 52.748 14.85 53.15 14.142 53.294C13.998 53.336 13.902 53.282 13.854 53.162C13.806 53.036 13.854 52.94 13.992 52.868C14.598 52.616 15.108 52.268 15.516 51.818H14.232C14.07 51.818 13.98 51.722 13.98 51.548C13.98 51.374 14.07 51.278 14.232 51.278H16.014V51.134C16.014 50.9 16.146 50.774 16.356 50.732C16.338 50.702 16.314 50.666 16.302 50.624C16.23 50.42 16.134 50.204 16.062 50.048C16.05 50.018 16.038 49.994 16.032 49.97C15.684 49.982 15.324 49.982 14.988 49.976C15.198 50.09 15.426 50.282 15.588 50.468C15.786 50.69 15.78 50.888 15.552 51.05C15.33 51.206 15.12 51.17 14.988 50.882C14.892 50.678 14.766 50.45 14.658 50.282C14.58 50.162 14.586 50.054 14.67 49.976L14.682 49.964C14.586 49.964 14.49 49.958 14.4 49.952C14.226 49.94 14.16 49.862 14.16 49.724C14.16 49.592 14.232 49.52 14.4 49.514C15.42 49.484 16.332 49.412 17.202 49.238C17.064 49.184 16.992 49.058 16.986 48.866H15.978V48.932C15.978 49.226 15.816 49.358 15.522 49.358C15.228 49.358 15.066 49.226 15.066 48.932V48.866H14.112C13.938 48.866 13.842 48.764 13.842 48.596C13.842 48.422 13.938 48.338 14.112 48.338H15.066V48.308C15.066 48.014 15.264 47.882 15.522 47.882C15.816 47.882 15.978 48.014 15.978 48.308V48.338H16.986V48.314C16.986 48.014 17.178 47.882 17.448 47.882C17.748 47.882 17.91 48.014 17.91 48.314V48.338H18.912C19.074 48.338 19.176 48.434 19.176 48.608C19.176 48.77 19.074 48.866 18.912 48.866H17.91C17.904 48.962 17.886 49.034 17.85 49.094L18.15 49.01C18.39 48.938 18.6 49.022 18.672 49.256C18.744 49.496 18.666 49.7 18.378 49.76C18.342 49.766 18.306 49.772 18.264 49.784C18.3 49.79 18.336 49.808 18.372 49.826C18.624 49.964 18.63 50.204 18.456 50.432C18.228 50.72 17.976 50.942 17.694 51.086C17.574 51.146 17.478 51.152 17.388 51.068C17.298 50.984 17.28 50.864 17.364 50.756C17.502 50.582 17.64 50.33 17.766 50.048C17.808 49.952 17.862 49.886 17.928 49.838C17.562 49.886 17.124 49.922 16.656 49.946C16.764 50.042 16.86 50.15 16.944 50.27C17.088 50.48 17.046 50.666 16.842 50.804C16.944 50.87 16.998 50.978 16.998 51.134V51.278H18.798C18.96 51.278 19.05 51.374 19.05 51.548C19.05 51.722 18.96 51.818 18.798 51.818H17.334C17.718 52.028 18.186 52.214 18.762 52.346ZM24.822 50.468C25.008 50.468 25.11 50.576 25.11 50.78C25.11 50.984 25.008 51.092 24.822 51.092H22.938V52.622C22.938 53.558 22.02 53.828 20.82 53.264C20.688 53.198 20.646 53.102 20.676 52.964C20.706 52.838 20.802 52.778 20.97 52.79C21.804 52.844 21.906 52.826 21.906 52.46V51.092H19.92C19.734 51.092 19.632 50.984 19.632 50.78C19.632 50.576 19.734 50.468 19.92 50.468H21.906V49.886C21.906 49.55 22.086 49.382 22.422 49.382C22.542 49.382 22.644 49.406 22.728 49.448C22.914 49.286 23.112 49.094 23.304 48.872C23.346 48.818 23.328 48.752 23.268 48.752H20.412C20.232 48.752 20.136 48.638 20.136 48.464C20.136 48.29 20.238 48.2 20.412 48.2H23.448C23.82 47.99 24.18 48.08 24.366 48.284C24.57 48.506 24.564 48.824 24.306 49.076C23.946 49.43 23.49 49.73 22.938 49.976V50.468H24.822Z"
                  fill="#4D886C" />
              </g>
              <defs>
                <filter id="filter0_d_808_307" x="0" y="0" width="152.871" height="244.032" filterUnits="userSpaceOnUse"
                  color-interpolation-filters="sRGB">
                  <feFlood flood-opacity="0" result="BackgroundImageFix" />
                  <feColorMatrix in="SourceAlpha" type="matrix" values="0 0 0 0 0 0 0 0 0 0 0 0 0 0 0 0 0 0 127 0"
                    result="hardAlpha" />
                  <feOffset dx="4" dy="4" />
                  <feComposite in2="hardAlpha" operator="out" />
                  <feColorMatrix type="matrix" values="0 0 0 0 0 0 0 0 0 0 0 0 0 0 0 0 0 0 0.25 0" />
                  <feBlend mode="normal" in2="BackgroundImageFix" result="effect1_dropShadow_808_307" />
                  <feBlend mode="normal" in="SourceGraphic" in2="effect1_dropShadow_808_307" result="shape" />
                </filter>
              </defs>
            </svg>